{
.appVersion = "3506";
.formatVersion = 3;
axes = (
{
name = Weight;
tag = wght;
}
);
classes = (
{
automatic = 1;

glyphs = (
{
glyphname = A;
kernLeft = A;
kernRight = A;
layers = (
{
anchors = (
{
name = bottom;
pos = (365,0);
},
{
name = ogonek;
pos = (657,0);
},
{
name = top;
pos = (451,684);
}
);
hints = (
{
name = _corner.caps_diag;
options = 1;
origin = (0,4);
scale = (-1,1);
type = Corner;
}
);
layerId = "49C16FD3-6177-408B-A733-AEB3898BB77C";
shapes = (
{
closed = 1;
nodes = (
(657,0,l,{
"Letterink-NibData" = {
AngleInDegrees = "337.30364";
};
}),
(455,692,l,{
"Letterink-NibData" = {
AngleInDegrees = "270";
};
}),
(449,692,l,{
"Letterink-NibData" = {
AngleInDegrees = "202.68401";
};
}),
(111,63,l,{
"Letterink-NibData" = {
AngleInDegrees = "202.61986";
};
}),
(144,45,l,{
"Letterink-NibData" = {
AngleInDegrees = "22.1315";
};
}),
(254,251,l,{
"Letterink-NibData" = {
AngleInDegrees = "235.7843";
};
}),
(223,234,l,{
"Letterink-NibData" = {
AngleInDegrees = "90";
};
}),
(564,234,l,{
"Letterink-NibData" = {
AngleInDegrees = "304.2157";
};
}),
(543,251,l,{
"Letterink-NibData" = {
AngleInDegrees = "157.41269";
};
}),
(616,0,l,{
"Letterink-NibData" = {
AngleInDegrees = "337.30364";
};
})
);
},
{
closed = 1;
nodes = (
(430,584,l,{
"Letterink-NibData" = {
AngleInDegrees = "16.29405";
};
}),
(443,617,l,{
"Letterink-NibData" = {
AngleInDegrees = "163.21735";
};
}),
(448,584,l,{
"Letterink-NibData" = {
AngleInDegrees = "158.19859";
};
}),
(541,257,l,{
"Letterink-NibData" = {
AngleInDegrees = "32.90524";
};
}),
(551,270,l,{
"Letterink-NibData" = {
AngleInDegrees = "270";
};
}),
(242,270,l,{
"Letterink-NibData" = {
AngleInDegrees = "147.09476";
};
}),
(257,257,l,{
"Letterink-NibData" = {
AngleInDegrees = "22.09423";
};
})
);
}
);
width = 705;
},
{
anchors = (
{
name = bottom;
pos = (388,0);
},
{
name = ogonek;
pos = (718,0);
},
{
name = top;
pos = (473,684);
}
);
hints = (
{
name = _corner.caps_diag;
options = 1;
origin = (0,4);
scale = (-1,1);
type = Corner;
}
);
layerId = m004;
shapes = (
{
closed = 1;
nodes = (
(718,0,l,{
"Letterink-NibData" = {
AngleInDegrees = "337.32254";
};
}),
(531,689,l,{
"Letterink-NibData" = {
AngleInDegrees = "270";
};
}),
(418,689,l,{
"Letterink-NibData" = {
AngleInDegrees = "202.53914";
};
}),
(129,138,l,{
"Letterink-NibData" = {
AngleInDegrees = "90";
};
}),
(264,52,l,{
"Letterink-NibData" = {
AngleInDegrees = "22.65189";
};
}),
(361,239,l,{
"Letterink-NibData" = {
AngleInDegrees = "236.57519";
};
}),
(249,141,l,{
"Letterink-NibData" = {
AngleInDegrees = "90";
};
}),
(567,141,l,{
"Letterink-NibData" = {
AngleInDegrees = "303.42481";
};
}),
(473,276,l,{
"Letterink-NibData" = {
AngleInDegrees = "156.96496";
};
}),
(545,0,l,{
"Letterink-NibData" = {
AngleInDegrees = "90";
};
})
);
},
{
closed = 1;
nodes = (
(464,470,l,{
"Letterink-NibData" = {
AngleInDegrees = "19.98311";
};
}),
(446,490,l,{
"Letterink-NibData" = {
AngleInDegrees = "161.56505";
};
}),
(428,472,l,{
"Letterink-NibData" = {
AngleInDegrees = "158.35875";
};
}),
(475,266,l,{
"Letterink-NibData" = {
AngleInDegrees = "34.87533";
};
}),
(548,279,l,{
"Letterink-NibData" = {
AngleInDegrees = "270";
};
}),
(361,279,l,{
"Letterink-NibData" = {
AngleInDegrees = "145.92281";
};
}),
(375,275,l,{
"Letterink-NibData" = {
AngleInDegrees = "21.36191";
};
})
);
}
);
width = 746;
},
{
anchors = (
{
name = bottom;
pos = (377,0);
},
{
name = ogonek;
pos = (672,0);
},
{
name = top;
pos = (461,686);
}
);
hints = (
{
name = _corner.caps_diag;
options = 1;
origin = (0,4);
scale = (-1,1);
type = Corner;
}
);
layerId = "E3F1072B-0B24-4A31-98F2-2D5ADE0E752A";
shapes = (
{
closed = 1;
nodes = (
(672,0,l,{
"Letterink-NibData" = {
AngleInDegrees = "337.30364";
};
}),
(475,690,l,{
"Letterink-NibData" = {
AngleInDegrees = "270";
};
}),
(447,690,l,{
"Letterink-NibData" = {
AngleInDegrees = "202.68401";
};
}),
(115,85,l,{
"Letterink-NibData" = {
AngleInDegrees = "202.61986";
};
}),
(174,50,l,{
"Letterink-NibData" = {
AngleInDegrees = "22.1315";
};
}),
(281,245,l,{
"Letterink-NibData" = {
AngleInDegrees = "235.7843";
};
}),
(234,212,l,{
"Letterink-NibData" = {
AngleInDegrees = "90";
};
}),
(571,212,l,{
"Letterink-NibData" = {
AngleInDegrees = "304.2157";
};
}),
(526,264,l,{
"Letterink-NibData" = {
AngleInDegrees = "157.41269";
};
}),
(600,0,l,{
"Letterink-NibData" = {
AngleInDegrees = "337.30364";
};
})
);
},
{
closed = 1;
nodes = (
(440,549,l,{
"Letterink-NibData" = {
AngleInDegrees = "16.29405";
};
}),
(449,576,l,{
"Letterink-NibData" = {
AngleInDegrees = "163.21735";
};
}),
(454,545,l,{
"Letterink-NibData" = {
AngleInDegrees = "158.19859";
};
}),
(527,249,l,{
"Letterink-NibData" = {
AngleInDegrees = "32.90524";
};
}),
(561,277,l,{
"Letterink-NibData" = {
AngleInDegrees = "270";
};
}),
(289,277,l,{
"Letterink-NibData" = {
AngleInDegrees = "147.09476";
};
}),
(297,271,l,{
"Letterink-NibData" = {
AngleInDegrees = "22.09423";
};
})
);
}
);
width = 718;
}
);
unicode = 65;
userData = {
position = 666;
width = 20;
};
},
{
glyphname = A.ss01;
kernLeft = Atext;
kernRight = A;
layers = (
{
anchors = (
{
name = bottom;
pos = (287,-2);
},
{
name = ogonek;
pos = (589,1);
},
{
name = top;
pos = (370,684);
}
);
layerId = "49C16FD3-6177-408B-A733-AEB3898BB77C";
shapes = (
{
closed = 1;
nodes = (
(27,0,l,{
"Letterink-NibData" = {
AngleInDegrees = 22.78241;
};
}),
(162,251,l,{
"Letterink-NibData" = {
AngleInDegrees = 235.7843;
};
}),
(139,236,l,{
"Letterink-NibData" = {
AngleInDegrees = 90;
};
}),
(492,236,l,{
"Letterink-NibData" = {
AngleInDegrees = 304.2157;
};
}),
(473,251,l,{
"Letterink-NibData" = {
AngleInDegrees = 157.02305;
};
}),
(548,0,l,{
"Letterink-NibData" = {
AngleInDegrees = 90;
};
}),
(589,0,l,{
"Letterink-NibData" = {
AngleInDegrees = 336.95898;
};
}),
(377,699,l,{
"Letterink-NibData" = {
AngleInDegrees = 270;
};
}),
(368,699,l,{
"Letterink-NibData" = {
AngleInDegrees = 202.90284;
};
}),
(-14,0,l,{
"Letterink-NibData" = {
AngleInDegrees = 90;
};
})
);
},
{
closed = 1;
nodes = (
(345,585,l,{
"Letterink-NibData" = {
AngleInDegrees = 22.61986;
};
}),
(365,631,l,{
"Letterink-NibData" = {
AngleInDegrees = 160.34617;
};
}),
(373,587,l,{
"Letterink-NibData" = {
AngleInDegrees = 157.39526;
};
}),
(471,257,l,{
"Letterink-NibData" = {
AngleInDegrees = 32.90524;
};
}),
(483,272,l,{
"Letterink-NibData" = {
AngleInDegrees = 270;
};
}),
(158,272,l,{
"Letterink-NibData" = {
AngleInDegrees = 147.09476;
};
}),
(166,257,l,{
"Letterink-NibData" = {
AngleInDegrees = 22.96683;
};
})
);
}
);
width = 637;
},
{
anchors = (
{
name = bottom;
pos = (308,0);
},
{
name = ogonek;
pos = (648,0);
},
{
name = top;
pos = (392,694);
}
);
layerId = m004;
shapes = (
{
closed = 1;
nodes = (
(149,0,l,{
"Letterink-NibData" = {
AngleInDegrees = 22.65189;
};
}),
(284,257,l,{
"Letterink-NibData" = {
AngleInDegrees = 236.57519;
};
}),
(169,146,l,{
"Letterink-NibData" = {
AngleInDegrees = 90;
};
}),
(479,146,l,{
"Letterink-NibData" = {
AngleInDegrees = 303.42481;
};
}),
(393,257,l,{
"Letterink-NibData" = {
AngleInDegrees = 156.96496;
};
}),
(471,0,l,{
"Letterink-NibData" = {
AngleInDegrees = 90;
};
}),
(647,0,l,{
"Letterink-NibData" = {
AngleInDegrees = 337.32254;
};
}),
(438,694,l,{
"Letterink-NibData" = {
AngleInDegrees = 270;
};
}),
(352,694,l,{
"Letterink-NibData" = {
AngleInDegrees = 202.53914;
};
}),
(-34,0,l,{
"Letterink-NibData" = {
AngleInDegrees = 90;
};
})
);
},
{
closed = 1;
nodes = (
(389,480,l,{
"Letterink-NibData" = {
AngleInDegrees = 19.98311;
};
}),
(365,484,l,{
"Letterink-NibData" = {
AngleInDegrees = 161.56505;
};
}),
(340,480,l,{
"Letterink-NibData" = {
AngleInDegrees = 158.35875;
};
}),
(389,272,l,{
"Letterink-NibData" = {
AngleInDegrees = 34.87533;
};
}),
(436,288,l,{
"Letterink-NibData" = {
AngleInDegrees = 270;
};
}),
(245,288,l,{
"Letterink-NibData" = {
AngleInDegrees = 145.92281;
};
}),
(293,268,l,{
"Letterink-NibData" = {
AngleInDegrees = 21.36191;
};
})
);
}
);
width = 675;
},
{
anchors = (
{
name = bottom;
pos = (293,0);
},
{
name = ogonek;
pos = (601,-1);
},
{
name = top;
pos = (377,689);
}
);
layerId = "E3F1072B-0B24-4A31-98F2-2D5ADE0E752A";
shapes = (
{
closed = 1;
nodes = (
(63,0,l,{
"Letterink-NibData" = {
AngleInDegrees = 22.78241;
};
}),
(198,253,l,{
"Letterink-NibData" = {
AngleInDegrees = 235.7843;
};
}),
(149,216,l,{
"Letterink-NibData" = {
AngleInDegrees = 90;
};
}),
(487,216,l,{
"Letterink-NibData" = {
AngleInDegrees = 304.2157;
};
}),
(448,253,l,{
"Letterink-NibData" = {
AngleInDegrees = 157.02305;
};
}),
(524,0,l,{
"Letterink-NibData" = {
AngleInDegrees = 90;
};
}),
(601,0,l,{
"Letterink-NibData" = {
AngleInDegrees = 336.95898;
};
}),
(392,701,l,{
"Letterink-NibData" = {
AngleInDegrees = 270;
};
}),
(364,701,l,{
"Letterink-NibData" = {
AngleInDegrees = 202.90284;
};
}),
(-16,0,l,{
"Letterink-NibData" = {
AngleInDegrees = 90;
};
})
);
},
{
closed = 1;
nodes = (
(347,528,l,{
"Letterink-NibData" = {
AngleInDegrees = 22.61986;
};
}),
(363,571,l,{
"Letterink-NibData" = {
AngleInDegrees = 160.34617;
};
}),
(369,528,l,{
"Letterink-NibData" = {
AngleInDegrees = 157.39526;
};
}),
(444,259,l,{
"Letterink-NibData" = {
AngleInDegrees = 32.90524;
};
}),
(468,281,l,{
"Letterink-NibData" = {
AngleInDegrees = 270;
};
}),
(185,281,l,{
"Letterink-NibData" = {
AngleInDegrees = 147.09476;
};
}),
(205,259,l,{
"Letterink-NibData" = {
AngleInDegrees = 22.96683;
};
})
);
}
);
width = 647;
}
);
metricLeft = "=|A";
metricRight = A;
userData = {
position = 10;
width = 615;
};
},
{
glyphname = A.swsh;
kernLeft = A.swsh;
kernRight = A;
layers = (
{
anchors = (
{
name = bottom;
pos = (408,0);
},
{
name = ogonek;
pos = (700,1);
},
{
name = top;
pos = (493,684);
}
);
hints = (
{
name = _corner.caps_swash_diag;
options = 1;
origin = (0,4);
scale = (-1,1);
type = Corner;
},
{
name = _corner.caps_swash.big;
origin = (2,2);
type = Corner;
}
);
layerId = "49C16FD3-6177-408B-A733-AEB3898BB77C";
shapes = (
{
closed = 1;
nodes = (
(700,0,l,{
"Letterink-NibData" = {
AngleInDegrees = "337.30364";
};
}),
(497,684,l,{
"Letterink-NibData" = {
AngleInDegrees = "270";
};
}),
(488,684,l,{
"Letterink-NibData" = {
AngleInDegrees = "202.68401";
};
}),
(149,70,l,{
"Letterink-NibData" = {
AngleInDegrees = "202.61986";
};
}),
(183,54,l,{
"Letterink-NibData" = {
AngleInDegrees = "22.1315";
};
}),
(290,251,l,{
"Letterink-NibData" = {
AngleInDegrees = "235.7843";
};
}),
(265,234,l,{
"Letterink-NibData" = {
AngleInDegrees = "90";
};
}),
(606,234,l,{
"Letterink-NibData" = {
AngleInDegrees = "304.2157";
};
}),
(587,251,l,{
"Letterink-NibData" = {
AngleInDegrees = "157.41269";
};
}),
(659,0,l,{
"Letterink-NibData" = {
AngleInDegrees = "90";
};
})
);
},
{
closed = 1;
nodes = (
(466,576,l,{
"Letterink-NibData" = {
AngleInDegrees = "16.29405";
};
}),
(484,619,l,{
"Letterink-NibData" = {
AngleInDegrees = "163.21735";
};
}),
(493,576,l,{
"Letterink-NibData" = {
AngleInDegrees = "158.19859";
};
}),
(584,257,l,{
"Letterink-NibData" = {
AngleInDegrees = "32.90524";
};
}),
(594,270,l,{
"Letterink-NibData" = {
AngleInDegrees = "270";
};
}),
(285,270,l,{
"Letterink-NibData" = {
AngleInDegrees = "147.09476";
};
}),
(294,257,l,{
"Letterink-NibData" = {
AngleInDegrees = "22.09423";
};
})
);
},
{
closed = 1;
nodes = (
(487,648,l),
(491,684,l,{
"Letterink-NibData" = {
AngleInDegrees = "270";
};
}),
(318,684,l,{
"Letterink-NibData" = {
AngleInDegrees = "180";
};
}),
(319,648,l,{
"Letterink-NibData" = {
AngleInDegrees = "90";
};
})
);
}
);
width = 748;
},
{
anchors = (
{
name = bottom;
pos = (478,0);
},
{
name = ogonek;
pos = (820,0);
},
{
name = top;
pos = (562,694);
}
);
hints = (
{
name = _corner.caps_swash_diag;
options = 1;
origin = (0,4);
scale = (-1,1);
type = Corner;
},
{
name = _corner.caps_swash.big;
origin = (2,2);
type = Corner;
}
);
layerId = m004;
shapes = (
{
closed = 1;
nodes = (
(819,0,l,{
"Letterink-NibData" = {
AngleInDegrees = "337.32254";
};
}),
(635,684,l,{
"Letterink-NibData" = {
AngleInDegrees = "270";
};
}),
(489,684,l,{
"Letterink-NibData" = {
AngleInDegrees = "202.53914";
};
}),
(202,152,l,{
"Letterink-NibData" = {
AngleInDegrees = "90";
};
}),
(343,77,l,{
"Letterink-NibData" = {
AngleInDegrees = "22.65189";
};
}),
(448,258,l,{
"Letterink-NibData" = {
AngleInDegrees = "236.57519";
};
}),
(341,146,l,{
"Letterink-NibData" = {
AngleInDegrees = "90";
};
}),
(651,146,l,{
"Letterink-NibData" = {
AngleInDegrees = "303.42481";
};
}),
(570,257,l,{
"Letterink-NibData" = {
AngleInDegrees = "156.96496";
};
}),
(648,0,l,{
"Letterink-NibData" = {
AngleInDegrees = "90";
};
})
);
},
{
closed = 1;
nodes = (
(555,480,l,{
"Letterink-NibData" = {
AngleInDegrees = "19.98311";
};
}),
(537,484,l,{
"Letterink-NibData" = {
AngleInDegrees = "161.56505";
};
}),
(519,480,l,{
"Letterink-NibData" = {
AngleInDegrees = "158.35875";
};
}),
(561,272,l,{
"Letterink-NibData" = {
AngleInDegrees = "34.87533";
};
}),
(608,288,l,{
"Letterink-NibData" = {
AngleInDegrees = "270";
};
}),
(417,288,l,{
"Letterink-NibData" = {
AngleInDegrees = "145.92281";
};
}),
(461,268,l,{
"Letterink-NibData" = {
AngleInDegrees = "21.36191";
};
})
);
},
{
closed = 1;
nodes = (
(571,536,l),
(589,684,l,{
"Letterink-NibData" = {
AngleInDegrees = "270";
};
}),
(353,684,l,{
"Letterink-NibData" = {
AngleInDegrees = "180";
};
}),
(351,535,l)
);
}
);
width = 847;
},
{
anchors = (
{
name = bottom;
pos = (410,0);
},
{
name = ogonek;
pos = (715,0);
},
{
name = top;
pos = (493,684);
}
);
hints = (
{
name = _corner.caps_swash_diag;
options = 1;
origin = (0,4);
scale = (-1,1);
type = Corner;
},
{
name = _corner.caps_swash.big;
origin = (2,2);
type = Corner;
}
);
layerId = "E3F1072B-0B24-4A31-98F2-2D5ADE0E752A";
shapes = (
{
closed = 1;
nodes = (
(714,0,l,{
"Letterink-NibData" = {
AngleInDegrees = "337.30364";
};
}),
(513,685,l,{
"Letterink-NibData" = {
AngleInDegrees = "270";
};
}),
(474,685,l,{
"Letterink-NibData" = {
AngleInDegrees = "202.68401";
};
}),
(151,91,l,{
"Letterink-NibData" = {
AngleInDegrees = "202.61986";
};
}),
(212,53,l,{
"Letterink-NibData" = {
AngleInDegrees = "22.1315";
};
}),
(317,253,l,{
"Letterink-NibData" = {
AngleInDegrees = "235.7843";
};
}),
(268,215,l,{
"Letterink-NibData" = {
AngleInDegrees = "90";
};
}),
(603,215,l,{
"Letterink-NibData" = {
AngleInDegrees = "304.2157";
};
}),
(564,253,l,{
"Letterink-NibData" = {
AngleInDegrees = "157.41269";
};
}),
(639,0,l,{
"Letterink-NibData" = {
AngleInDegrees = "90";
};
})
);
},
{
closed = 1;
nodes = (
(469,549,l,{
"Letterink-NibData" = {
AngleInDegrees = "16.29405";
};
}),
(481,582,l,{
"Letterink-NibData" = {
AngleInDegrees = "163.21735";
};
}),
(486,549,l,{
"Letterink-NibData" = {
AngleInDegrees = "158.19859";
};
}),
(560,259,l,{
"Letterink-NibData" = {
AngleInDegrees = "32.90524";
};
}),
(582,281,l,{
"Letterink-NibData" = {
AngleInDegrees = "270";
};
}),
(305,281,l,{
"Letterink-NibData" = {
AngleInDegrees = "147.09476";
};
}),
(322,259,l,{
"Letterink-NibData" = {
AngleInDegrees = "22.09423";
};
})
);
},
{
closed = 1;
nodes = (
(490,618,l),
(498,685,l,{
"Letterink-NibData" = {
AngleInDegrees = "270";
};
}),
(317,685,l,{
"Letterink-NibData" = {
AngleInDegrees = "180";
};
}),
(318,618,l,{
"Letterink-NibData" = {
AngleInDegrees = "90";
};
})
);
}
);
width = 760;
}
);
metricLeft = A;
metricRight = A;
userData = {
position = 666;
width = 20;
};
},
{
glyphname = AE;
kernLeft = A;
kernRight = E;
layers = (
{
anchors = (
{
name = bottom;
pos = (515,0);
},
{
name = top;
pos = (641,684);
}
);
hints = (
{
name = _corner.caps_diag;
origin = (0,12);
scale = (-1,1);
type = Corner;
}
);
layerId = "49C16FD3-6177-408B-A733-AEB3898BB77C";
shapes = (
{
closed = 1;
nodes = (
(888,1,l),
(893,37,l,{
"Letterink-NibData" = {
AngleInDegrees = 270;
};
}),
(513,37,l),
(550,346,l,{
"Letterink-NibData" = {
AngleInDegrees = 90;
};
}),
(806,346,l),
(811,382,l,{
"Letterink-NibData" = {
AngleInDegrees = 270;
};
}),
(555,382,l),
(588,649,l,{
"Letterink-NibData" = {
AngleInDegrees = 90;
};
}),
(948,649,l),
(952,685,l,{
"Letterink-NibData" = {
AngleInDegrees = 270;
};
}),
(526,685,l,{
"Letterink-NibData" = {
AngleInDegrees = 208.82166;
};
}),
(112,56,l,{
"Letterink-NibData" = {
AngleInDegrees = 213.69007;
};
}),
(145,38,l,{
"Letterink-NibData" = {
AngleInDegrees = 29.29136;
};
}),
(277,249,l,{
"Letterink-NibData" = {
AngleInDegrees = 90;
};
}),
(252,237,l,{
"Letterink-NibData" = {
AngleInDegrees = 90;
};
}),
(516,237,l,{
"Letterink-NibData" = {
AngleInDegrees = 180;
};
}),
(502,253,l,{
"Letterink-NibData" = {
AngleInDegrees = 180;
};
}),
(471,1,l,{
"Letterink-NibData" = {
AngleInDegrees = 90;
};
})
);
},
{
closed = 1;
nodes = (
(521,273,l,{
"Letterink-NibData" = {
AngleInDegrees = 270;
};
}),
(275,273,l,{
"Letterink-NibData" = {
AngleInDegrees = 28.59795;
};
}),
(284,259,l,{
"Letterink-NibData" = {
AngleInDegrees = 28.59795;
};
}),
(528,627,l,{
"Letterink-NibData" = {
AngleInDegrees = 27.32389;
};
}),
(553,663,l,{
"Letterink-NibData" = {
AngleInDegrees = 179.84962;
};
}),
(503,257,l,{
"Letterink-NibData" = {
AngleInDegrees = 270;
};
})
);
}
);
width = 939;
},
{
anchors = (
{
name = bottom;
pos = (581,0);
},
{
name = top;
pos = (676,684);
}
);
hints = (
{
name = _corner.caps_diag;
origin = (0,12);
scale = (-1,1);
type = Corner;
}
);
layerId = m004;
shapes = (
{
closed = 1;
nodes = (
(924,0,l),
(942,148,l,{
"Letterink-NibData" = {
AngleInDegrees = "270";
};
}),
(643,148,l),
(660,281,l,{
"Letterink-NibData" = {
AngleInDegrees = "90";
};
}),
(849,281,l),
(867,429,l,{
"Letterink-NibData" = {
AngleInDegrees = "270";
};
}),
(678,429,l),
(691,536,l,{
"Letterink-NibData" = {
AngleInDegrees = "90";
};
}),
(970,536,l),
(988,685,l,{
"Letterink-NibData" = {
AngleInDegrees = "270";
};
}),
(475,684,l,{
"Letterink-NibData" = {
AngleInDegrees = "209.70894";
};
}),
(129,140,l,{
"Letterink-NibData" = {
AngleInDegrees = "89.3704";
};
}),
(267,60,l,{
"Letterink-NibData" = {
AngleInDegrees = "28.81079";
};
}),
(384,256,l,{
"Letterink-NibData" = {
AngleInDegrees = "90";
};
}),
(278,146,l,{
"Letterink-NibData" = {
AngleInDegrees = "90";
};
}),
(547,146,l,{
"Letterink-NibData" = {
AngleInDegrees = "180";
};
}),
(489,240,l,{
"Letterink-NibData" = {
AngleInDegrees = "180";
};
}),
(460,0,l,{
"Letterink-NibData" = {
AngleInDegrees = "90";
};
})
);
},
{
closed = 1;
nodes = (
(567,296,l,{
"Letterink-NibData" = {
AngleInDegrees = "270";
};
}),
(379,296,l,{
"Letterink-NibData" = {
AngleInDegrees = "28.68615";
};
}),
(415,279,l,{
"Letterink-NibData" = {
AngleInDegrees = "28.68615";
};
}),
(508,450,l),
(519,477,l,{
"Letterink-NibData" = {
AngleInDegrees = "23.62938";
};
}),
(494,275,l,{
"Letterink-NibData" = {
AngleInDegrees = "270";
};
})
);
}
);
width = 977;
},
{
anchors = (
{
name = bottom;
pos = (507,0);
},
{
name = top;
pos = (608,684);
}
);
hints = (
{
name = _corner.caps_diag;
origin = (0,12);
scale = (-1,1);
type = Corner;
}
);
layerId = "E3F1072B-0B24-4A31-98F2-2D5ADE0E752A";
shapes = (
{
closed = 1;
nodes = (
(883,-1,l),
(891,66,l,{
"Letterink-NibData" = {
AngleInDegrees = 270;
};
}),
(530,66,l),
(562,330,l,{
"Letterink-NibData" = {
AngleInDegrees = 90;
};
}),
(804,330,l),
(812,397,l,{
"Letterink-NibData" = {
AngleInDegrees = 270;
};
}),
(571,397,l),
(598,619,l,{
"Letterink-NibData" = {
AngleInDegrees = 90;
};
}),
(939,619,l),
(947,686,l,{
"Letterink-NibData" = {
AngleInDegrees = 270;
};
}),
(503,686,l,{
"Letterink-NibData" = {
AngleInDegrees = 208.82166;
};
}),
(116,76,l,{
"Letterink-NibData" = {
AngleInDegrees = 213.69007;
};
}),
(171,35,l,{
"Letterink-NibData" = {
AngleInDegrees = 29.29136;
};
}),
(302,251,l,{
"Letterink-NibData" = {
AngleInDegrees = 90;
};
}),
(248,216,l,{
"Letterink-NibData" = {
AngleInDegrees = 90;
};
}),
(508,216,l,{
"Letterink-NibData" = {
AngleInDegrees = 180;
};
}),
(481,255,l,{
"Letterink-NibData" = {
AngleInDegrees = 180;
};
}),
(450,-1,l,{
"Letterink-NibData" = {
AngleInDegrees = 90;
};
})
);
},
{
closed = 1;
nodes = (
(517,283,l,{
"Letterink-NibData" = {
AngleInDegrees = 270;
};
}),
(295,283,l,{
"Letterink-NibData" = {
AngleInDegrees = 28.59795;
};
}),
(310,263,l,{
"Letterink-NibData" = {
AngleInDegrees = 28.59795;
};
}),
(501,557,l,{
"Letterink-NibData" = {
AngleInDegrees = 27.32389;
};
}),
(525,604,l,{
"Letterink-NibData" = {
AngleInDegrees = 179.84962;
};
}),
(482,259,l,{
"Letterink-NibData" = {
AngleInDegrees = 270;
};
})
);
}
);
width = 938;
}
);
unicode = 198;
userData = {
position = 422;
width = 61;
};
},
{
glyphname = AE.ss01;
kernLeft = Atext;
kernRight = E;
layers = (
{
anchors = (
{
name = bottom;
pos = (420,0);
},
{
name = top;
pos = (577,684);
}
);
layerId = "49C16FD3-6177-408B-A733-AEB3898BB77C";
shapes = (
{
closed = 1;
nodes = (
(31,1,l,{
"Letterink-NibData" = {
AngleInDegrees = 28.2127;
};
}),
(195,250,l,{
"Letterink-NibData" = {
AngleInDegrees = 90;
};
}),
(159,236,l,{
"Letterink-NibData" = {
AngleInDegrees = 90;
};
}),
(421,236,l,{
"Letterink-NibData" = {
AngleInDegrees = 180;
};
}),
(406,252,l,{
"Letterink-NibData" = {
AngleInDegrees = 180;
};
}),
(375,1,l,{
"Letterink-NibData" = {
AngleInDegrees = 90;
};
}),
(796,1,l),
(801,37,l,{
"Letterink-NibData" = {
AngleInDegrees = 270;
};
}),
(418,37,l),
(455,346,l,{
"Letterink-NibData" = {
AngleInDegrees = 90;
};
}),
(715,346,l),
(720,382,l,{
"Letterink-NibData" = {
AngleInDegrees = 270;
};
}),
(460,382,l),
(493,649,l,{
"Letterink-NibData" = {
AngleInDegrees = 90;
};
}),
(856,649,l),
(860,685,l,{
"Letterink-NibData" = {
AngleInDegrees = 270;
};
}),
(441,685,l,{
"Letterink-NibData" = {
AngleInDegrees = 208.86222;
};
}),
(-14,1,l,{
"Letterink-NibData" = {
AngleInDegrees = 90;
};
})
);
},
{
closed = 1;
nodes = (
(426,272,l,{
"Letterink-NibData" = {
AngleInDegrees = 270;
};
}),
(180,272,l,{
"Letterink-NibData" = {
AngleInDegrees = 28.9193;
};
}),
(201,257,l,{
"Letterink-NibData" = {
AngleInDegrees = 28.9193;
};
}),
(427,601,l,{
"Letterink-NibData" = {
AngleInDegrees = 32.55;
};
}),
(455,650,l,{
"Letterink-NibData" = {
AngleInDegrees = 180;
};
}),
(407,256,l,{
"Letterink-NibData" = {
AngleInDegrees = 270;
};
})
);
}
);
width = 849;
},
{
anchors = (
{
name = bottom;
pos = (409,0);
},
{
name = top;
pos = (576,684);
}
);
layerId = m004;
shapes = (
{
closed = 1;
nodes = (
(165,1,l,{
"Letterink-NibData" = {
AngleInDegrees = "28.81079";
};
}),
(333,256,l,{
"Letterink-NibData" = {
AngleInDegrees = "90";
};
}),
(227,146,l,{
"Letterink-NibData" = {
AngleInDegrees = "90";
};
}),
(496,146,l,{
"Letterink-NibData" = {
AngleInDegrees = "180";
};
}),
(440,264,l,{
"Letterink-NibData" = {
AngleInDegrees = "180";
};
}),
(409,0,l,{
"Letterink-NibData" = {
AngleInDegrees = "90";
};
}),
(873,0,l),
(891,148,l,{
"Letterink-NibData" = {
AngleInDegrees = "270";
};
}),
(592,148,l),
(609,281,l,{
"Letterink-NibData" = {
AngleInDegrees = "90";
};
}),
(798,281,l),
(816,429,l,{
"Letterink-NibData" = {
AngleInDegrees = "270";
};
}),
(627,429,l),
(640,536,l,{
"Letterink-NibData" = {
AngleInDegrees = "90";
};
}),
(919,536,l),
(937,684,l,{
"Letterink-NibData" = {
AngleInDegrees = "270";
};
}),
(423,684,l,{
"Letterink-NibData" = {
AngleInDegrees = "209.70894";
};
}),
(-34,0,l,{
"Letterink-NibData" = {
AngleInDegrees = "89.3704";
};
})
);
},
{
closed = 1;
nodes = (
(516,296,l,{
"Letterink-NibData" = {
AngleInDegrees = "270";
};
}),
(328,296,l,{
"Letterink-NibData" = {
AngleInDegrees = "28.68615";
};
}),
(364,279,l,{
"Letterink-NibData" = {
AngleInDegrees = "28.68615";
};
}),
(471,488,l,{
"Letterink-NibData" = {
AngleInDegrees = "23.62938";
};
}),
(464,449,l,{
"Letterink-NibData" = {
AngleInDegrees = "180";
};
}),
(443,275,l,{
"Letterink-NibData" = {
AngleInDegrees = "270";
};
})
);
}
);
width = 927;
},
{
anchors = (
{
name = bottom;
pos = (453,0);
},
{
name = top;
pos = (561,676);
}
);
layerId = "E3F1072B-0B24-4A31-98F2-2D5ADE0E752A";
shapes = (
{
closed = 1;
nodes = (
(73,0,l,{
"Letterink-NibData" = {
AngleInDegrees = 28.2127;
};
}),
(240,252,l,{
"Letterink-NibData" = {
AngleInDegrees = 90;
};
}),
(186,216,l,{
"Letterink-NibData" = {
AngleInDegrees = 90;
};
}),
(454,216,l,{
"Letterink-NibData" = {
AngleInDegrees = 180;
};
}),
(426,255,l,{
"Letterink-NibData" = {
AngleInDegrees = 180;
};
}),
(395,-1,l,{
"Letterink-NibData" = {
AngleInDegrees = 90;
};
}),
(822,-1,l),
(830,66,l,{
"Letterink-NibData" = {
AngleInDegrees = 270;
};
}),
(476,66,l),
(508,330,l,{
"Letterink-NibData" = {
AngleInDegrees = 90;
};
}),
(743,330,l),
(751,397,l,{
"Letterink-NibData" = {
AngleInDegrees = 270;
};
}),
(517,397,l),
(544,619,l,{
"Letterink-NibData" = {
AngleInDegrees = 90;
};
}),
(878,619,l),
(886,686,l,{
"Letterink-NibData" = {
AngleInDegrees = 270;
};
}),
(456,686,l,{
"Letterink-NibData" = {
AngleInDegrees = 208.86222;
};
}),
(-16,-1,l,{
"Letterink-NibData" = {
AngleInDegrees = 90;
};
})
);
},
{
closed = 1;
nodes = (
(463,283,l,{
"Letterink-NibData" = {
AngleInDegrees = 270;
};
}),
(229,283,l,{
"Letterink-NibData" = {
AngleInDegrees = 28.9193;
};
}),
(247,262,l,{
"Letterink-NibData" = {
AngleInDegrees = 28.9193;
};
}),
(451,570,l,{
"Letterink-NibData" = {
AngleInDegrees = 32.55;
};
}),
(470,606,l,{
"Letterink-NibData" = {
AngleInDegrees = 180;
};
}),
(427,259,l,{
"Letterink-NibData" = {
AngleInDegrees = 270;
};
})
);
}
);
width = 877;
}
);
metricLeft = A.ss01;
metricRight = E;
userData = {
position = 422;
width = 61;
};
},
{
glyphname = AE.swsh;
kernLeft = A;
kernRight = E;
layers = (
{
anchors = (
{
name = bottom;
pos = (558,0);
},
{
name = top;
pos = (651,694);
}
);
hints = (
{
name = _corner.caps_swash_diag;
origin = (0,12);
scale = (-1,1);
type = Corner;
},
{
name = _corner.caps_swash.big;
origin = (2,2);
type = Corner;
}
);
layerId = "49C16FD3-6177-408B-A733-AEB3898BB77C";
shapes = (
{
closed = 1;
nodes = (
(930,1,l),
(935,37,l,{
"Letterink-NibData" = {
AngleInDegrees = 270;
};
}),
(556,37,l),
(593,346,l,{
"Letterink-NibData" = {
AngleInDegrees = 90;
};
}),
(849,346,l),
(854,382,l,{
"Letterink-NibData" = {
AngleInDegrees = 270;
};
}),
(598,382,l),
(631,649,l,{
"Letterink-NibData" = {
AngleInDegrees = 90;
};
}),
(990,649,l),
(994,685,l,{
"Letterink-NibData" = {
AngleInDegrees = 270;
};
}),
(577,685,l,{
"Letterink-NibData" = {
AngleInDegrees = 208.82166;
};
}),
(148,61,l,{
"Letterink-NibData" = {
AngleInDegrees = 213.69007;
};
}),
(179,40,l,{
"Letterink-NibData" = {
AngleInDegrees = 29.29136;
};
}),
(325,249,l,{
"Letterink-NibData" = {
AngleInDegrees = 90;
};
}),
(295,237,l,{
"Letterink-NibData" = {
AngleInDegrees = 90;
};
}),
(558,237,l,{
"Letterink-NibData" = {
AngleInDegrees = 180;
};
}),
(544,253,l,{
"Letterink-NibData" = {
AngleInDegrees = 180;
};
}),
(513,1,l,{
"Letterink-NibData" = {
AngleInDegrees = 90;
};
})
);
},
{
closed = 1;
nodes = (
(563,273,l,{
"Letterink-NibData" = {
AngleInDegrees = 270;
};
}),
(318,273,l,{
"Letterink-NibData" = {
AngleInDegrees = 28.59795;
};
}),
(329,259,l,{
"Letterink-NibData" = {
AngleInDegrees = 28.59795;
};
}),
(560,600,l,{
"Letterink-NibData" = {
AngleInDegrees = 27.32389;
};
}),
(592,650,l,{
"Letterink-NibData" = {
AngleInDegrees = 179.84962;
};
}),
(545,257,l,{
"Letterink-NibData" = {
AngleInDegrees = 270;
};
})
);
},
{
closed = 1;
nodes = (
(572,648,l),
(576,684,l,{
"Letterink-NibData" = {
AngleInDegrees = "270";
};
}),
(373,684,l,{
"Letterink-NibData" = {
AngleInDegrees = "180";
};
}),
(374,648,l,{
"Letterink-NibData" = {
AngleInDegrees = "90";
};
})
);
}
);
width = 981;
},
{
anchors = (
{
name = bottom;
pos = (567,0);
},
{
name = top;
pos = (699,673);
}
);
hints = (
{
name = _corner.caps_swash_diag;
options = 1;
origin = (0,12);
scale = (-1,1);
type = Corner;
},
{
name = _corner.caps_swash.big;
origin = (2,2);
type = Corner;
}
);
layerId = m004;
shapes = (
{
closed = 1;
nodes = (
(991,0,l),
(1009,148,l,{
"Letterink-NibData" = {
AngleInDegrees = "270";
};
}),
(710,148,l),
(728,291,l,{
"Letterink-NibData" = {
AngleInDegrees = "90";
};
}),
(917,291,l),
(935,439,l,{
"Letterink-NibData" = {
AngleInDegrees = "270";
};
}),
(746,439,l),
(758,536,l,{
"Letterink-NibData" = {
AngleInDegrees = "90";
};
}),
(1037,536,l),
(1055,684,l,{
"Letterink-NibData" = {
AngleInDegrees = "270";
};
}),
(551,684,l,{
"Letterink-NibData" = {
AngleInDegrees = "209.70894";
};
}),
(203,151,l,{
"Letterink-NibData" = {
AngleInDegrees = "89.3704";
};
}),
(337,64,l,{
"Letterink-NibData" = {
AngleInDegrees = "28.81079";
};
}),
(452,256,l,{
"Letterink-NibData" = {
AngleInDegrees = "90";
};
}),
(346,146,l,{
"Letterink-NibData" = {
AngleInDegrees = "90";
};
}),
(615,146,l,{
"Letterink-NibData" = {
AngleInDegrees = "180";
};
}),
(560,264,l,{
"Letterink-NibData" = {
AngleInDegrees = "180";
};
}),
(527,0,l,{
"Letterink-NibData" = {
AngleInDegrees = "90";
};
})
);
},
{
closed = 1;
nodes = (
(634,296,l,{
"Letterink-NibData" = {
AngleInDegrees = "270";
};
}),
(446,296,l,{
"Letterink-NibData" = {
AngleInDegrees = "28.68615";
};
}),
(481,279,l,{
"Letterink-NibData" = {
AngleInDegrees = "28.68615";
};
}),
(585,476,l,{
"Letterink-NibData" = {
AngleInDegrees = "23.62938";
};
}),
(582,449,l,{
"Letterink-NibData" = {
AngleInDegrees = "180";
};
}),
(561,275,l,{
"Letterink-NibData" = {
AngleInDegrees = "270";
};
})
);
},
{
closed = 1;
nodes = (
(584,536,l),
(602,684,l,{
"Letterink-NibData" = {
AngleInDegrees = "270";
};
}),
(366,684,l,{
"Letterink-NibData" = {
AngleInDegrees = "180";
};
}),
(364,535,l)
);
}
);
width = 1044;
},
{
anchors = (
{
name = bottom;
pos = (587,0);
},
{
name = top;
pos = (617,678);
}
);
hints = (
{
name = _corner.caps_swash_diag;
origin = (0,12);
scale = (-1,1);
type = Corner;
},
{
name = _corner.caps_swash.big;
origin = (2,2);
type = Corner;
}
);
layerId = "E3F1072B-0B24-4A31-98F2-2D5ADE0E752A";
shapes = (
{
closed = 1;
nodes = (
(924,-1,l),
(933,66,l,{
"Letterink-NibData" = {
AngleInDegrees = 270;
};
}),
(572,66,l),
(604,330,l,{
"Letterink-NibData" = {
AngleInDegrees = 90;
};
}),
(845,330,l),
(854,397,l,{
"Letterink-NibData" = {
AngleInDegrees = 270;
};
}),
(613,397,l),
(640,619,l,{
"Letterink-NibData" = {
AngleInDegrees = 90;
};
}),
(980,619,l),
(989,686,l,{
"Letterink-NibData" = {
AngleInDegrees = 270;
};
}),
(545,686,l,{
"Letterink-NibData" = {
AngleInDegrees = 208.82166;
};
}),
(150,86,l,{
"Letterink-NibData" = {
AngleInDegrees = 213.69007;
};
}),
(212,48,l,{
"Letterink-NibData" = {
AngleInDegrees = 29.29136;
};
}),
(341,251,l,{
"Letterink-NibData" = {
AngleInDegrees = 90;
};
}),
(290,216,l,{
"Letterink-NibData" = {
AngleInDegrees = 90;
};
}),
(550,216,l,{
"Letterink-NibData" = {
AngleInDegrees = 180;
};
}),
(523,255,l,{
"Letterink-NibData" = {
AngleInDegrees = 180;
};
}),
(492,-1,l,{
"Letterink-NibData" = {
AngleInDegrees = 90;
};
})
);
},
{
closed = 1;
nodes = (
(558,283,l,{
"Letterink-NibData" = {
AngleInDegrees = 270;
};
}),
(336,283,l,{
"Letterink-NibData" = {
AngleInDegrees = 28.59795;
};
}),
(352,263,l,{
"Letterink-NibData" = {
AngleInDegrees = 28.59795;
};
}),
(541,551,l,{
"Letterink-NibData" = {
AngleInDegrees = 27.32389;
};
}),
(565,601,l,{
"Letterink-NibData" = {
AngleInDegrees = 179.84962;
};
}),
(524,259,l,{
"Letterink-NibData" = {
AngleInDegrees = 270;
};
})
);
},
{
closed = 1;
nodes = (
(537,618,l),
(545,685,l,{
"Letterink-NibData" = {
AngleInDegrees = "270";
};
}),
(358,685,l,{
"Letterink-NibData" = {
AngleInDegrees = "180";
};
}),
(359,618,l,{
"Letterink-NibData" = {
AngleInDegrees = "90";
};
})
);
}
);
width = 980;
}
);
metricLeft = A.swsh;
userData = {
position = 422;
width = 61;
};
},
{
glyphname = B;
kernLeft = E;
kernRight = B;
layers = (
{
anchors = (
{
name = bottom;
pos = (286,0);
},
{
name = center;
pos = (322,363);
},
{
name = top;
pos = (359,684);
}
);
hints = (
{
name = _corner.caps_left;
origin = (0,18);
type = Corner;
}
);
layerId = "49C16FD3-6177-408B-A733-AEB3898BB77C";
shapes = (
{
closed = 1;
nodes = (
(443,-9,o),
(556,42,o),
(573,179,cs),
(582,253,o),
(551,315,o),
(485,348,cs,{
"Letterink-NibData" = {
AngleInDegrees = 305.53768;
};
}),
(475,353,o),
(454,361,o),
(429,366,c,{
"Letterink-NibData" = {
AngleInDegrees = 75.67728;
};
}),
(460,373,o),
(476,378,o),
(509,397,cs,{
"Letterink-NibData" = {
AngleInDegrees = 53.1301;
};
}),
(542,416,o),
(574,452,o),
(581,513,cs),
(595,632,o),
(517,684,o),
(413,684,cs,{
"Letterink-NibData" = {
AngleInDegrees = 270;
};
}),
(192,684,l,{
"Letterink-NibData" = {
AngleInDegrees = 180;
};
}),
(192,648,l,{
"Letterink-NibData" = {
AngleInDegrees = 90;
};
}),
(426,648,l,{
"Letterink-NibData" = {
AngleInDegrees = 93.81407;
};
}),
(516,641,o),
(552,599,o),
(542,521,cs,{
"Letterink-NibData" = {
AngleInDegrees = 180;
};
}),
(530,426,o),
(453,382,o),
(366,382,cs,{
"Letterink-NibData" = {
AngleInDegrees = 270;
};
}),
(181,382,l,{
"Letterink-NibData" = {
AngleInDegrees = 180;
};
}),
(176,346,l,{
"Letterink-NibData" = {
AngleInDegrees = 90;
};
}),
(370,346,ls,{
"Letterink-NibData" = {
AngleInDegrees = 90;
};
}),
(489,346,o),
(544,272,o),
(533,183,cs,{
"Letterink-NibData" = {
AngleInDegrees = 180;
};
}),
(520,79,o),
(430,26,o),
(314,26,cs,{
"Letterink-NibData" = {
AngleInDegrees = 270;
};
}),
(307,26,o),
(197,26,o),
(149,32,c),
(226,654,l,{
"Letterink-NibData" = {
AngleInDegrees = 270;
};
}),
(187,654,l,{
"Letterink-NibData" = {
AngleInDegrees = 90;
};
}),
(108,3,l,{
"Letterink-NibData" = {
AngleInDegrees = 98.65254;
};
}),
(151,-4,ls,{
"Letterink-NibData" = {
AngleInDegrees = 99.21103;
};
}),
(190,-10,o),
(294,-9,o),
(302,-9,cs,{
"Letterink-NibData" = {
AngleInDegrees = 90;
};
})
);
}
);
width = 622;
},
{
anchors = (
{
name = bottom;
pos = (376,-2);
},
{
name = center;
pos = (420,356);
},
{
name = top;
pos = (455,684);
}
);
hints = (
{
name = _corner.caps_left;
origin = (0,18);
type = Corner;
}
);
layerId = m004;
shapes = (
{
closed = 1;
nodes = (
(584,18,o),
(655,89,o),
(667,187,cs),
(675,250,o),
(646,316,o),
(602,340,cs),
(575,355,o),
(561,360,o),
(537,364,c,{
"Letterink-NibData" = {
AngleInDegrees = 77.90524;
};
}),
(572,368,o),
(580,370,o),
(602,381,cs,{
"Letterink-NibData" = {
AngleInDegrees = "63.90458";
};
}),
(658,409,o),
(669,455,o),
(675,500,cs),
(688,601,o),
(619,686,o),
(486,686,cs,{
"Letterink-NibData" = {
AngleInDegrees = "270";
};
}),
(219,686,l,{
"Letterink-NibData" = {
AngleInDegrees = "180";
};
}),
(218,537,l),
(459,538,ls,{
"Letterink-NibData" = {
AngleInDegrees = "90";
};
}),
(499,538,o),
(514,517,o),
(510,487,cs,{
"Letterink-NibData" = {
AngleInDegrees = "180";
};
}),
(506,455,o),
(484,424,o),
(450,424,cs,{
"Letterink-NibData" = {
AngleInDegrees = "269.3338";
};
}),
(338,424,l,{
"Letterink-NibData" = {
AngleInDegrees = "180.77422";
};
}),
(321,289,l,{
"Letterink-NibData" = {
AngleInDegrees = "90";
};
}),
(441,289,ls,{
"Letterink-NibData" = {
AngleInDegrees = "90";
};
}),
(489,289,o),
(521,262,o),
(516,219,cs,{
"Letterink-NibData" = {
AngleInDegrees = "180";
};
}),
(509,162,o),
(465,132,o),
(388,132,cs,{
"Letterink-NibData" = {
AngleInDegrees = "270";
};
}),
(368,132,o),
(354,132,o),
(330,136,c),
(384,551,l,{
"Letterink-NibData" = {
AngleInDegrees = "90";
};
}),
(219,552,l),
(152,6,l,{
"Letterink-NibData" = {
AngleInDegrees = 96.4416;
};
}),
(206,-1,ls,{
"Letterink-NibData" = {
AngleInDegrees = "96.65443";
};
}),
(297,-13,o),
(407,-20,o),
(477,-5,cs,{
"Letterink-NibData" = {
AngleInDegrees = "90";
};
})
);
}
);
width = 695;
},
{
anchors = (
{
name = bottom;
pos = (317,0);
},
{
name = center;
pos = (368,363);
},
{
name = top;
pos = (399,684);
}
);
hints = (
{
name = _corner.caps_left;
origin = (0,18);
type = Corner;
}
);
layerId = "E3F1072B-0B24-4A31-98F2-2D5ADE0E752A";
shapes = (
{
closed = 1;
nodes = (
(486,-10,o),
(589,57,o),
(605,184,cs),
(615,261,o),
(585,316,o),
(533,346,cs,{
"Letterink-NibData" = {
AngleInDegrees = 305.53768;
};
}),
(515,357,o),
(490,368,o),
(478,368,c,{
"Letterink-NibData" = {
AngleInDegrees = 75.67728;
};
}),
(495,371,o),
(511,376,o),
(534,386,cs,{
"Letterink-NibData" = {
AngleInDegrees = 53.1301;
};
}),
(577,403,o),
(605,451,o),
(612,508,cs),
(625,618,o),
(551,684,o),
(429,684,cs,{
"Letterink-NibData" = {
AngleInDegrees = 270;
};
}),
(199,684,l,{
"Letterink-NibData" = {
AngleInDegrees = 180;
};
}),
(199,616,l,{
"Letterink-NibData" = {
AngleInDegrees = 90;
};
}),
(428,616,l,{
"Letterink-NibData" = {
AngleInDegrees = 93.81407;
};
}),
(512,610,o),
(548,577,o),
(540,514,cs,{
"Letterink-NibData" = {
AngleInDegrees = 180;
};
}),
(531,440,o),
(469,397,o),
(390,397,cs,{
"Letterink-NibData" = {
AngleInDegrees = 270;
};
}),
(207,397,l,{
"Letterink-NibData" = {
AngleInDegrees = 180;
};
}),
(199,330,l,{
"Letterink-NibData" = {
AngleInDegrees = 90;
};
}),
(393,329,ls,{
"Letterink-NibData" = {
AngleInDegrees = 90;
};
}),
(491,329,o),
(542,274,o),
(532,190,cs,{
"Letterink-NibData" = {
AngleInDegrees = 180;
};
}),
(521,99,o),
(449,58,o),
(325,55,cs,{
"Letterink-NibData" = {
AngleInDegrees = 270;
};
}),
(298,55,o),
(239,56,o),
(199,62,c),
(272,645,l,{
"Letterink-NibData" = {
AngleInDegrees = 270;
};
}),
(199,645,l,{
"Letterink-NibData" = {
AngleInDegrees = 90;
};
}),
(120,2,l,{
"Letterink-NibData" = {
AngleInDegrees = 98.65254;
};
}),
(179,-5,ls,{
"Letterink-NibData" = {
AngleInDegrees = 99.21103;
};
}),
(205,-8,o),
(279,-10,o),
(311,-10,cs,{
"Letterink-NibData" = {
AngleInDegrees = 90;
};
})
);
}
);
width = 651;
}
);
metricLeft = E;
unicode = 66;
userData = {
position = 514;
width = 59;
};
},
{
glyphname = B.ss01;
kernLeft = L;
kernRight = B;
layers = (
{
anchors = (
{
name = bottom;
pos = (241,0);
},
{
name = center;
pos = (280,363);
},
{
name = top;
pos = (325,684);
}
);
layerId = "49C16FD3-6177-408B-A733-AEB3898BB77C";
shapes = (
{
closed = 1;
nodes = (
(410,-9,o),
(505,57,o),
(520,175,cs),
(530,255,o),
(497,316,o),
(442,345,cs,{
"Letterink-NibData" = {
AngleInDegrees = 305.53768;
};
}),
(421,356,o),
(396,361,o),
(373,365,c,{
"Letterink-NibData" = {
AngleInDegrees = 75.67728;
};
}),
(402,369,o),
(432,379,o),
(465,402,cs,{
"Letterink-NibData" = {
AngleInDegrees = 53.1301;
};
}),
(502,428,o),
(522,466,o),
(528,514,cs),
(541,618,o),
(472,684,o),
(351,684,cs,{
"Letterink-NibData" = {
AngleInDegrees = 270;
};
}),
(136,684,l,{
"Letterink-NibData" = {
AngleInDegrees = 180;
};
}),
(132,648,l,{
"Letterink-NibData" = {
AngleInDegrees = 90;
};
}),
(364,648,l,{
"Letterink-NibData" = {
AngleInDegrees = 93.81407;
};
}),
(457,641,o),
(499,597,o),
(490,522,cs,{
"Letterink-NibData" = {
AngleInDegrees = 180;
};
}),
(480,436,o),
(411,382,o),
(313,382,cs,{
"Letterink-NibData" = {
AngleInDegrees = 270;
};
}),
(132,382,l,{
"Letterink-NibData" = {
AngleInDegrees = 180;
};
}),
(128,347,l,{
"Letterink-NibData" = {
AngleInDegrees = 90;
};
}),
(317,347,ls,{
"Letterink-NibData" = {
AngleInDegrees = 90;
};
}),
(427,347,o),
(494,277,o),
(482,181,cs,{
"Letterink-NibData" = {
AngleInDegrees = 180;
};
}),
(467,64,o),
(386,26,o),
(232,26,cs,{
"Letterink-NibData" = {
AngleInDegrees = 270;
};
}),
(198,26,o),
(122,29,o),
(96,32,c),
(173,654,l,{
"Letterink-NibData" = {
AngleInDegrees = 270;
};
}),
(132,654,l,{
"Letterink-NibData" = {
AngleInDegrees = 90;
};
}),
(53,3,l,{
"Letterink-NibData" = {
AngleInDegrees = 98.65254;
};
}),
(98,-4,ls,{
"Letterink-NibData" = {
AngleInDegrees = 99.21103;
};
}),
(137,-10,o),
(259,-9,o),
(276,-9,cs,{
"Letterink-NibData" = {
AngleInDegrees = 90;
};
})
);
}
);
width = 569;
},
{
anchors = (
{
name = bottom;
pos = (256,0);
},
{
name = center;
pos = (300,356);
},
{
name = top;
pos = (340,684);
}
);
layerId = m004;
shapes = (
{
closed = 1;
nodes = (
(464,18,o),
(535,89,o),
(547,187,cs),
(555,250,o),
(526,315,o),
(482,339,cs),
(455,354,o),
(441,360,o),
(417,364,c,{
"Letterink-NibData" = {
AngleInDegrees = 77.90524;
};
}),
(452,368,o),
(469,375,o),
(491,386,cs,{
"Letterink-NibData" = {
AngleInDegrees = "63.90458";
};
}),
(547,414,o),
(559,467,o),
(565,512,cs),
(578,613,o),
(499,686,o),
(366,686,cs,{
"Letterink-NibData" = {
AngleInDegrees = "270";
};
}),
(115,686,l,{
"Letterink-NibData" = {
AngleInDegrees = "180";
};
}),
(97,535,l),
(354,536,ls,{
"Letterink-NibData" = {
AngleInDegrees = "90";
};
}),
(385,536,o),
(404,517,o),
(400,486,cs,{
"Letterink-NibData" = {
AngleInDegrees = "180";
};
}),
(396,455,o),
(375,424,o),
(340,424,cs,{
"Letterink-NibData" = {
AngleInDegrees = "269.3338";
};
}),
(218,424,l,{
"Letterink-NibData" = {
AngleInDegrees = "180.77422";
};
}),
(201,289,l,{
"Letterink-NibData" = {
AngleInDegrees = "90";
};
}),
(321,289,ls,{
"Letterink-NibData" = {
AngleInDegrees = "90";
};
}),
(369,289,o),
(401,262,o),
(396,219,cs,{
"Letterink-NibData" = {
AngleInDegrees = "180";
};
}),
(389,162,o),
(345,132,o),
(268,132,cs,{
"Letterink-NibData" = {
AngleInDegrees = "270";
};
}),
(248,132,o),
(234,132,o),
(210,136,c),
(264,551,l,{
"Letterink-NibData" = {
AngleInDegrees = "90";
};
}),
(99,552,l),
(32,6,l,{
"Letterink-NibData" = {
AngleInDegrees = 96.4416;
};
}),
(86,-1,ls,{
"Letterink-NibData" = {
AngleInDegrees = "96.65443";
};
}),
(177,-13,o),
(287,-20,o),
(357,-5,cs,{
"Letterink-NibData" = {
AngleInDegrees = "90";
};
})
);
}
);
width = 575;
},
{
anchors = (
{
name = bottom;
pos = (247,0);
},
{
name = center;
pos = (299,368);
},
{
name = top;
pos = (331,684);
}
);
layerId = "E3F1072B-0B24-4A31-98F2-2D5ADE0E752A";
shapes = (
{
closed = 1;
nodes = (
(418,-10,o),
(516,59,o),
(532,183,cs),
(542,260,o),
(513,317,o),
(464,346,cs,{
"Letterink-NibData" = {
AngleInDegrees = 305.53768;
};
}),
(440,360,o),
(412,366,o),
(398,368,c,{
"Letterink-NibData" = {
AngleInDegrees = 75.67728;
};
}),
(416,371,o),
(440,375,o),
(464,387,cs,{
"Letterink-NibData" = {
AngleInDegrees = 53.1301;
};
}),
(510,408,o),
(534,454,o),
(541,509,cs),
(554,616,o),
(481,684,o),
(355,684,cs,{
"Letterink-NibData" = {
AngleInDegrees = 270;
};
}),
(133,684,l,{
"Letterink-NibData" = {
AngleInDegrees = 180;
};
}),
(125,616,l,{
"Letterink-NibData" = {
AngleInDegrees = 90;
};
}),
(354,616,l,{
"Letterink-NibData" = {
AngleInDegrees = 93.81407;
};
}),
(439,610,o),
(476,575,o),
(469,515,cs,{
"Letterink-NibData" = {
AngleInDegrees = 180;
};
}),
(460,442,o),
(400,397,o),
(319,397,cs,{
"Letterink-NibData" = {
AngleInDegrees = 270;
};
}),
(136,397,l,{
"Letterink-NibData" = {
AngleInDegrees = 180;
};
}),
(128,330,l,{
"Letterink-NibData" = {
AngleInDegrees = 90;
};
}),
(321,329,ls,{
"Letterink-NibData" = {
AngleInDegrees = 90;
};
}),
(418,329,o),
(472,276,o),
(461,189,cs,{
"Letterink-NibData" = {
AngleInDegrees = 180;
};
}),
(449,94,o),
(379,58,o),
(247,55,cs,{
"Letterink-NibData" = {
AngleInDegrees = 270;
};
}),
(214,55,o),
(163,57,o),
(129,62,c),
(203,645,l,{
"Letterink-NibData" = {
AngleInDegrees = 270;
};
}),
(128,645,l,{
"Letterink-NibData" = {
AngleInDegrees = 90;
};
}),
(49,2,l,{
"Letterink-NibData" = {
AngleInDegrees = 98.65254;
};
}),
(107,-5,ls,{
"Letterink-NibData" = {
AngleInDegrees = 99.21103;
};
}),
(133,-8,o),
(211,-10,o),
(245,-10,cs,{
"Letterink-NibData" = {
AngleInDegrees = 90;
};
})
);
}
);
width = 578;
}
);
metricLeft = N.ss01;
metricRight = B;
userData = {
position = 494;
width = 59;
};
},
{
glyphname = B.swsh;
kernLeft = Swash;
kernRight = B;
layers = (
{
anchors = (
{
name = bottom;
pos = (296,0);
},
{
name = center;
pos = (359,367);
},
{
name = top;
pos = (380,684);
}
);
hints = (
{
name = _corner.caps_swash;
options = 1;
origin = (0,18);
type = Corner;
}
);
layerId = "49C16FD3-6177-408B-A733-AEB3898BB77C";
shapes = (
{
closed = 1;
nodes = (
(503,-9,o),
(598,57,o),
(613,175,cs),
(623,255,o),
(590,319,o),
(534,347,cs,{
"Letterink-NibData" = {
AngleInDegrees = "305.53768";
};
}),
(514,357,o),
(490,365,o),
(466,369,c,{
"Letterink-NibData" = {
AngleInDegrees = "75.67728";
};
}),
(496,376,o),
(526,383,o),
(559,407,cs,{
"Letterink-NibData" = {
AngleInDegrees = "53.1301";
};
}),
(596,434,o),
(615,466,o),
(621,514,cs),
(634,618,o),
(565,684,o),
(444,684,cs,{
"Letterink-NibData" = {
AngleInDegrees = "270";
};
}),
(216,684,l,{
"Letterink-NibData" = {
AngleInDegrees = "180";
};
}),
(215,648,l,{
"Letterink-NibData" = {
AngleInDegrees = "90";
};
}),
(457,648,l,{
"Letterink-NibData" = {
AngleInDegrees = "93.81407";
};
}),
(550,641,o),
(592,597,o),
(583,522,cs,{
"Letterink-NibData" = {
AngleInDegrees = "180";
};
}),
(573,436,o),
(504,382,o),
(406,382,cs,{
"Letterink-NibData" = {
AngleInDegrees = "270";
};
}),
(318,382,l,{
"Letterink-NibData" = {
AngleInDegrees = "180";
};
}),
(314,347,l,{
"Letterink-NibData" = {
AngleInDegrees = "90";
};
}),
(410,347,ls,{
"Letterink-NibData" = {
AngleInDegrees = "90";
};
}),
(512,347,o),
(587,281,o),
(576,185,cs,{
"Letterink-NibData" = {
AngleInDegrees = "180";
};
}),
(564,77,o),
(479,26,o),
(343,26,cs,{
"Letterink-NibData" = {
AngleInDegrees = "270";
};
}),
(292,26,o),
(215,29,o),
(189,32,c),
(259,597,l,{
"Letterink-NibData" = {
AngleInDegrees = "270";
};
}),
(218,597,l,{
"Letterink-NibData" = {
AngleInDegrees = "179.91332";
};
}),
(146,3,l,{
"Letterink-NibData" = {
AngleInDegrees = "98.65254";
};
}),
(191,-4,ls,{
"Letterink-NibData" = {
AngleInDegrees = 99.21103;
};
}),
(230,-10,o),
(352,-9,o),
(369,-9,cs,{
"Letterink-NibData" = {
AngleInDegrees = "90";
};
})
);
}
);
width = 662;
},
{
anchors = (
{
name = bottom;
pos = (405,0);
},
{
name = center;
pos = (449,355);
},
{
name = top;
pos = (489,684);
}
);
hints = (
{
name = _corner.caps_swash;
options = 1;
origin = (0,18);
type = Corner;
}
);
layerId = m004;
shapes = (
{
closed = 1;
nodes = (
(637,18,o),
(708,89,o),
(720,187,cs),
(728,250,o),
(703,315,o),
(659,339,cs),
(632,354,o),
(614,360,o),
(590,364,c,{
"Letterink-NibData" = {
AngleInDegrees = 77.90524;
};
}),
(625,368,o),
(642,375,o),
(664,386,cs,{
"Letterink-NibData" = {
AngleInDegrees = "63.90458";
};
}),
(720,414,o),
(732,467,o),
(738,512,cs),
(751,613,o),
(672,686,o),
(539,686,cs,{
"Letterink-NibData" = {
AngleInDegrees = "270";
};
}),
(264,686,l,{
"Letterink-NibData" = {
AngleInDegrees = "180";
};
}),
(264,538,l),
(527,538,ls,{
"Letterink-NibData" = {
AngleInDegrees = "90";
};
}),
(562,538,o),
(577,517,o),
(574,493,cs,{
"Letterink-NibData" = {
AngleInDegrees = "180";
};
}),
(569,455,o),
(552,424,o),
(513,424,cs,{
"Letterink-NibData" = {
AngleInDegrees = "269.3338";
};
}),
(461,424,l,{
"Letterink-NibData" = {
AngleInDegrees = "180.77422";
};
}),
(444,289,l,{
"Letterink-NibData" = {
AngleInDegrees = "90";
};
}),
(494,289,ls,{
"Letterink-NibData" = {
AngleInDegrees = "90";
};
}),
(542,289,o),
(574,262,o),
(569,219,cs,{
"Letterink-NibData" = {
AngleInDegrees = "180";
};
}),
(562,162,o),
(518,132,o),
(441,132,cs,{
"Letterink-NibData" = {
AngleInDegrees = "270";
};
}),
(421,132,o),
(407,132,o),
(383,136,c),
(430,498,l,{
"Letterink-NibData" = {
AngleInDegrees = "90";
};
}),
(265,499,l),
(205,6,l,{
"Letterink-NibData" = {
AngleInDegrees = 96.4416;
};
}),
(259,-1,ls,{
"Letterink-NibData" = {
AngleInDegrees = "96.65443";
};
}),
(350,-13,o),
(460,-20,o),
(530,-5,cs,{
"Letterink-NibData" = {
AngleInDegrees = "90";
};
})
);
}
);
width = 752;
},
{
anchors = (
{
name = bottom;
pos = (351,0);
},
{
name = center;
pos = (408,369);
},
{
name = top;
pos = (435,684);
}
);
hints = (
{
name = _corner.caps_swash;
options = 1;
origin = (0,18);
type = Corner;
}
);
layerId = "E3F1072B-0B24-4A31-98F2-2D5ADE0E752A";
shapes = (
{
closed = 1;
nodes = (
(530,-10,o),
(628,59,o),
(644,183,cs),
(654,260,o),
(625,318,o),
(579,344,cs,{
"Letterink-NibData" = {
AngleInDegrees = "305.53768";
};
}),
(553,359,o),
(524,368,o),
(510,369,c,{
"Letterink-NibData" = {
AngleInDegrees = "75.67728";
};
}),
(530,374,o),
(553,376,o),
(578,389,cs,{
"Letterink-NibData" = {
AngleInDegrees = "53.1301";
};
}),
(623,411,o),
(646,454,o),
(653,509,cs),
(666,616,o),
(594,684,o),
(468,684,cs,{
"Letterink-NibData" = {
AngleInDegrees = "270";
};
}),
(227,684,l,{
"Letterink-NibData" = {
AngleInDegrees = "180";
};
}),
(228,617,l,{
"Letterink-NibData" = {
AngleInDegrees = "90";
};
}),
(467,617,l,{
"Letterink-NibData" = {
AngleInDegrees = "93.81407";
};
}),
(553,615,o),
(589,575,o),
(582,514,cs,{
"Letterink-NibData" = {
AngleInDegrees = "180";
};
}),
(574,444,o),
(514,397,o),
(431,397,cs,{
"Letterink-NibData" = {
AngleInDegrees = "270";
};
}),
(339,397,l,{
"Letterink-NibData" = {
AngleInDegrees = "180";
};
}),
(331,330,l,{
"Letterink-NibData" = {
AngleInDegrees = "90";
};
}),
(434,329,ls,{
"Letterink-NibData" = {
AngleInDegrees = "90";
};
}),
(529,328,o),
(584,276,o),
(574,194,cs,{
"Letterink-NibData" = {
AngleInDegrees = "180";
};
}),
(563,106,o),
(493,55,o),
(360,55,cs,{
"Letterink-NibData" = {
AngleInDegrees = "270";
};
}),
(326,55,o),
(274,57,o),
(240,62,c),
(305,568,l,{
"Letterink-NibData" = {
AngleInDegrees = "270";
};
}),
(232,568,l,{
"Letterink-NibData" = {
AngleInDegrees = "179.91332";
};
}),
(160,2,l,{
"Letterink-NibData" = {
AngleInDegrees = "98.65254";
};
}),
(220,-5,ls,{
"Letterink-NibData" = {
AngleInDegrees = 99.21103;
};
}),
(246,-8,o),
(324,-10,o),
(358,-10,cs,{
"Letterink-NibData" = {
AngleInDegrees = "90";
};
})
);
}
);
width = 691;
}
);
metricLeft = E.swsh;
userData = {
position = 514;
width = 59;
};
},
{
glyphname = C;
kernLeft = O;
kernRight = C;
layers = (
{
anchors = (
{
name = bottom;
pos = (354,-4);
},
{
name = top;
pos = (443,688);
}
);
layerId = "49C16FD3-6177-408B-A733-AEB3898BB77C";
shapes = (
{
closed = 1;
nodes = (
(474,-10,o),
(586,47,o),
(634,122,c),
(606,140,l),
(563,76,o),
(463,25,o),
(357,25,cs),
(184,25,o),
(70,154,o),
(91,327,cs),
(116,531,o),
(273,662,o),
(440,662,cs),
(534,662,o),
(637,622,o),
(628,541,cs),
(624,516,o),
(606,483,o),
(574,483,cs),
(565,483,o),
(551,486,o),
(542,494,c),
(520,466,l),
(535,453,o),
(553,447,o),
(569,447,cs),
(615,447,o),
(657,485,o),
(664,542,cs),
(672,613,o),
(603,697,o),
(445,697,cs),
(244,697,o),
(79,554,o),
(51,327,cs),
(28,134,o),
(158,-10,o),
(354,-10,cs)
);
}
);
width = 677;
},
{
anchors = (
{
name = bottom;
pos = (363,-10);
},
{
name = top;
pos = (433,699);
}
);
layerId = m004;
shapes = (
{
closed = 1;
nodes = (
(485,-27,o),
(596,24,o),
(663,118,c),
(541,199,l),
(510,152,o),
(438,118,o),
(364,118,cs),
(249,118,o),
(183,212,o),
(198,329,cs),
(216,467,o),
(312,565,o),
(431,565,cs),
(508,565,o),
(557,536,o),
(551,500,cs),
(549,488,o),
(542,480,o),
(532,480,cs),
(531,480,o),
(528,480,o),
(526,482,c),
(435,383,l),
(451,358,o),
(489,338,o),
(537,338,cs),
(620,338,o),
(688,396,o),
(698,479,cs),
(714,608,o),
(595,709,o),
(428,709,cs),
(225,709,o),
(58,557,o),
(31,345,cs),
(4,134,o),
(145,-27,o),
(361,-27,cs)
);
}
);
width = 694;
},
{
anchors = (
{
name = bottom;
pos = (338,-5);
},
{
name = top;
pos = (445,689);
}
);
layerId = "E3F1072B-0B24-4A31-98F2-2D5ADE0E752A";
shapes = (
{
closed = 1;
nodes = (
(470,-19,o),
(580,34,o),
(638,118,c),
(587,152,l),
(541,89,o),
(452,47,o),
(359,48,cs),
(201,49,o),
(103,171,o),
(124,338,cs),
(145,514,o),
(283,636,o),
(440,634,cs),
(533,633,o),
(606,593,o),
(598,530,cs),
(596,511,o),
(586,491,o),
(565,491,cs),
(556,491,o),
(549,495,o),
(542,501,c),
(500,453,l),
(515,435,o),
(536,428,o),
(558,428,cs),
(613,427,o),
(658,474,o),
(664,531,cs),
(675,622,o),
(581,698,o),
(445,699,cs),
(241,702,o),
(75,548,o),
(49,335,cs),
(24,135,o),
(151,-15,o),
(351,-17,cs)
);
}
);
width = 679;
}
);
metricLeft = O;
unicode = 67;
userData = {
position = 570;
width = 54;
};
},
{
glyphname = C.ss01;
kernLeft = O;
kernRight = C;
layers = (
{
anchors = (
{
name = bottom;
pos = (341,-2);
},
{
name = top;
pos = (432,694);
}
);
layerId = "49C16FD3-6177-408B-A733-AEB3898BB77C";
shapes = (
{
closed = 1;
nodes = (
(463,-12,o),
(569,35,o),
(633,123,c),
(603,143,l),
(549,66,o),
(460,23,o),
(353,23,cs),
(189,23,o),
(69,135,o),
(93,335,cs),
(116,528,o),
(273,659,o),
(430,659,cs),
(559,659,o),
(629,596,o),
(642,523,c),
(677,530,l),
(662,625,o),
(571,694,o),
(432,694,cs),
(246,694,o),
(80,549,o),
(53,338,cs),
(26,124,o),
(162,-12,o),
(350,-12,cs)
);
}
);
width = 675;
},
{
anchors = (
{
name = bottom;
pos = (354,-12);
},
{
name = top;
pos = (429,696);
}
);
layerId = m004;
shapes = (
{
closed = 1;
nodes = (
(473,-28,o),
(586,24,o),
(649,117,c),
(528,199,l),
(495,150,o),
(432,116,o),
(362,116,cs),
(254,116,o),
(183,205,o),
(198,325,cs),
(215,463,o),
(311,567,o),
(420,567,cs),
(491,567,o),
(542,535,o),
(549,484,c),
(692,518,l),
(678,629,o),
(571,711,o),
(425,711,cs),
(226,711,o),
(57,555,o),
(32,349,cs),
(6,134,o),
(144,-28,o),
(355,-28,cs)
);
}
);
width = 672;
},
{
anchors = (
{
name = bottom;
pos = (351,-5);
},
{
name = top;
pos = (436,690);
}
);
layerId = "E3F1072B-0B24-4A31-98F2-2D5ADE0E752A";
shapes = (
{
closed = 1;
nodes = (
(469,-19,o),
(578,30,o),
(640,119,c),
(587,156,l),
(539,88,o),
(457,46,o),
(359,46,cs),
(210,46,o),
(102,156,o),
(124,332,cs),
(145,508,o),
(280,636,o),
(439,636,cs),
(552,636,o),
(608,578,o),
(623,516,c),
(684,529,l),
(668,624,o),
(576,701,o),
(436,701,cs),
(247,701,o),
(76,554,o),
(50,340,cs),
(23,120,o),
(158,-19,o),
(356,-19,cs)
);
}
);
width = 680;
}
);
metricLeft = O;
userData = {
position = 570;
width = 54;
};
},
{
glyphname = C.swsh;
kernLeft = O;
kernRight = C;
layers = (
{
anchors = (
{
name = bottom;
pos = (358,-2);
},
{
name = top;
pos = (443,686);
}
);
layerId = "49C16FD3-6177-408B-A733-AEB3898BB77C";
shapes = (
{
closed = 1;
nodes = (
(477,-10,o),
(581,40,o),
(643,125,c),
(614,144,l),
(560,68,o),
(468,25,o),
(362,25,cs),
(186,25,o),
(69,153,o),
(93,339,cs),
(116,523,o),
(263,657,o),
(441,657,cs),
(552,657,o),
(636,601,o),
(627,532,cs),
(622,491,o),
(594,462,o),
(559,462,cs),
(524,462,o),
(502,482,o),
(497,517,c),
(463,510,l),
(470,459,o),
(504,428,o),
(558,428,cs),
(610,428,o),
(656,471,o),
(663,528,cs),
(674,618,o),
(575,692,o),
(442,692,cs),
(242,692,o),
(78,544,o),
(53,343,cs),
(27,139,o),
(157,-10,o),
(361,-10,cs)
);
}
);
width = 683;
},
{
anchors = (
{
name = bottom;
pos = (357,-12);
},
{
name = top;
pos = (438,696);
}
);
layerId = m004;
shapes = (
{
closed = 1;
nodes = (
(472,-30,o),
(588,26,o),
(649,117,c),
(533,194,l),
(496,143,o),
(440,116,o),
(372,116,cs),
(251,118,o),
(183,204,o),
(199,334,cs),
(216,473,o),
(311,570,o),
(427,568,cs),
(474,568,o),
(548,545,o),
(545,498,cs),
(545,483,o),
(537,472,o),
(526,472,cs),
(519,472,o),
(513,475,o),
(510,485,c),
(386,449,l),
(389,382,o),
(448,329,o),
(515,328,cs),
(607,327,o),
(682,397,o),
(694,497,cs),
(709,618,o),
(601,710,o),
(438,712,cs),
(231,714,o),
(58,557,o),
(31,344,cs),
(5,134,o),
(141,-26,o),
(350,-28,cs)
);
}
);
width = 684;
},
{
anchors = (
{
name = bottom;
pos = (360,-7);
},
{
name = top;
pos = (437,690);
}
);
layerId = "E3F1072B-0B24-4A31-98F2-2D5ADE0E752A";
shapes = (
{
closed = 1;
nodes = (
(477,-19,o),
(582,33,o),
(644,120,c),
(593,156,l),
(544,86,o),
(461,46,o),
(365,46,cs),
(203,46,o),
(103,162,o),
(124,333,cs),
(145,506,o),
(278,632,o),
(442,632,cs),
(535,632,o),
(606,584,o),
(599,526,cs),
(596,499,o),
(577,478,o),
(554,478,cs),
(531,478,o),
(514,494,o),
(510,516,c),
(445,501,l),
(454,447,o),
(496,412,o),
(552,412,cs),
(612,412,o),
(661,456,o),
(669,522,cs),
(681,623,o),
(585,697,o),
(444,697,cs),
(241,697,o),
(75,546,o),
(50,340,cs),
(24,131,o),
(154,-19,o),
(361,-19,cs)
);
}
);
width = 685;
}
);
metricLeft = O;
userData = {
position = 570;
width = 54;
};
},
{
glyphname = D;
kernLeft = E;
kernRight = O;
layers = (
{
anchors = (
{
name = bottom;
pos = (300,-9);
},
{
name = center;
pos = (191,358);
},
{
name = top;
pos = (402,685);
}
);
hints = (
{
name = _corner.caps_left;
origin = (0,6);
type = Corner;
}
);
layerId = "49C16FD3-6177-408B-A733-AEB3898BB77C";
shapes = (
{
closed = 1;
nodes = (
(540,-9,o),
(690,130,o),
(716,340,cs),
(741,540,o),
(633,683,o),
(428,684,cs,{
"Letterink-NibData" = {
AngleInDegrees = 270.22037;
};
}),
(192,685,l,{
"Letterink-NibData" = {
AngleInDegrees = 180;
};
}),
(192,648,l,{
"Letterink-NibData" = {
AngleInDegrees = 90;
};
}),
(421,648,ls,{
"Letterink-NibData" = {
AngleInDegrees = 93.25195;
};
}),
(607,648,o),
(699,526,o),
(676,341,cs,{
"Letterink-NibData" = {
AngleInDegrees = 180;
};
}),
(651,142,o),
(522,27,o),
(316,27,cs,{
"Letterink-NibData" = {
AngleInDegrees = 270;
};
}),
(252,27,o),
(167,30,o),
(150,32,c),
(227,649,l,{
"Letterink-NibData" = {
AngleInDegrees = 270;
};
}),
(188,649,l,{
"Letterink-NibData" = {
AngleInDegrees = 180;
};
}),
(108,0,l,{
"Letterink-NibData" = {
AngleInDegrees = 94.18492;
};
}),
(148,-3,ls,{
"Letterink-NibData" = {
AngleInDegrees = 94.20536;
};
}),
(214,-8,o),
(258,-9,o),
(338,-9,cs,{
"Letterink-NibData" = {
AngleInDegrees = 90;
};
})
);
}
);
width = 747;
},
{
anchors = (
{
name = bottom;
pos = (382,-10);
},
{
name = center;
pos = (285,353);
},
{
name = top;
pos = (501,684);
}
);
hints = (
{
name = _corner.caps_left;
origin = (0,6);
type = Corner;
}
);
layerId = m004;
shapes = (
{
closed = 1;
nodes = (
(595,-15,o),
(766,131,o),
(792,338,cs),
(816,527,o),
(695,683,o),
(491,684,cs,{
"Letterink-NibData" = {
AngleInDegrees = "270.21459";
};
}),
(215,685,l,{
"Letterink-NibData" = {
AngleInDegrees = "180";
};
}),
(218,537,l,{
"Letterink-NibData" = {
AngleInDegrees = "90";
};
}),
(479,536,ls,{
"Letterink-NibData" = {
AngleInDegrees = "92.97373";
};
}),
(588,536,o),
(638,465,o),
(624,351,cs,{
"Letterink-NibData" = {
AngleInDegrees = "180";
};
}),
(608,221,o),
(524,141,o),
(403,141,cs,{
"Letterink-NibData" = {
AngleInDegrees = "270";
};
}),
(375,141,o),
(360,141,o),
(337,145,c),
(402,655,l,{
"Letterink-NibData" = {
AngleInDegrees = "270";
};
}),
(234,655,l,{
"Letterink-NibData" = {
AngleInDegrees = "180";
};
}),
(155,5,l,{
"Letterink-NibData" = {
AngleInDegrees = "95.10217";
};
}),
(227,-3,ls,{
"Letterink-NibData" = {
AngleInDegrees = "95.12819";
};
}),
(266,-7,o),
(299,-8,o),
(382,-10,cs,{
"Letterink-NibData" = {
AngleInDegrees = "90";
};
})
);
}
);
width = 803;
},
{
anchors = (
{
name = bottom;
pos = (335,-10);
},
{
name = center;
pos = (233,365);
},
{
name = top;
pos = (435,684);
}
);
hints = (
{
name = _corner.caps_left;
origin = (0,6);
type = Corner;
}
);
layerId = "E3F1072B-0B24-4A31-98F2-2D5ADE0E752A";
shapes = (
{
closed = 1;
nodes = (
(548,-10,o),
(705,133,o),
(731,338,cs),
(756,534,o),
(644,684,o),
(443,684,cs,{
"Letterink-NibData" = {
AngleInDegrees = 270.22037;
};
}),
(200,685,l,{
"Letterink-NibData" = {
AngleInDegrees = 180;
};
}),
(199,617,l,{
"Letterink-NibData" = {
AngleInDegrees = 90;
};
}),
(436,617,ls,{
"Letterink-NibData" = {
AngleInDegrees = 93.25195;
};
}),
(601,617,o),
(678,509,o),
(657,343,cs,{
"Letterink-NibData" = {
AngleInDegrees = 180;
};
}),
(635,161,o),
(513,56,o),
(317,56,cs,{
"Letterink-NibData" = {
AngleInDegrees = 270;
};
}),
(280,56,o),
(230,59,o),
(195,61,c),
(269,651,l,{
"Letterink-NibData" = {
AngleInDegrees = 270;
};
}),
(196,651,l,{
"Letterink-NibData" = {
AngleInDegrees = 180;
};
}),
(116,1,l,{
"Letterink-NibData" = {
AngleInDegrees = 94.18492;
};
}),
(170,-4,ls,{
"Letterink-NibData" = {
AngleInDegrees = 94.20536;
};
}),
(236,-10,o),
(263,-10,o),
(346,-10,cs,{
"Letterink-NibData" = {
AngleInDegrees = 90;
};
})
);
}
);
width = 759;
}
);
metricLeft = E;
metricRight = O;
unicode = 68;
userData = {
position = 674;
width = 60;
};
},
{
glyphname = D.ss01;
kernLeft = L;
kernRight = O;
layers = (
{
anchors = (
{
name = bottom;
pos = (214,-11);
},
{
name = center;
pos = (133,358);
},
{
name = top;
pos = (365,686);
}
);
layerId = "49C16FD3-6177-408B-A733-AEB3898BB77C";
shapes = (
{
closed = 1;
nodes = (
(483,-9,o),
(629,111,o),
(659,340,cs),
(685,540,o),
(575,684,o),
(383,684,c,{
"Letterink-NibData" = {
AngleInDegrees = 270.22037;
};
}),
(135,685,l,{
"Letterink-NibData" = {
AngleInDegrees = 180;
};
}),
(131,649,l,{
"Letterink-NibData" = {
AngleInDegrees = 90;
};
}),
(372,649,l,{
"Letterink-NibData" = {
AngleInDegrees = 93.25195;
};
}),
(548,649,o),
(643,526,o),
(619,341,cs,{
"Letterink-NibData" = {
AngleInDegrees = 180;
};
}),
(592,134,o),
(465,26,o),
(259,26,cs,{
"Letterink-NibData" = {
AngleInDegrees = 270;
};
}),
(195,26,o),
(110,29,o),
(93,31,c),
(170,649,l,{
"Letterink-NibData" = {
AngleInDegrees = 270;
};
}),
(131,649,l,{
"Letterink-NibData" = {
AngleInDegrees = 180;
};
}),
(51,0,l,{
"Letterink-NibData" = {
AngleInDegrees = 94.18492;
};
}),
(91,-3,ls,{
"Letterink-NibData" = {
AngleInDegrees = 94.20536;
};
}),
(157,-8,o),
(201,-9,o),
(281,-9,cs,{
"Letterink-NibData" = {
AngleInDegrees = 90;
};
})
);
}
);
width = 690;
},
{
anchors = (
{
name = bottom;
pos = (253,-10);
},
{
name = center;
pos = (190,360);
},
{
name = top;
pos = (328,686);
}
);
layerId = m004;
shapes = (
{
closed = 1;
nodes = (
(490,-13,o),
(643,124,o),
(671,338,cs),
(695,519,o),
(580,684,o),
(371,684,c,{
"Letterink-NibData" = {
AngleInDegrees = "270.21459";
};
}),
(115,684,l,{
"Letterink-NibData" = {
AngleInDegrees = "180";
};
}),
(96,532,l,{
"Letterink-NibData" = {
AngleInDegrees = "90";
};
}),
(356,532,l,{
"Letterink-NibData" = {
AngleInDegrees = "92.97373";
};
}),
(479,528,o),
(515,452,o),
(503,351,cs,{
"Letterink-NibData" = {
AngleInDegrees = "180";
};
}),
(487,216,o),
(398,141,o),
(280,141,cs,{
"Letterink-NibData" = {
AngleInDegrees = "270";
};
}),
(262,141,o),
(238,140,o),
(214,145,c),
(279,655,l,{
"Letterink-NibData" = {
AngleInDegrees = "270";
};
}),
(111,655,l,{
"Letterink-NibData" = {
AngleInDegrees = "180";
};
}),
(32,3,l,{
"Letterink-NibData" = {
AngleInDegrees = "95.10217";
};
}),
(124,-5,ls,{
"Letterink-NibData" = {
AngleInDegrees = "95.12819";
};
}),
(127,-5,o),
(170,-9,o),
(259,-10,cs,{
"Letterink-NibData" = {
AngleInDegrees = "90";
};
})
);
}
);
width = 682;
},
{
anchors = (
{
name = bottom;
pos = (260,-10);
},
{
name = center;
pos = (165,365);
},
{
name = top;
pos = (350,682);
}
);
layerId = "E3F1072B-0B24-4A31-98F2-2D5ADE0E752A";
shapes = (
{
closed = 1;
nodes = (
(481,-10,o),
(636,107,o),
(664,338,cs),
(688,535,o),
(577,684,o),
(386,684,c,{
"Letterink-NibData" = {
AngleInDegrees = 270.22037;
};
}),
(132,685,l,{
"Letterink-NibData" = {
AngleInDegrees = 180;
};
}),
(124,617,l,{
"Letterink-NibData" = {
AngleInDegrees = 90;
};
}),
(370,617,l,{
"Letterink-NibData" = {
AngleInDegrees = 93.25195;
};
}),
(532,617,o),
(611,509,o),
(590,343,cs,{
"Letterink-NibData" = {
AngleInDegrees = 180;
};
}),
(567,159,o),
(445,56,o),
(249,56,cs,{
"Letterink-NibData" = {
AngleInDegrees = 270;
};
}),
(212,56,o),
(164,58,o),
(127,61,c),
(201,651,l,{
"Letterink-NibData" = {
AngleInDegrees = 270;
};
}),
(128,651,l,{
"Letterink-NibData" = {
AngleInDegrees = 180;
};
}),
(48,1,l,{
"Letterink-NibData" = {
AngleInDegrees = 94.18492;
};
}),
(101,-4,ls,{
"Letterink-NibData" = {
AngleInDegrees = 94.20536;
};
}),
(148,-8,o),
(179,-10,o),
(277,-10,cs,{
"Letterink-NibData" = {
AngleInDegrees = 90;
};
})
);
}
);
width = 692;
}
);
metricLeft = "=|H";
metricRight = O;
userData = {
position = 674;
width = 60;
};
},
{
glyphname = D.swsh;
kernLeft = Swash;
kernRight = O;
layers = (
{
hints = (
{
name = _corner.caps_swash;
options = 1;
origin = (0,6);
type = Corner;
}
);
layerId = "49C16FD3-6177-408B-A733-AEB3898BB77C";
shapes = (
{
closed = 1;
nodes = (
(581,-9,o),
(731,130,o),
(757,340,cs),
(782,540,o),
(673,685,o),
(481,685,c,{
"Letterink-NibData" = {
AngleInDegrees = "270.22037";
};
}),
(223,685,l,{
"Letterink-NibData" = {
AngleInDegrees = "180";
};
}),
(222,649,l,{
"Letterink-NibData" = {
AngleInDegrees = "90";
};
}),
(470,649,l,{
"Letterink-NibData" = {
AngleInDegrees = 93.25195;
};
}),
(646,649,o),
(739,525,o),
(717,341,cs,{
"Letterink-NibData" = {
AngleInDegrees = "180";
};
}),
(693,142,o),
(563,26,o),
(357,26,cs,{
"Letterink-NibData" = {
AngleInDegrees = "270";
};
}),
(293,26,o),
(218,29,o),
(201,31,c),
(268,569,l,{
"Letterink-NibData" = {
AngleInDegrees = "270";
};
}),
(229,569,l,{
"Letterink-NibData" = {
AngleInDegrees = "180";
};
}),
(159,0,l,{
"Letterink-NibData" = {
AngleInDegrees = 94.18492;
};
}),
(189,-3,ls,{
"Letterink-NibData" = {
AngleInDegrees = "94.20536";
};
}),
(255,-10,o),
(299,-9,o),
(379,-9,cs,{
"Letterink-NibData" = {
AngleInDegrees = "90";
};
})
);
}
);
width = 788;
},
{
hints = (
{
name = _corner.caps_swash;
options = 1;
origin = (0,6);
type = Corner;
}
);
layerId = m004;
shapes = (
{
closed = 1;
nodes = (
(667,-10,o),
(821,144,o),
(844,327,cs),
(867,516,o),
(755,684,o),
(563,684,c,{
"Letterink-NibData" = {
AngleInDegrees = "270.21459";
};
}),
(264,685,l,{
"Letterink-NibData" = {
AngleInDegrees = "180";
};
}),
(266,537,l,{
"Letterink-NibData" = {
AngleInDegrees = "90";
};
}),
(536,537,l,{
"Letterink-NibData" = {
AngleInDegrees = "92.97373";
};
}),
(659,537,o),
(690,450,o),
(678,350,cs,{
"Letterink-NibData" = {
AngleInDegrees = "180";
};
}),
(661,215,o),
(567,141,o),
(456,141,cs,{
"Letterink-NibData" = {
AngleInDegrees = "270";
};
}),
(441,141,o),
(415,143,o),
(393,146,c),
(439,499,l,{
"Letterink-NibData" = {
AngleInDegrees = "270";
};
}),
(271,499,l,{
"Letterink-NibData" = {
AngleInDegrees = "180";
};
}),
(211,5,l,{
"Letterink-NibData" = {
AngleInDegrees = "95.10217";
};
}),
(303,-4,ls,{
"Letterink-NibData" = {
AngleInDegrees = "95.12819";
};
}),
(336,-7,o),
(381,-10,o),
(413,-10,cs,{
"Letterink-NibData" = {
AngleInDegrees = "90";
};
})
);
}
);
width = 856;
},
{
hints = (
{
name = _corner.caps_swash;
options = 1;
origin = (0,6);
type = Corner;
}
);
layerId = "E3F1072B-0B24-4A31-98F2-2D5ADE0E752A";
shapes = (
{
closed = 1;
nodes = (
(592,-10,o),
(749,133,o),
(775,338,cs),
(800,534,o),
(688,684,o),
(497,684,c,{
"Letterink-NibData" = {
AngleInDegrees = "270.22037";
};
}),
(234,684,l,{
"Letterink-NibData" = {
AngleInDegrees = "180";
};
}),
(233,617,l,{
"Letterink-NibData" = {
AngleInDegrees = "90";
};
}),
(481,617,l,{
"Letterink-NibData" = {
AngleInDegrees = 93.25195;
};
}),
(641,617,o),
(721,507,o),
(701,343,cs,{
"Letterink-NibData" = {
AngleInDegrees = "180";
};
}),
(678,159,o),
(557,56,o),
(361,56,cs,{
"Letterink-NibData" = {
AngleInDegrees = "270";
};
}),
(324,56,o),
(277,58,o),
(241,61,c),
(304,562,l,{
"Letterink-NibData" = {
AngleInDegrees = "270";
};
}),
(231,562,l,{
"Letterink-NibData" = {
AngleInDegrees = "180";
};
}),
(162,1,l,{
"Letterink-NibData" = {
AngleInDegrees = 94.18492;
};
}),
(213,-4,ls,{
"Letterink-NibData" = {
AngleInDegrees = "94.20536";
};
}),
(278,-10,o),
(290,-10,o),
(389,-10,cs,{
"Letterink-NibData" = {
AngleInDegrees = "90";
};
})
);
}
);
width = 803;
}
);
metricLeft = E;
metricRight = O;
userData = {
position = 674;
width = 60;
};
},
{
glyphname = E;
kernLeft = E;
kernRight = E;
layers = (
{
anchors = (
{
name = bottom;
pos = (316,0);
},
{
name = ogonek;
pos = (535,1);
},
{
name = top;
pos = (407,684);
},
{
name = topleft;
pos = (93,684);
}
);
hints = (
{
name = _corner.caps_left;
origin = (0,10);
type = Corner;
}
);
layerId = "49C16FD3-6177-408B-A733-AEB3898BB77C";
shapes = (
{
closed = 1;
nodes = (
(536,0,l),
(540,36,l,{
"Letterink-NibData" = {
AngleInDegrees = 270;
};
}),
(154,36,l),
(192,346,l,{
"Letterink-NibData" = {
AngleInDegrees = 90;
};
}),
(455,346,l),
(460,382,l,{
"Letterink-NibData" = {
AngleInDegrees = 270;
};
}),
(197,382,l),
(230,648,l,{
"Letterink-NibData" = {
AngleInDegrees = 90;
};
}),
(608,648,l),
(612,684,l,{
"Letterink-NibData" = {
AngleInDegrees = 269.86613;
};
}),
(192,684,l,{
"Letterink-NibData" = {
AngleInDegrees = 180;
};
}),
(192,649,l),
(111,0,l,{
"Letterink-NibData" = {
AngleInDegrees = 90;
};
})
);
}
);
width = 589;
},
{
anchors = (
{
name = bottom;
pos = (411,0);
},
{
name = ogonek;
pos = (614,0);
},
{
name = top;
pos = (458,684);
},
{
name = topleft;
pos = (236,684);
}
);
hints = (
{
name = _corner.caps_left;
origin = (0,10);
type = Corner;
}
);
layerId = m004;
shapes = (
{
closed = 1;
nodes = (
(614,0,l),
(632,148,l,{
"Letterink-NibData" = {
AngleInDegrees = "270";
};
}),
(336,148,l),
(352,273,l,{
"Letterink-NibData" = {
AngleInDegrees = "90";
};
}),
(552,273,l),
(570,421,l,{
"Letterink-NibData" = {
AngleInDegrees = "270";
};
}),
(370,421,l),
(384,536,l,{
"Letterink-NibData" = {
AngleInDegrees = "90";
};
}),
(665,536,l),
(683,684,l,{
"Letterink-NibData" = {
AngleInDegrees = "270";
};
}),
(225,684,l,{
"Letterink-NibData" = {
AngleInDegrees = "180";
};
}),
(218,536,l),
(152,0,l,{
"Letterink-NibData" = {
AngleInDegrees = "90";
};
})
);
}
);
width = 668;
},
{
anchors = (
{
name = bottom;
pos = (368,2);
},
{
name = ogonek;
pos = (580,-1);
},
{
name = top;
pos = (423,684);
},
{
name = topleft;
pos = (127,684);
}
);
hints = (
{
name = _corner.caps_left;
origin = (0,10);
type = Corner;
}
);
layerId = "E3F1072B-0B24-4A31-98F2-2D5ADE0E752A";
shapes = (
{
closed = 1;
nodes = (
(581,-1,l),
(589,66,l,{
"Letterink-NibData" = {
AngleInDegrees = 270;
};
}),
(203,66,l),
(235,328,l,{
"Letterink-NibData" = {
AngleInDegrees = 90;
};
}),
(504,328,l),
(512,395,l,{
"Letterink-NibData" = {
AngleInDegrees = 270;
};
}),
(243,395,l),
(271,617,l,{
"Letterink-NibData" = {
AngleInDegrees = 90;
};
}),
(640,617,l),
(648,684,l,{
"Letterink-NibData" = {
AngleInDegrees = 269.86613;
};
}),
(197,684,l,{
"Letterink-NibData" = {
AngleInDegrees = 180;
};
}),
(198,618,l),
(122,-1,l,{
"Letterink-NibData" = {
AngleInDegrees = 90;
};
})
);
}
);
width = 636;
}
);
unicode = 69;
userData = {
position = 130;
width = 61;
};
},
{
glyphname = E.ss01;
kernLeft = L;
kernRight = E;
layers = (
{
anchors = (
{
name = bottom;
pos = (280,2);
},
{
name = ogonek;
pos = (502,1);
},
{
name = top;
pos = (362,684);
},
{
name = topleft;
pos = (70,684);
}
);
layerId = "49C16FD3-6177-408B-A733-AEB3898BB77C";
shapes = (
{
closed = 1;
nodes = (
(502,0,l),
(506,36,l,{
"Letterink-NibData" = {
AngleInDegrees = 270;
};
}),
(94,36,l),
(132,346,l,{
"Letterink-NibData" = {
AngleInDegrees = 90;
};
}),
(421,346,l),
(426,382,l,{
"Letterink-NibData" = {
AngleInDegrees = 270;
};
}),
(136,382,l),
(169,649,l,{
"Letterink-NibData" = {
AngleInDegrees = 90;
};
}),
(562,649,l),
(566,685,l,{
"Letterink-NibData" = {
AngleInDegrees = 270;
};
}),
(135,685,l,{
"Letterink-NibData" = {
AngleInDegrees = 180;
};
}),
(51,0,l,{
"Letterink-NibData" = {
AngleInDegrees = 90;
};
})
);
}
);
width = 555;
},
{
anchors = (
{
name = bottom;
pos = (288,0);
},
{
name = ogonek;
pos = (523,0);
},
{
name = top;
pos = (359,687);
},
{
name = topleft;
pos = (115,684);
}
);
layerId = m004;
shapes = (
{
closed = 1;
nodes = (
(523,0,l),
(541,148,l,{
"Letterink-NibData" = {
AngleInDegrees = 270;
};
}),
(215,148,l),
(231,273,l,{
"Letterink-NibData" = {
AngleInDegrees = 90;
};
}),
(461,273,l),
(479,421,l,{
"Letterink-NibData" = {
AngleInDegrees = 270;
};
}),
(249,421,l),
(263,536,l,{
"Letterink-NibData" = {
AngleInDegrees = 90;
};
}),
(574,536,l),
(592,684,l,{
"Letterink-NibData" = {
AngleInDegrees = 270;
};
}),
(115,684,l,{
"Letterink-NibData" = {
AngleInDegrees = 180;
};
}),
(31,0,l,{
"Letterink-NibData" = {
AngleInDegrees = 90;
};
})
);
}
);
width = 577;
},
{
anchors = (
{
name = bottom;
pos = (284,0);
},
{
name = ogonek;
pos = (513,-1);
},
{
name = top;
pos = (369,685);
},
{
name = topleft;
pos = (68,684);
}
);
layerId = "E3F1072B-0B24-4A31-98F2-2D5ADE0E752A";
shapes = (
{
closed = 1;
nodes = (
(513,-1,l),
(521,66,l,{
"Letterink-NibData" = {
AngleInDegrees = 270;
};
}),
(128,66,l),
(161,328,l,{
"Letterink-NibData" = {
AngleInDegrees = 90;
};
}),
(436,328,l),
(444,395,l,{
"Letterink-NibData" = {
AngleInDegrees = 270;
};
}),
(169,395,l),
(196,617,l,{
"Letterink-NibData" = {
AngleInDegrees = 90;
};
}),
(570,617,l),
(578,684,l,{
"Letterink-NibData" = {
AngleInDegrees = 270;
};
}),
(132,684,l,{
"Letterink-NibData" = {
AngleInDegrees = 180;
};
}),
(48,-1,l,{
"Letterink-NibData" = {
AngleInDegrees = 90;
};
})
);
}
);
width = 568;
}
);
metricLeft = N.ss01;
metricRight = E;
userData = {
position = 95;
width = 61;
};
},
{
glyphname = E.swsh;
kernLeft = Swash;
kernRight = E;
layers = (
{
anchors = (
{
name = bottom;
pos = (388,0);
},
{
name = ogonek;
pos = (596,0);
},
{
name = top;
pos = (462,684);
},
{
name = topleft;
pos = (66,684);
}
);
hints = (
{
name = _corner.caps_swash;
origin = (1,2);
type = Corner;
}
);
layerId = "49C16FD3-6177-408B-A733-AEB3898BB77C";
shapes = (
{
closed = 1;
nodes = (
(596,0,l),
(600,36,l,{
"Letterink-NibData" = {
AngleInDegrees = 270;
};
}),
(210,36,l),
(248,346,l,{
"Letterink-NibData" = {
AngleInDegrees = 90;
};
}),
(514,346,l),
(519,382,l,{
"Letterink-NibData" = {
AngleInDegrees = 270;
};
}),
(251,382,l),
(274,570,l,{
"Letterink-NibData" = {
AngleInDegrees = 270;
};
}),
(237,570,l,{
"Letterink-NibData" = {
AngleInDegrees = 180;
};
}),
(167,0,l,{
"Letterink-NibData" = {
AngleInDegrees = 90;
};
})
);
},
{
closed = 1;
nodes = (
(666,648,l),
(670,684,l,{
"Letterink-NibData" = {
AngleInDegrees = 270;
};
}),
(213,684,l,{
"Letterink-NibData" = {
AngleInDegrees = 180;
};
}),
(213,648,l,{
"Letterink-NibData" = {
AngleInDegrees = 90;
};
})
);
}
);
width = 649;
},
{
anchors = (
{
name = bottom;
pos = (453,0);
},
{
name = ogonek;
pos = (684,0);
},
{
name = top;
pos = (525,684);
},
{
name = topleft;
pos = (82,728);
}
);
hints = (
{
name = _corner.caps_swash;
origin = (1,2);
type = Corner;
}
);
layerId = m004;
shapes = (
{
closed = 1;
nodes = (
(684,0,l),
(702,148,l,{
"Letterink-NibData" = {
AngleInDegrees = "270";
};
}),
(386,148,l),
(402,276,l,{
"Letterink-NibData" = {
AngleInDegrees = "90";
};
}),
(622,276,l),
(640,424,l,{
"Letterink-NibData" = {
AngleInDegrees = "270";
};
}),
(420,424,l),
(430,501,l,{
"Letterink-NibData" = {
AngleInDegrees = "90";
};
}),
(263,500,l,{
"Letterink-NibData" = {
AngleInDegrees = "180";
};
}),
(202,0,l,{
"Letterink-NibData" = {
AngleInDegrees = "90";
};
})
);
},
{
closed = 1;
nodes = (
(735,536,l),
(753,684,l,{
"Letterink-NibData" = {
AngleInDegrees = "270";
};
}),
(271,684,l,{
"Letterink-NibData" = {
AngleInDegrees = "180";
};
}),
(268,536,l)
);
}
);
width = 738;
},
{
anchors = (
{
name = bottom;
pos = (407,0);
},
{
name = ogonek;
pos = (623,0);
},
{
name = top;
pos = (483,684);
},
{
name = topleft;
pos = (90,684);
}
);
hints = (
{
name = _corner.caps_swash;
origin = (1,2);
type = Corner;
}
);
layerId = "E3F1072B-0B24-4A31-98F2-2D5ADE0E752A";
shapes = (
{
closed = 1;
nodes = (
(623,0,l),
(631,67,l,{
"Letterink-NibData" = {
AngleInDegrees = 270;
};
}),
(260,67,l),
(292,330,l,{
"Letterink-NibData" = {
AngleInDegrees = 90;
};
}),
(545,330,l),
(553,397,l,{
"Letterink-NibData" = {
AngleInDegrees = 270;
};
}),
(300,397,l),
(321,562,l,{
"Letterink-NibData" = {
AngleInDegrees = 270;
};
}),
(248,562,l,{
"Letterink-NibData" = {
AngleInDegrees = 180;
};
}),
(179,0,l,{
"Letterink-NibData" = {
AngleInDegrees = 90;
};
})
);
},
{
closed = 1;
nodes = (
(689,618,l),
(697,685,l,{
"Letterink-NibData" = {
AngleInDegrees = 270;
};
}),
(227,685,l,{
"Letterink-NibData" = {
AngleInDegrees = 180;
};
}),
(228,618,l,{
"Letterink-NibData" = {
AngleInDegrees = 90;
};
})
);
}
);
width = 678;
}
);
metricRight = E;
userData = {
position = 130;
width = 61;
};
},
{
glyphname = Schwa;
kernLeft = O;
kernRight = O;
layers = (
{
anchors = (
{
name = bottom;
pos = (265,-1);
},
{
name = ogonek;
pos = (99,621);
},
{
name = top;
pos = (331,701);
}
);
layerId = "49C16FD3-6177-408B-A733-AEB3898BB77C";
shapes = (
{
closed = 1;
nodes = (
(568,386,l),
(549,391,o),
(421,399,o),
(363,399,cs,{
"Letterink-NibData" = {
AngleInDegrees = 90;
};
}),
(176,399,o),
(56,325,o),
(39,191,cs),
(24,73,o),
(104,-10,o),
(237,-10,cs,{
"Letterink-NibData" = {
AngleInDegrees = 270;
};
}),
(422,-10,o),
(574,149,o),
(600,360,cs,{
"Letterink-NibData" = {
AngleInDegrees = 180;
};
}),
(627,580,o),
(521,701,o),
(331,701,cs,{
"Letterink-NibData" = {
AngleInDegrees = 90;
};
}),
(235,701,o),
(162,674,o),
(80,616,c,{
"Letterink-NibData" = {
AngleInDegrees = 324.09028;
};
}),
(99,587,l,{
"Letterink-NibData" = {
AngleInDegrees = 237.68038;
};
}),
(167,634,o),
(240,666,o),
(330,666,cs,{
"Letterink-NibData" = {
AngleInDegrees = 270;
};
}),
(501,666,o),
(582,555,o),
(561,367,cs,{
"Letterink-NibData" = {
AngleInDegrees = 90;
};
}),
(540,177,o),
(395,25,o),
(234,25,cs,{
"Letterink-NibData" = {
AngleInDegrees = 90;
};
}),
(128,25,o),
(67,96,o),
(79,187,cs,{
"Letterink-NibData" = {
AngleInDegrees = 180;
};
}),
(94,300,o),
(199,366,o),
(362,363,cs,{
"Letterink-NibData" = {
AngleInDegrees = 270;
};
}),
(473,361,o),
(543,354,o),
(564,353,c,{
"Letterink-NibData" = {
AngleInDegrees = 357.92997;
};
})
);
}
);
userData = {
RMXScaler = {
height = 140;
verticalShift = -260;
width = 135;
};
};
width = 630;
},
{
anchors = (
{
name = bottom;
pos = (281,-10);
},
{
name = ogonek;
pos = (76,610);
},
{
name = top;
pos = (365,700);
}
);
layerId = m004;
shapes = (
{
closed = 1;
nodes = (
(504,437,l),
(483,438,o),
(383,441,o),
(371,441,cs,{
"Letterink-NibData" = {
AngleInDegrees = 91.29217;
};
}),
(173,441,o),
(40,355,o),
(23,215,cs),
(6,77,o),
(104,-26,o),
(266,-28,cs,{
"Letterink-NibData" = {
AngleInDegrees = 270;
};
}),
(455,-30,o),
(613,126,o),
(640,348,cs,{
"Letterink-NibData" = {
AngleInDegrees = 180;
};
}),
(667,570,o),
(550,713,o),
(350,715,cs,{
"Letterink-NibData" = {
AngleInDegrees = 90;
};
}),
(250,716,o),
(144,678,o),
(61,611,c,{
"Letterink-NibData" = {
AngleInDegrees = 321.70984;
};
}),
(135,494,l,{
"Letterink-NibData" = {
AngleInDegrees = "241.22019";
};
}),
(194,541,o),
(269,571,o),
(337,571,cs,{
"Letterink-NibData" = {
AngleInDegrees = "270";
};
}),
(439,571,o),
(486,510,o),
(476,402,cs,{
"Letterink-NibData" = {
AngleInDegrees = 91.10171;
};
}),
(458,195,o),
(374,116,o),
(269,116,cs,{
"Letterink-NibData" = {
AngleInDegrees = 90;
};
}),
(222,116,o),
(185,155,o),
(190,199,cs,{
"Letterink-NibData" = {
AngleInDegrees = 180;
};
}),
(199,269,o),
(255,299,o),
(371,302,cs,{
"Letterink-NibData" = {
AngleInDegrees = 270;
};
}),
(418,303,o),
(456,307,o),
(517,301,c,{
"Letterink-NibData" = {
AngleInDegrees = 3.91825;
};
})
);
}
);
userData = {
RMXScaler = {
height = 140;
verticalShift = -260;
width = 135;
};
};
width = 653;
},
{
anchors = (
{
name = bottom;
pos = (277,-2);
},
{
name = ogonek;
pos = (100,618);
},
{
name = top;
pos = (349,698);
}
);
layerId = "E3F1072B-0B24-4A31-98F2-2D5ADE0E752A";
shapes = (
{
closed = 1;
nodes = (
(546,401,l),
(542,404,o),
(422,413,o),
(383,413,cs,{
"Letterink-NibData" = {
AngleInDegrees = 90;
};
}),
(183,413,o),
(55,333,o),
(38,198,cs),
(22,73,o),
(109,-16,o),
(248,-16,cs,{
"Letterink-NibData" = {
AngleInDegrees = 270;
};
}),
(432,-16,o),
(583,113,o),
(614,360,cs,{
"Letterink-NibData" = {
AngleInDegrees = 180;
};
}),
(640,569,o),
(534,702,o),
(339,702,cs,{
"Letterink-NibData" = {
AngleInDegrees = 90;
};
}),
(246,702,o),
(160,673,o),
(78,611,c,{
"Letterink-NibData" = {
AngleInDegrees = 324.09028;
};
}),
(111,558,l,{
"Letterink-NibData" = {
AngleInDegrees = 237.68038;
};
}),
(181,607,o),
(254,637,o),
(335,637,cs,{
"Letterink-NibData" = {
AngleInDegrees = 270;
};
}),
(484,637,o),
(557,542,o),
(541,382,cs,{
"Letterink-NibData" = {
AngleInDegrees = 90;
};
}),
(515,128,o),
(371,49,o),
(247,49,cs,{
"Letterink-NibData" = {
AngleInDegrees = 90;
};
}),
(156,49,o),
(100,106,o),
(111,190,cs,{
"Letterink-NibData" = {
AngleInDegrees = 180;
};
}),
(123,292,o),
(219,351,o),
(382,348,cs,{
"Letterink-NibData" = {
AngleInDegrees = 270;
};
}),
(461,346,o),
(496,343,o),
(556,337,c,{
"Letterink-NibData" = {
AngleInDegrees = 357.92997;
};
})
);
}
);
userData = {
RMXScaler = {
height = 140;
verticalShift = -260;
width = 135;
};
};
width = 642;
}
);
unicode = 399;
userData = {
RMXScaler = {
source = schwa;
};
};
},
{
glyphname = F;
kernLeft = E;
kernRight = F;
layers = (
{
anchors = (
{
name = bottom;
pos = (324,-18);
},
{
name = top;
pos = (412,684);
}
);
hints = (
{
name = _corner.caps_left;
origin = (0,8);
type = Corner;
}
);
layerId = "49C16FD3-6177-408B-A733-AEB3898BB77C";
shapes = (
{
closed = 1;
nodes = (
(150,0,l),
(193,345,l,{
"Letterink-NibData" = {
AngleInDegrees = 90;
};
}),
(459,345,l),
(464,381,l,{
"Letterink-NibData" = {
AngleInDegrees = 270;
};
}),
(197,381,l),
(230,648,l,{
"Letterink-NibData" = {
AngleInDegrees = 90;
};
}),
(590,648,l),
(594,684,l,{
"Letterink-NibData" = {
AngleInDegrees = 270;
};
}),
(192,684,l,{
"Letterink-NibData" = {
AngleInDegrees = 180;
};
}),
(192,649,l),
(112,0,l,{
"Letterink-NibData" = {
AngleInDegrees = 90;
};
})
);
}
);
width = 559;
},
{
anchors = (
{
name = bottom;
pos = (395,-3);
},
{
name = top;
pos = (481,684);
}
);
hints = (
{
name = _corner.caps_left;
origin = (0,8);
type = Corner;
}
);
layerId = m004;
shapes = (
{
closed = 1;
nodes = (
(319,0,l),
(350,263,l,{
"Letterink-NibData" = {
AngleInDegrees = "90";
};
}),
(550,263,l),
(568,411,l,{
"Letterink-NibData" = {
AngleInDegrees = "270";
};
}),
(368,411,l),
(384,536,l,{
"Letterink-NibData" = {
AngleInDegrees = "90";
};
}),
(670,536,l),
(688,684,l,{
"Letterink-NibData" = {
AngleInDegrees = "270";
};
}),
(221,684,l,{
"Letterink-NibData" = {
AngleInDegrees = "180";
};
}),
(218,538,l),
(152,0,l,{
"Letterink-NibData" = {
AngleInDegrees = "90";
};
})
);
}
);
width = 653;
},
{
anchors = (
{
name = bottom;
pos = (335,-4);
},
{
name = top;
pos = (421,684);
}
);
hints = (
{
name = _corner.caps_left;
origin = (0,8);
type = Corner;
}
);
layerId = "E3F1072B-0B24-4A31-98F2-2D5ADE0E752A";
shapes = (
{
closed = 1;
nodes = (
(195,-1,l),
(235,329,l,{
"Letterink-NibData" = {
AngleInDegrees = 90;
};
}),
(489,329,l),
(497,396,l,{
"Letterink-NibData" = {
AngleInDegrees = 270;
};
}),
(243,396,l),
(271,618,l,{
"Letterink-NibData" = {
AngleInDegrees = 90;
};
}),
(612,618,l),
(620,685,l,{
"Letterink-NibData" = {
AngleInDegrees = 270;
};
}),
(197,685,l,{
"Letterink-NibData" = {
AngleInDegrees = 180;
};
}),
(198,618,l),
(123,-1,l,{
"Letterink-NibData" = {
AngleInDegrees = 90;
};
})
);
}
);
width = 586;
}
);
metricLeft = E;
metricRight = "=E*.8";
unicode = 70;
userData = {
position = 129;
width = 61;
};
},
{
glyphname = F.ss01;
kernRight = F;
layers = (
{
anchors = (
{
name = bottom;
pos = (249,0);
},
{
name = top;
pos = (335,684);
}
);
layerId = "49C16FD3-6177-408B-A733-AEB3898BB77C";
shapes = (
{
closed = 1;
nodes = (
(89,1,l),
(130,337,l,{
"Letterink-NibData" = {
AngleInDegrees = 90;
};
}),
(427,337,l),
(432,372,l,{
"Letterink-NibData" = {
AngleInDegrees = 270;
};
}),
(135,372,l),
(169,648,l,{
"Letterink-NibData" = {
AngleInDegrees = 90;
};
}),
(538,648,l),
(542,685,l,{
"Letterink-NibData" = {
AngleInDegrees = 270;
};
}),
(135,685,l,{
"Letterink-NibData" = {
AngleInDegrees = 180;
};
}),
(51,1,l,{
"Letterink-NibData" = {
AngleInDegrees = 90;
};
})
);
}
);
width = 507;
},
{
anchors = (
{
name = bottom;
pos = (264,-11);
},
{
name = top;
pos = (351,684);
}
);
layerId = m004;
shapes = (
{
closed = 1;
nodes = (
(198,1,l),
(229,263,l,{
"Letterink-NibData" = {
AngleInDegrees = "90";
};
}),
(449,263,l),
(467,411,l,{
"Letterink-NibData" = {
AngleInDegrees = "270";
};
}),
(247,411,l),
(263,536,l,{
"Letterink-NibData" = {
AngleInDegrees = "90";
};
}),
(569,536,l),
(587,684,l,{
"Letterink-NibData" = {
AngleInDegrees = "270";
};
}),
(115,684,l,{
"Letterink-NibData" = {
AngleInDegrees = "180";
};
}),
(31,1,l,{
"Letterink-NibData" = {
AngleInDegrees = "90";
};
})
);
}
);
width = 552;
},
{
anchors = (
{
name = bottom;
pos = (258,0);
},
{
name = top;
pos = (344,684);
}
);
layerId = "E3F1072B-0B24-4A31-98F2-2D5ADE0E752A";
shapes = (
{
closed = 1;
nodes = (
(122,-1,l),
(161,322,l,{
"Letterink-NibData" = {
AngleInDegrees = 90;
};
}),
(443,322,l),
(451,388,l,{
"Letterink-NibData" = {
AngleInDegrees = 270;
};
}),
(169,388,l),
(198,619,l,{
"Letterink-NibData" = {
AngleInDegrees = 90;
};
}),
(548,619,l),
(556,686,l,{
"Letterink-NibData" = {
AngleInDegrees = 270;
};
}),
(133,686,l,{
"Letterink-NibData" = {
AngleInDegrees = 180;
};
}),
(49,-1,l,{
"Letterink-NibData" = {
AngleInDegrees = 90;
};
})
);
}
);
width = 522;
}
);
metricLeft = N.ss01;
metricRight = "=E*.8";
userData = {
position = 95;
width = 61;
};
},
{
glyphname = F.swsh;
kernLeft = Swash;
kernRight = F;
layers = (
{
anchors = (
{
name = bottom;
pos = (352,0);
},
{
name = top;
pos = (432,684);
}
);
hints = (
{
name = _corner.caps_swash;
options = 1;
origin = (1,2);
type = Corner;
}
);
layerId = "49C16FD3-6177-408B-A733-AEB3898BB77C";
shapes = (
{
closed = 1;
nodes = (
(208,0,l),
(252,361,l,{
"Letterink-NibData" = {
AngleInDegrees = 90;
};
}),
(234,345,l,{
"Letterink-NibData" = {
AngleInDegrees = 90;
};
}),
(518,345,l),
(523,381,l,{
"Letterink-NibData" = {
AngleInDegrees = 270;
};
}),
(239,381,l),
(253,365,l),
(278,570,l,{
"Letterink-NibData" = {
AngleInDegrees = 270;
};
}),
(240,570,l,{
"Letterink-NibData" = {
AngleInDegrees = 180;
};
}),
(170,0,l,{
"Letterink-NibData" = {
AngleInDegrees = 90;
};
})
);
},
{
closed = 1;
nodes = (
(660,648,l),
(664,684,l,{
"Letterink-NibData" = {
AngleInDegrees = 270;
};
}),
(216,684,l,{
"Letterink-NibData" = {
AngleInDegrees = 180;
};
}),
(217,648,l,{
"Letterink-NibData" = {
AngleInDegrees = 90;
};
})
);
}
);
width = 629;
},
{
anchors = (
{
name = bottom;
pos = (457,-4);
},
{
name = top;
pos = (544,684);
}
);
hints = (
{
name = _corner.caps_swash;
options = 1;
origin = (1,2);
type = Corner;
}
);
layerId = m004;
shapes = (
{
closed = 1;
nodes = (
(371,0,l),
(412,334,l,{
"Letterink-NibData" = {
AngleInDegrees = "90";
};
}),
(331,263,l,{
"Letterink-NibData" = {
AngleInDegrees = "90";
};
}),
(623,263,l),
(641,411,l,{
"Letterink-NibData" = {
AngleInDegrees = "270";
};
}),
(352,411,l),
(414,340,l),
(432,499,l,{
"Letterink-NibData" = {
AngleInDegrees = "90";
};
}),
(266,499,l),
(205,0,l,{
"Letterink-NibData" = {
AngleInDegrees = "90";
};
})
);
},
{
closed = 1;
nodes = (
(743,536,l),
(761,684,l,{
"Letterink-NibData" = {
AngleInDegrees = "270";
};
}),
(264,684,l,{
"Letterink-NibData" = {
AngleInDegrees = "180";
};
}),
(261,536,l)
);
}
);
width = 726;
},
{
anchors = (
{
name = bottom;
pos = (369,0);
},
{
name = top;
pos = (448,684);
}
);
hints = (
{
name = _corner.caps_swash;
options = 1;
origin = (1,2);
type = Corner;
}
);
layerId = "E3F1072B-0B24-4A31-98F2-2D5ADE0E752A";
shapes = (
{
closed = 1;
nodes = (
(252,-1,l),
(296,360,l,{
"Letterink-NibData" = {
AngleInDegrees = 90;
};
}),
(261,329,l,{
"Letterink-NibData" = {
AngleInDegrees = 90;
};
}),
(546,329,l),
(554,396,l,{
"Letterink-NibData" = {
AngleInDegrees = 270;
};
}),
(270,396,l),
(297,364,l),
(322,562,l,{
"Letterink-NibData" = {
AngleInDegrees = 270;
};
}),
(249,562,l,{
"Letterink-NibData" = {
AngleInDegrees = 180;
};
}),
(180,-1,l,{
"Letterink-NibData" = {
AngleInDegrees = 90;
};
})
);
},
{
closed = 1;
nodes = (
(680,617,l),
(688,684,l,{
"Letterink-NibData" = {
AngleInDegrees = 270;
};
}),
(227,684,l,{
"Letterink-NibData" = {
AngleInDegrees = 180;
};
}),
(228,617,l,{
"Letterink-NibData" = {
AngleInDegrees = 90;
};
})
);
}
);
width = 654;
}
);
metricLeft = E.swsh;
metricRight = F;
userData = {
position = 129;
width = 61;
};
},
{
glyphname = G;
kernLeft = O;
kernRight = O;
layers = (
{
anchors = (
{
name = bottom;
pos = (348,0);
},
{
name = top;
pos = (430,688);
}
);
layerId = "49C16FD3-6177-408B-A733-AEB3898BB77C";
shapes = (
{
closed = 1;
nodes = (
(531,-11,o),
(664,120,o),
(693,310,cs),
(696,330,l),
(406,330,l),
(403,294,l),
(673,294,l),
(656,312,l),
(631,148,o),
(513,24,o),
(355,24,cs),
(170,24,o),
(70,152,o),
(93,338,cs),
(116,527,o),
(263,659,o),
(429,659,cs),
(572,659,o),
(634,587,o),
(628,540,cs),
(625,514,o),
(606,482,o),
(576,482,cs),
(566,485,o),
(554,488,o),
(546,491,c),
(521,464,l),
(539,450,o),
(559,446,o),
(575,446,cs),
(615,446,o),
(659,483,o),
(666,536,cs),
(677,618,o),
(585,694,o),
(430,694,cs),
(249,694,o),
(79,555,o),
(53,342,cs),
(27,133,o),
(150,-11,o),
(354,-11,cs)
);
}
);
width = 727;
},
{
anchors = (
{
name = bottom;
pos = (342,-10);
},
{
name = top;
pos = (429,703);
}
);
layerId = m004;
shapes = (
{
closed = 1;
nodes = (
(556,-25,o),
(691,111,o),
(710,338,cs),
(712,362,l),
(394,362,l),
(378,224,l),
(623,224,l),
(556,289,l),
(547,186,o),
(473,119,o),
(364,119,cs),
(247,119,o),
(183,199,o),
(198,325,cs),
(215,469,o),
(314,567,o),
(441,567,cs),
(499,567,o),
(556,546,o),
(554,521,cs),
(553,510,o),
(544,502,o),
(534,502,cs),
(530,502,o),
(527,503,o),
(523,507,c),
(448,422,l),
(468,400,o),
(499,385,o),
(538,385,cs),
(614,385,o),
(684,444,o),
(693,517,cs),
(707,627,o),
(597,711,o),
(441,711,cs),
(229,711,o),
(57,557,o),
(31,343,cs),
(5,130,o),
(137,-25,o),
(346,-25,cs)
);
}
);
width = 720;
},
{
anchors = (
{
name = bottom;
pos = (343,-7);
},
{
name = top;
pos = (428,689);
}
);
layerId = "E3F1072B-0B24-4A31-98F2-2D5ADE0E752A";
shapes = (
{
closed = 1;
nodes = (
(552,-17,o),
(668,134,o),
(699,325,cs),
(701,339,l),
(391,339,l),
(383,277,l),
(660,277,l),
(622,307,l),
(603,179,o),
(513,48,o),
(362,48,cs),
(203,48,o),
(101,161,o),
(122,336,cs),
(143,508,o),
(280,634,o),
(436,634,cs),
(569,634,o),
(612,578,o),
(608,544,cs),
(605,525,o),
(591,502,o),
(570,502,cs),
(563,503,o),
(555,503,o),
(546,508,c),
(507,457,l),
(526,443,o),
(549,437,o),
(568,437,cs),
(617,437,o),
(668,476,o),
(676,537,cs),
(690,643,o),
(578,699,o),
(437,699,cs),
(249,699,o),
(74,543,o),
(50,343,cs),
(24,131,o),
(156,-17,o),
(360,-17,cs)
);
}
);
width = 728;
}
);
metricLeft = O;
metricRight = "=O*.975";
note = "Bold: 98/95.5%";
unicode = 71;
userData = {
position = 593;
width = 57;
};
},
{
glyphname = G.ss01;
kernLeft = O;
kernRight = O;
layers = (
{
anchors = (
{
name = bottom;
pos = (350,-2);
},
{
name = top;
pos = (442,694);
}
);
layerId = "49C16FD3-6177-408B-A733-AEB3898BB77C";
shapes = (
{
closed = 1;
nodes = (
(537,-11,o),
(676,120,o),
(698,318,cs),
(700,336,l),
(400,336,l),
(396,300,l),
(680,300,l),
(665,320,l),
(643,143,o),
(518,24,o),
(356,24,cs),
(183,24,o),
(71,152,o),
(93,337,cs),
(116,532,o),
(267,661,o),
(440,661,cs),
(569,661,o),
(641,594,o),
(655,525,c),
(687,534,l),
(669,622,o),
(579,696,o),
(441,696,cs),
(248,696,o),
(79,556,o),
(53,341,cs),
(28,134,o),
(155,-11,o),
(355,-11,cs)
);
}
);
width = 732;
},
{
anchors = (
{
name = bottom;
pos = (334,-12);
},
{
name = top;
pos = (435,698);
}
);
layerId = m004;
shapes = (
{
closed = 1;
nodes = (
(542,-31,o),
(694,112,o),
(721,336,c),
(728,387,l),
(411,387,l),
(394,249,l),
(636,249,l),
(570,317,l),
(556,194,o),
(477,112,o),
(359,112,cs),
(245,112,o),
(178,194,o),
(195,330,cs),
(212,464,o),
(305,567,o),
(431,567,cs),
(507,567,o),
(552,527,o),
(559,489,c),
(704,523,l),
(683,643,o),
(568,711,o),
(432,711,cs),
(227,711,o),
(57,562,o),
(31,348,cs),
(4,122,o),
(138,-31,o),
(343,-31,cs)
);
}
);
width = 733;
},
{
anchors = (
{
name = bottom;
pos = (354,-15);
},
{
name = top;
pos = (440,700);
}
);
layerId = "E3F1072B-0B24-4A31-98F2-2D5ADE0E752A";
shapes = (
{
closed = 1;
nodes = (
(542,-17,o),
(682,115,o),
(706,315,cs),
(710,350,l),
(404,350,l),
(396,283,l),
(669,283,l),
(638,318,l),
(619,157,o),
(507,48,o),
(359,48,cs),
(200,48,o),
(102,167,o),
(123,337,cs),
(144,512,o),
(279,636,o),
(439,636,cs),
(544,636,o),
(618,584,o),
(632,514,c),
(695,530,l),
(678,628,o),
(576,701,o),
(440,701,cs),
(241,701,o),
(76,553,o),
(50,343,cs),
(24,132,o),
(152,-17,o),
(355,-17,cs)
);
}
);
width = 737;
}
);
metricLeft = O;
metricRight = O;
userData = {
position = 593;
width = 57;
};
},
{
glyphname = G.swsh;
kernLeft = O;
kernRight = O;
layers = (
{
layerId = "49C16FD3-6177-408B-A733-AEB3898BB77C";
shapes = (
{
closed = 1;
nodes = (
(566,-268,o),
(628,-223,o),
(640,-128,cs),
(696,328,l),
(658,328,l),
(602,-126,ls),
(594,-187,o),
(553,-226,o),
(504,-226,cs),
(475,-226,o),
(450,-210,o),
(438,-179,c),
(399,-197,l),
(417,-240,o),
(456,-268,o),
(503,-268,cs)
);
},
{
ref = G;
}
);
width = 727;
},
{
layerId = m004;
shapes = (
{
closed = 1;
nodes = (
(560,-239,o),
(650,-177,o),
(668,-31,cs),
(713,335,l),
(564,335,l),
(520,-23,ls),
(516,-56,o),
(501,-91,o),
(469,-91,cs),
(462,-91,o),
(445,-85,o),
(438,-67,c),
(302,-127,l),
(327,-193,o),
(386,-239,o),
(463,-239,cs)
);
},
{
ref = G;
}
);
width = 723;
},
{
layerId = "E3F1072B-0B24-4A31-98F2-2D5ADE0E752A";
shapes = (
{
closed = 1;
nodes = (
(562,-266,o),
(631,-220,o),
(644,-116,cs),
(700,339,l),
(632,339,l),
(577,-112,ls),
(570,-162,o),
(540,-198,o),
(496,-198,cs),
(476,-198,o),
(454,-186,o),
(444,-160,c),
(381,-188,l),
(399,-235,o),
(442,-266,o),
(495,-266,cs)
);
},
{
ref = G;
}
);
width = 728;
}
);
metricLeft = O;
metricRight = G;
userData = {
position = 593;
width = 57;
};
},
{
glyphname = H;
kernLeft = E;
layers = (
{
anchors = (
{
name = bottom;
pos = (367,0);
},
{
name = center;
pos = (427,489);
},
{
name = leftstem;
pos = (135,0);
},
{
name = top;
pos = (451,685);
},
{
name = topleft;
pos = (124,684);
}
);
hints = (
{
name = _corner.caps_vert;
options = 1;
origin = (0,9);
type = Corner;
}
);
layerId = "49C16FD3-6177-408B-A733-AEB3898BB77C";
shapes = (
{
closed = 1;
nodes = (
(154,0,l),
(197,340,l,{
"Letterink-NibData" = {
AngleInDegrees = 90;
};
}),
(612,340,l,{
"Letterink-NibData" = {
AngleInDegrees = 180;
};
}),
(570,1,l,{
"Letterink-NibData" = {
AngleInDegrees = 90;
};
}),
(609,1,l),
(693,685,l,{
"Letterink-NibData" = {
AngleInDegrees = 270;
};
}),
(655,685,l,{
"Letterink-NibData" = {
AngleInDegrees = 180;
};
}),
(617,376,l,{
"Letterink-NibData" = {
AngleInDegrees = 270;
};
}),
(201,376,l),
(226,581,l,{
"Letterink-NibData" = {
AngleInDegrees = 270;
};
}),
(188,581,l,{
"Letterink-NibData" = {
AngleInDegrees = 180;
};
}),
(116,0,l,{
"Letterink-NibData" = {
AngleInDegrees = 90;
};
})
);
}
);
width = 722;
},
{
anchors = (
{
name = bottom;
pos = (390,0);
},
{
name = center;
pos = (444,500);
},
{
name = leftstem;
pos = (186,0);
},
{
name = top;
pos = (460,684);
},
{
name = topleft;
pos = (151,684);
}
);
hints = (
{
name = _corner.caps_vert;
options = 1;
origin = (0,9);
type = Corner;
}
);
layerId = m004;
shapes = (
{
closed = 1;
nodes = (
(270,0,l),
(303,270,l,{
"Letterink-NibData" = {
AngleInDegrees = "90";
};
}),
(538,270,l,{
"Letterink-NibData" = {
AngleInDegrees = "180";
};
}),
(505,0,l,{
"Letterink-NibData" = {
AngleInDegrees = "90";
};
}),
(670,0,l),
(754,684,l,{
"Letterink-NibData" = {
AngleInDegrees = "270";
};
}),
(589,684,l,{
"Letterink-NibData" = {
AngleInDegrees = "180";
};
}),
(557,422,l,{
"Letterink-NibData" = {
AngleInDegrees = "270";
};
}),
(321,422,l),
(331,500,l,{
"Letterink-NibData" = {
AngleInDegrees = "270";
};
}),
(165,500,l,{
"Letterink-NibData" = {
AngleInDegrees = "180";
};
}),
(105,0,l,{
"Letterink-NibData" = {
AngleInDegrees = "90";
};
})
);
}
);
width = 763;
},
{
anchors = (
{
name = bottom;
pos = (374,0);
},
{
name = center;
pos = (435,497);
},
{
name = leftstem;
pos = (148,0);
},
{
name = top;
pos = (457,677);
},
{
name = topleft;
pos = (106,684);
}
);
hints = (
{
name = _corner.caps_vert;
options = 1;
origin = (0,9);
type = Corner;
}
);
layerId = "E3F1072B-0B24-4A31-98F2-2D5ADE0E752A";
shapes = (
{
closed = 1;
nodes = (
(184,0,l),
(223,324,l,{
"Letterink-NibData" = {
AngleInDegrees = 90;
};
}),
(593,324,l,{
"Letterink-NibData" = {
AngleInDegrees = 180;
};
}),
(553,-1,l,{
"Letterink-NibData" = {
AngleInDegrees = 90;
};
}),
(626,-1,l),
(710,686,l,{
"Letterink-NibData" = {
AngleInDegrees = 270;
};
}),
(638,686,l,{
"Letterink-NibData" = {
AngleInDegrees = 180;
};
}),
(602,391,l,{
"Letterink-NibData" = {
AngleInDegrees = 270;
};
}),
(230,391,l),
(252,576,l,{
"Letterink-NibData" = {
AngleInDegrees = 270;
};
}),
(180,575,l,{
"Letterink-NibData" = {
AngleInDegrees = 180;
};
}),
(112,0,l,{
"Letterink-NibData" = {
AngleInDegrees = 90;
};
})
);
}
);
width = 736;
}
);
unicode = 72;
userData = {
position = 554;
width = 61;
};
},
{
glyphname = H.ss01;
layers = (
{
anchors = (
{
name = bottom;
pos = (304,0);
},
{
name = center;
pos = (367,498);
},
{
name = top;
pos = (389,684);
},
{
name = topleft;
pos = (79,684);
}
);
hints = (
{
name = _corner.left;
options = 2;
origin = (0,10);
type = Corner;
}
);
layerId = "49C16FD3-6177-408B-A733-AEB3898BB77C";
shapes = (
{
closed = 1;
nodes = (
(92,0,l),
(136,340,l,{
"Letterink-NibData" = {
AngleInDegrees = 90;
};
}),
(561,340,l,{
"Letterink-NibData" = {
AngleInDegrees = 180;
};
}),
(520,0,l,{
"Letterink-NibData" = {
AngleInDegrees = 90;
};
}),
(558,0,l),
(642,684,l,{
"Letterink-NibData" = {
AngleInDegrees = 270;
};
}),
(604,684,l,{
"Letterink-NibData" = {
AngleInDegrees = 180;
};
}),
(566,376,l,{
"Letterink-NibData" = {
AngleInDegrees = 270;
};
}),
(141,376,l),
(164,553,l,{
"Letterink-NibData" = {
AngleInDegrees = 270;
};
}),
(126,553,l,{
"Letterink-NibData" = {
AngleInDegrees = 180;
};
}),
(54,0,l,{
"Letterink-NibData" = {
AngleInDegrees = 90;
};
})
);
}
);
width = 671;
},
{
anchors = (
{
name = bottom;
pos = (325,0);
},
{
name = center;
pos = (388,508);
},
{
name = top;
pos = (409,684);
},
{
name = topleft;
pos = (75,684);
}
);
hints = (
{
name = _corner.left;
origin = (0,10);
type = Corner;
}
);
layerId = m004;
shapes = (
{
closed = 1;
nodes = (
(200,0,l),
(233,270,l,{
"Letterink-NibData" = {
AngleInDegrees = "90";
};
}),
(483,270,l,{
"Letterink-NibData" = {
AngleInDegrees = "180";
};
}),
(450,0,l,{
"Letterink-NibData" = {
AngleInDegrees = "90";
};
}),
(615,0,l),
(699,684,l,{
"Letterink-NibData" = {
AngleInDegrees = "270";
};
}),
(534,684,l,{
"Letterink-NibData" = {
AngleInDegrees = "180";
};
}),
(502,422,l,{
"Letterink-NibData" = {
AngleInDegrees = "270";
};
}),
(252,422,l),
(265,525,l,{
"Letterink-NibData" = {
AngleInDegrees = "270";
};
}),
(99,525,l,{
"Letterink-NibData" = {
AngleInDegrees = "180";
};
}),
(34,0,l,{
"Letterink-NibData" = {
AngleInDegrees = "90";
};
})
);
}
);
width = 708;
},
{
anchors = (
{
name = bottom;
pos = (319,0);
},
{
name = center;
pos = (381,509);
},
{
name = top;
pos = (404,684);
},
{
name = topleft;
pos = (88,684);
}
);
hints = (
{
name = _corner.left;
options = 2;
origin = (0,10);
type = Corner;
}
);
layerId = "E3F1072B-0B24-4A31-98F2-2D5ADE0E752A";
shapes = (
{
closed = 1;
nodes = (
(124,-1,l),
(165,323,l,{
"Letterink-NibData" = {
AngleInDegrees = 90;
};
}),
(553,323,l,{
"Letterink-NibData" = {
AngleInDegrees = 180;
};
}),
(513,-1,l,{
"Letterink-NibData" = {
AngleInDegrees = 90;
};
}),
(585,-1,l),
(669,684,l,{
"Letterink-NibData" = {
AngleInDegrees = 270;
};
}),
(597,684,l,{
"Letterink-NibData" = {
AngleInDegrees = 180;
};
}),
(561,390,l,{
"Letterink-NibData" = {
AngleInDegrees = 270;
};
}),
(173,390,l),
(193,545,l,{
"Letterink-NibData" = {
AngleInDegrees = 270;
};
}),
(121,545,l,{
"Letterink-NibData" = {
AngleInDegrees = 180;
};
}),
(52,-1,l,{
"Letterink-NibData" = {
AngleInDegrees = 90;
};
})
);
}
);
width = 695;
}
);
metricRight = H;
userData = {
position = 525;
width = 61;
};
},
{
glyphname = H.swsh;
kernLeft = Swash;
layers = (
{
anchors = (
{
name = bottom;
pos = (403,0);
},
{
name = center;
pos = (458,450);
},
{
name = top;
pos = (487,684);
},
{
name = topleft;
pos = (154,684);
}
);
hints = (
{
name = _corner.caps_swash_vert;
options = 1;
origin = (0,9);
type = Corner;
}
);
layerId = "49C16FD3-6177-408B-A733-AEB3898BB77C";
shapes = (
{
closed = 1;
nodes = (
(198,1,l),
(240,340,l,{
"Letterink-NibData" = {
AngleInDegrees = 90;
};
}),
(651,340,l,{
"Letterink-NibData" = {
AngleInDegrees = 180;
};
}),
(609,1,l,{
"Letterink-NibData" = {
AngleInDegrees = 90;
};
}),
(647,1,l),
(731,685,l,{
"Letterink-NibData" = {
AngleInDegrees = 270;
};
}),
(693,685,l,{
"Letterink-NibData" = {
AngleInDegrees = 180;
};
}),
(655,376,l,{
"Letterink-NibData" = {
AngleInDegrees = 270;
};
}),
(244,376,l),
(266,558,l,{
"Letterink-NibData" = {
AngleInDegrees = 270;
};
}),
(228,558,l,{
"Letterink-NibData" = {
AngleInDegrees = 180;
};
}),
(160,1,l,{
"Letterink-NibData" = {
AngleInDegrees = 90;
};
})
);
}
);
width = 760;
},
{
anchors = (
{
name = bottom;
pos = (454,0);
},
{
name = center;
pos = (517,512);
},
{
name = top;
pos = (538,684);
},
{
name = topleft;
pos = (213,684);
}
);
hints = (
{
name = _corner.caps_swash_vert;
options = 1;
origin = (0,9);
type = Corner;
}
);
layerId = m004;
shapes = (
{
closed = 1;
nodes = (
(338,0,l),
(372,270,l,{
"Letterink-NibData" = {
AngleInDegrees = "90";
};
}),
(609,270,l,{
"Letterink-NibData" = {
AngleInDegrees = "180";
};
}),
(577,0,l,{
"Letterink-NibData" = {
AngleInDegrees = "90";
};
}),
(742,0,l),
(825,684,l,{
"Letterink-NibData" = {
AngleInDegrees = "270";
};
}),
(660,684,l,{
"Letterink-NibData" = {
AngleInDegrees = "180";
};
}),
(628,422,l,{
"Letterink-NibData" = {
AngleInDegrees = "270";
};
}),
(391,422,l),
(397,472,l,{
"Letterink-NibData" = {
AngleInDegrees = "270";
};
}),
(231,471,l,{
"Letterink-NibData" = {
AngleInDegrees = "180";
};
}),
(172,0,l,{
"Letterink-NibData" = {
AngleInDegrees = "90";
};
})
);
}
);
width = 835;
},
{
anchors = (
{
name = bottom;
pos = (411,0);
},
{
name = center;
pos = (469,472);
},
{
name = top;
pos = (494,677);
},
{
name = topleft;
pos = (140,684);
}
);
hints = (
{
name = _corner.caps_swash_vert;
options = 1;
origin = (0,9);
type = Corner;
}
);
layerId = "E3F1072B-0B24-4A31-98F2-2D5ADE0E752A";
shapes = (
{
closed = 1;
nodes = (
(228,-1,l),
(268,322,l,{
"Letterink-NibData" = {
AngleInDegrees = 90;
};
}),
(628,322,l,{
"Letterink-NibData" = {
AngleInDegrees = 180;
};
}),
(589,-1,l,{
"Letterink-NibData" = {
AngleInDegrees = 90;
};
}),
(660,-1,l),
(744,686,l,{
"Letterink-NibData" = {
AngleInDegrees = 270;
};
}),
(673,686,l,{
"Letterink-NibData" = {
AngleInDegrees = 180;
};
}),
(636,391,l,{
"Letterink-NibData" = {
AngleInDegrees = 270;
};
}),
(276,391,l),
(295,541,l,{
"Letterink-NibData" = {
AngleInDegrees = 270;
};
}),
(222,542,l,{
"Letterink-NibData" = {
AngleInDegrees = 180;
};
}),
(156,-1,l,{
"Letterink-NibData" = {
AngleInDegrees = 90;
};
})
);
}
);
width = 770;
}
);
metricRight = H;
userData = {
position = 554;
width = 61;
};
},
{
glyphname = I;
layers = (
{
anchors = (
{
name = bottom;
pos = (68,0);
},
{
name = center;
pos = (110,343);
},
{
name = ogonek;
pos = (89,1);
},
{
name = top;
pos = (154,685);
},
{
name = topleft;
pos = (66,684);
}
);
layerId = "49C16FD3-6177-408B-A733-AEB3898BB77C";
shapes = (
{
closed = 1;
nodes = (
(89,1,l),
(173,684,l,{
"Letterink-NibData" = {
AngleInDegrees = 270;
};
}),
(135,684,l,{
"Letterink-NibData" = {
AngleInDegrees = 180;
};
}),
(51,1,l,{
"Letterink-NibData" = {
AngleInDegrees = 90;
};
})
);
}
);
width = 202;
},
{
anchors = (
{
name = bottom;
pos = (115,-1);
},
{
name = center;
pos = (157,339);
},
{
name = ogonek;
pos = (197,0);
},
{
name = top;
pos = (198,684);
},
{
name = topleft;
pos = (54,684);
}
);
layerId = m004;
shapes = (
{
closed = 1;
nodes = (
(197,0,l),
(281,684,l,{
"Letterink-NibData" = {
AngleInDegrees = 270;
};
}),
(115,684,l,{
"Letterink-NibData" = {
AngleInDegrees = 180;
};
}),
(31,0,l,{
"Letterink-NibData" = {
AngleInDegrees = 90;
};
})
);
}
);
width = 290;
},
{
anchors = (
{
name = bottom;
pos = (84,0);
},
{
name = center;
pos = (126,341);
},
{
name = ogonek;
pos = (121,-1);
},
{
name = top;
pos = (167,684);
},
{
name = topleft;
pos = (66,684);
}
);
layerId = "E3F1072B-0B24-4A31-98F2-2D5ADE0E752A";
shapes = (
{
closed = 1;
nodes = (
(121,-1,l),
(205,684,l,{
"Letterink-NibData" = {
AngleInDegrees = 270;
};
}),
(132,684,l,{
"Letterink-NibData" = {
AngleInDegrees = 180;
};
}),
(48,-1,l,{
"Letterink-NibData" = {
AngleInDegrees = 90;
};
})
);
}
);
width = 231;
}
);
metricLeft = "=|H";
metricRight = H;
unicode = 73;
userData = {
position = 54;
width = 61;
};
},
{
glyphname = I.swsh;
kernLeft = Swash;
layers = (
{
anchors = (
{
name = bottom;
pos = (251,0);
},
{
name = center;
pos = (250,342);
},
{
name = ogonek;
pos = (273,1);
},
{
name = top;
pos = (250,684);
},
{
name = topleft;
pos = (162,684);
}
);
hints = (
{
name = _corner.caps_swash;
origin = (0,2);
type = Corner;
}
);
layerId = "49C16FD3-6177-408B-A733-AEB3898BB77C";
shapes = (
{
closed = 1;
nodes = (
(267,648,l),
(267,684,l),
(213,684,l),
(213,648,l)
);
},
{
closed = 1;
nodes = (
(218,1,l),
(302,684,l,{
"Letterink-NibData" = {
AngleInDegrees = 270;
};
}),
(264,684,l,{
"Letterink-NibData" = {
AngleInDegrees = 180;
};
}),
(180,1,l,{
"Letterink-NibData" = {
AngleInDegrees = 90;
};
})
);
}
);
width = 331;
},
{
anchors = (
{
name = bottom;
pos = (296,0);
},
{
name = center;
pos = (342,341);
},
{
name = ogonek;
pos = (429,-1);
},
{
name = top;
pos = (383,684);
},
{
name = topleft;
pos = (198,684);
}
);
hints = (
{
name = _corner.caps_swash;
options = 1;
origin = (0,2);
type = Corner;
}
);
layerId = m004;
shapes = (
{
closed = 1;
nodes = (
(402,536,l),
(402,684,l),
(264,684,l,{
"Letterink-NibData" = {
AngleInDegrees = 180;
};
}),
(264,536,l)
);
},
{
closed = 1;
nodes = (
(379,-1,l),
(463,684,l,{
"Letterink-NibData" = {
AngleInDegrees = 270;
};
}),
(297,684,l,{
"Letterink-NibData" = {
AngleInDegrees = 180;
};
}),
(213,-1,l,{
"Letterink-NibData" = {
AngleInDegrees = 90;
};
})
);
}
);
width = 472;
},
{
anchors = (
{
name = bottom;
pos = (239,0);
},
{
name = center;
pos = (270,340);
},
{
name = ogonek;
pos = (314,-1);
},
{
name = top;
pos = (304,684);
},
{
name = topleft;
pos = (175,684);
}
);
hints = (
{
name = _corner.caps_swash;
origin = (0,2);
type = Corner;
}
);
layerId = "E3F1072B-0B24-4A31-98F2-2D5ADE0E752A";
shapes = (
{
closed = 1;
nodes = (
(292,617,l),
(292,684,l),
(230,684,l),
(230,617,l)
);
},
{
closed = 1;
nodes = (
(263,0,l),
(347,684,l,{
"Letterink-NibData" = {
AngleInDegrees = 270;
};
}),
(274,684,l,{
"Letterink-NibData" = {
AngleInDegrees = 180;
};
}),
(190,0,l,{
"Letterink-NibData" = {
AngleInDegrees = 90;
};
})
);
}
);
width = 373;
}
);
metricLeft = E.swsh;
metricRight = H;
userData = {
position = 54;
width = 61;
};
},
{
glyphname = IJ;
kernRight = J;
layers = (
{
anchors = (
{
name = bottom;
pos = (354,0);
},
{
name = top;
pos = (370,684);
}
);
layerId = "49C16FD3-6177-408B-A733-AEB3898BB77C";
shapes = (
{
closed = 1;
nodes = (
(425,-6,o),
(520,81,o),
(537,218,cs),
(595,687,l,{
"Letterink-NibData" = {
AngleInDegrees = "268.5679";
};
}),
(559,687,l,{
"Letterink-NibData" = {
AngleInDegrees = "184.66686";
};
}),
(553,656,l),
(500,223,ls,{
"Letterink-NibData" = {
AngleInDegrees = "180";
};
}),
(485,104,o),
(403,30,o),
(291,30,cs,{
"Letterink-NibData" = {
AngleInDegrees = "270";
};
}),
(191,30,o),
(129,84,o),
(131,176,c),
(93,173,l),
(89,65,o),
(163,-6,o),
(291,-6,cs,{
"Letterink-NibData" = {
AngleInDegrees = "90";
};
})
);
},
{
alignment = -1;
pos = (33,264);
ref = I;
scale = (1,0.6157);
slant = (-4.3232,0);
},
{
closed = 1;
nodes = (
(544,675,o),
(522,666,o),
(494,666,cs),
(453,666,o),
(433,696,o),
(376,696,cs),
(342,696,o),
(300,683,o),
(273,663,c),
(293,633,l),
(313,648,o),
(346,660,o),
(375,660,cs),
(414,660,o),
(435,630,o),
(493,630,cs),
(535,630,o),
(577,649,o),
(594,686,c),
(555,688,l)
);
}
);
width = 615;
},
{
anchors = (
{
name = bottom;
pos = (377,0);
},
{
name = top;
pos = (352,684);
}
);
layerId = m004;
shapes = (
{
closed = 1;
nodes = (
(489,-27,o),
(610,73,o),
(630,240,cs),
(684,684,l,{
"Letterink-NibData" = {
AngleInDegrees = "270";
};
}),
(561,684,l,{
"Letterink-NibData" = {
AngleInDegrees = "211.6075";
};
}),
(512,632,l),
(466,251,ls,{
"Letterink-NibData" = {
AngleInDegrees = "180";
};
}),
(459,191,o),
(404,125,o),
(322,125,cs,{
"Letterink-NibData" = {
AngleInDegrees = "270";
};
}),
(259,125,o),
(207,161,o),
(210,221,c),
(58,216,l),
(48,81,o),
(144,-27,o),
(317,-27,cs,{
"Letterink-NibData" = {
AngleInDegrees = "90";
};
})
);
},
{
pos = (37,300);
ref = I;
scale = (1,0.5611);
slant = (-3.9411,0);
},
{
closed = 1;
nodes = (
(543,680,o),
(528,668,o),
(510,668,cs),
(492,668,o),
(459,703,o),
(403,703,cs),
(374,703,o),
(338,694,o),
(301,668,c),
(359,536,l),
(374,550,o),
(383,555,o),
(398,555,cs),
(422,555,o),
(451,520,o),
(504,520,cs),
(578,520,o),
(672,595,o),
(684,680,c),
(546,688,l)
);
}
);
width = 688;
},
{
anchors = (
{
name = bottom;
pos = (352,0);
},
{
name = top;
pos = (356,684);
}
);
layerId = "E3F1072B-0B24-4A31-98F2-2D5ADE0E752A";
shapes = (
{
closed = 1;
nodes = (
(444,-11,o),
(546,73,o),
(566,230,cs),
(621,685,l,{
"Letterink-NibData" = {
AngleInDegrees = "268.5679";
};
}),
(555,685,l,{
"Letterink-NibData" = {
AngleInDegrees = "184.66686";
};
}),
(545,654,l),
(495,240,ls,{
"Letterink-NibData" = {
AngleInDegrees = "180";
};
}),
(480,119,o),
(405,55,o),
(302,55,cs,{
"Letterink-NibData" = {
AngleInDegrees = "270";
};
}),
(201,55,o),
(155,126,o),
(160,190,c),
(90,184,l),
(81,78,o),
(160,-11,o),
(298,-11,cs,{
"Letterink-NibData" = {
AngleInDegrees = "90";
};
})
);
},
{
alignment = -1;
pos = (35,280);
ref = I;
scale = (1,0.5916);
slant = (-4.1545,0);
},
{
closed = 1;
nodes = (
(540,677,o),
(524,670,o),
(500,670,cs),
(469,670,o),
(449,701,o),
(395,701,cs),
(359,701,o),
(319,691,o),
(278,664,c),
(314,608,l),
(341,627,o),
(364,634,o),
(393,634,cs),
(423,634,o),
(443,603,o),
(498,603,cs),
(553,603,o),
(607,636,o),
(621,683,c),
(550,686,l)
);
}
);
width = 639;
}
);
metricLeft = I;
metricRight = J;
unicode = 306;
userData = {
position = 507;
width = 53;
};
},
{
glyphname = IJ.ss01;
kernRight = J;
layers = (
{
layerId = "49C16FD3-6177-408B-A733-AEB3898BB77C";
shapes = (
{
closed = 1;
nodes = (
(424,-6,o),
(517,79,o),
(533,213,cs),
(591,685,l,{
"Letterink-NibData" = {
AngleInDegrees = 268.5679;
};
}),
(553,684,l,{
"Letterink-NibData" = {
AngleInDegrees = 184.66686;
};
}),
(496,218,ls,{
"Letterink-NibData" = {
AngleInDegrees = 180;
};
}),
(482,102,o),
(402,30,o),
(293,30,cs,{
"Letterink-NibData" = {
AngleInDegrees = 270;
};
}),
(204,30,o),
(141,84,o),
(143,176,c),
(105,173,l),
(100,65,o),
(171,-6,o),
(293,-6,cs,{
"Letterink-NibData" = {
AngleInDegrees = 90;
};
})
);
},
{
alignment = -1;
pos = (37,234);
ref = I;
scale = (1,0.6583);
slant = (-4.6211,0);
}
);
width = 612;
},
{
layerId = m004;
shapes = (
{
closed = 1;
nodes = (
(461,-22,o),
(565,74,o),
(585,235,cs),
(640,684,l,{
"Letterink-NibData" = {
AngleInDegrees = "270";
};
}),
(475,684,l,{
"Letterink-NibData" = {
AngleInDegrees = "211.6075";
};
}),
(421,246,ls,{
"Letterink-NibData" = {
AngleInDegrees = "180";
};
}),
(415,191,o),
(374,130,o),
(303,130,cs,{
"Letterink-NibData" = {
AngleInDegrees = "270";
};
}),
(239,130,o),
(216,166,o),
(223,226,c),
(68,221,l),
(44,86,o),
(125,-22,o),
(298,-22,cs,{
"Letterink-NibData" = {
AngleInDegrees = "90";
};
})
);
},
{
pos = (33,275);
ref = I;
scale = (1,0.5969);
slant = (-4.1917,0);
}
);
width = 643;
},
{
layerId = "E3F1072B-0B24-4A31-98F2-2D5ADE0E752A";
shapes = (
{
closed = 1;
nodes = (
(414,-11,o),
(511,73,o),
(528,211,cs),
(586,684,l,{
"Letterink-NibData" = {
AngleInDegrees = 268.5679;
};
}),
(514,684,l,{
"Letterink-NibData" = {
AngleInDegrees = 184.66686;
};
}),
(457,217,ls,{
"Letterink-NibData" = {
AngleInDegrees = 180;
};
}),
(445,118,o),
(375,55,o),
(279,55,cs,{
"Letterink-NibData" = {
AngleInDegrees = 270;
};
}),
(191,55,o),
(149,113,o),
(154,174,c),
(83,168,l),
(74,69,o),
(148,-11,o),
(275,-11,cs,{
"Letterink-NibData" = {
AngleInDegrees = 90;
};
})
);
},
{
alignment = -1;
pos = (36,239);
ref = I;
scale = (1,0.6504);
slant = (-4.566,0);
}
);
width = 604;
}
);
metricLeft = I;
metricRight = J;
userData = {
position = 507;
width = 53;
};
},
{
glyphname = J;
kernLeft = J;
kernRight = J;
layers = (
{
anchors = (
{
name = bottom;
pos = (256,0);
},
{
name = top;
pos = (272,684);
}
);
layerId = "49C16FD3-6177-408B-A733-AEB3898BB77C";
shapes = (
{
closed = 1;
nodes = (
(304,-6,o),
(391,71,o),
(406,193,cs),
(466,688,l,{
"Letterink-NibData" = {
AngleInDegrees = "270";
};
}),
(421,689,l,{
"Letterink-NibData" = {
AngleInDegrees = "209.35776";
};
}),
(409,672,o),
(380,660,o),
(357,660,cs,{
"Letterink-NibData" = {
AngleInDegrees = "270";
};
}),
(317,660,o),
(262,696,o),
(218,696,cs,{
"Letterink-NibData" = {
AngleInDegrees = "270";
};
}),
(194,696,o),
(169,696,o),
(120,672,c,{
"Letterink-NibData" = {
AngleInDegrees = "153.43495";
};
}),
(134,640,l,{
"Letterink-NibData" = {
AngleInDegrees = 70.82099;
};
}),
(153,650,o),
(182,661,o),
(213,661,cs,{
"Letterink-NibData" = {
AngleInDegrees = "90";
};
}),
(276,661,o),
(290,625,o),
(354,625,cs,{
"Letterink-NibData" = {
AngleInDegrees = "90";
};
}),
(381,625,o),
(405,631,o),
(424,649,c,{
"Letterink-NibData" = {
AngleInDegrees = "180";
};
}),
(368,198,ls,{
"Letterink-NibData" = {
AngleInDegrees = "180";
};
}),
(355,94,o),
(285,29,o),
(187,29,cs,{
"Letterink-NibData" = {
AngleInDegrees = "270";
};
}),
(86,29,o),
(42,87,o),
(49,167,c,{
"Letterink-NibData" = {
AngleInDegrees = "275.5722";
};
}),
(13,169,l,{
"Letterink-NibData" = {
AngleInDegrees = "176.71075";
};
}),
(7,63,o),
(69,-6,o),
(183,-6,cs,{
"Letterink-NibData" = {
AngleInDegrees = "90";
};
})
);
}
);
width = 487;
},
{
anchors = (
{
name = bottom;
pos = (272,0);
},
{
name = top;
pos = (331,684);
}
);
layerId = m004;
shapes = (
{
closed = 1;
nodes = (
(379,-22,o),
(482,66,o),
(500,213,cs),
(560,699,l,{
"Letterink-NibData" = {
AngleInDegrees = 270;
};
}),
(449,700,l,{
"Letterink-NibData" = {
AngleInDegrees = 211.6075;
};
}),
(431,685,o),
(404,674,o),
(378,674,cs,{
"Letterink-NibData" = {
AngleInDegrees = 270;
};
}),
(342,674,o),
(306,696,o),
(235,696,cs,{
"Letterink-NibData" = {
AngleInDegrees = 270;
};
}),
(183,696,o),
(150,688,o),
(99,655,c,{
"Letterink-NibData" = {
AngleInDegrees = 153.09391;
};
}),
(157,519,l,{
"Letterink-NibData" = {
AngleInDegrees = 67.52057;
};
}),
(183,532,o),
(214,541,o),
(244,541,cs,{
"Letterink-NibData" = {
AngleInDegrees = 90;
};
}),
(282,541,o),
(304,524,o),
(337,524,cs,{
"Letterink-NibData" = {
AngleInDegrees = 90;
};
}),
(355,524,o),
(370,526,o),
(374,530,c,{
"Letterink-NibData" = {
AngleInDegrees = 180;
};
}),
(334,224,ls,{
"Letterink-NibData" = {
AngleInDegrees = 180;
};
}),
(327,172,o),
(291,122,o),
(233,122,cs,{
"Letterink-NibData" = {
AngleInDegrees = 270;
};
}),
(176,122,o),
(149,159,o),
(158,233,c,{
"Letterink-NibData" = {
AngleInDegrees = 274.39871;
};
}),
(7,241,l,{
"Letterink-NibData" = {
AngleInDegrees = 181.88819;
};
}),
(-21,98,o),
(60,-22,o),
(228,-22,cs,{
"Letterink-NibData" = {
AngleInDegrees = 90;
};
})
);
}
);
width = 561;
},
{
anchors = (
{
name = bottom;
pos = (227,0);
},
{
name = top;
pos = (296,684);
}
);
layerId = "E3F1072B-0B24-4A31-98F2-2D5ADE0E752A";
shapes = (
{
closed = 1;
nodes = (
(322,-7,o),
(412,71,o),
(428,199,cs),
(488,689,l,{
"Letterink-NibData" = {
AngleInDegrees = "270";
};
}),
(422,691,l,{
"Letterink-NibData" = {
AngleInDegrees = "209.35776";
};
}),
(412,677,o),
(381,662,o),
(358,662,cs,{
"Letterink-NibData" = {
AngleInDegrees = "270";
};
}),
(318,662,o),
(284,698,o),
(233,698,cs,{
"Letterink-NibData" = {
AngleInDegrees = "270";
};
}),
(202,698,o),
(170,694,o),
(113,667,c,{
"Letterink-NibData" = {
AngleInDegrees = "153.43495";
};
}),
(139,606,l,{
"Letterink-NibData" = {
AngleInDegrees = 70.82099;
};
}),
(167,618,o),
(197,629,o),
(224,629,cs,{
"Letterink-NibData" = {
AngleInDegrees = "90";
};
}),
(274,629,o),
(303,596,o),
(352,596,cs,{
"Letterink-NibData" = {
AngleInDegrees = "90";
};
}),
(374,596,o),
(391,598,o),
(406,606,c,{
"Letterink-NibData" = {
AngleInDegrees = "180";
};
}),
(356,206,ls,{
"Letterink-NibData" = {
AngleInDegrees = "180";
};
}),
(344,116,o),
(284,58,o),
(200,58,cs,{
"Letterink-NibData" = {
AngleInDegrees = "270";
};
}),
(115,58,o),
(73,110,o),
(85,186,c,{
"Letterink-NibData" = {
AngleInDegrees = "275.5722";
};
}),
(17,190,l,{
"Letterink-NibData" = {
AngleInDegrees = "176.71075";
};
}),
(1,71,o),
(69,-7,o),
(195,-7,cs,{
"Letterink-NibData" = {
AngleInDegrees = "90";
};
})
);
}
);
width = 505;
}
);
metricRight = "=H*.9";
unicode = 74;
userData = {
position = 333;
width = 53;
};
},
{
glyphname = J.ss01;
kernLeft = Jtext;
kernRight = J;
layers = (
{
anchors = (
{
name = bottom;
pos = (173,-6);
},
{
name = top;
pos = (451,684);
}
);
layerId = "49C16FD3-6177-408B-A733-AEB3898BB77C";
shapes = (
{
closed = 1;
nodes = (
(306,-6,o),
(394,77,o),
(411,209,cs),
(469,685,l,{
"Letterink-NibData" = {
AngleInDegrees = 268.5679;
};
}),
(429,684,l,{
"Letterink-NibData" = {
AngleInDegrees = 184.66686;
};
}),
(375,214,ls,{
"Letterink-NibData" = {
AngleInDegrees = 180;
};
}),
(361,99,o),
(284,29,o),
(182,29,cs,{
"Letterink-NibData" = {
AngleInDegrees = 270;
};
}),
(90,29,o),
(35,79,o),
(45,189,c,{
"Letterink-NibData" = {
AngleInDegrees = 275.19443;
};
}),
(10,191,l,{
"Letterink-NibData" = {
AngleInDegrees = 178.68309;
};
}),
(-4,73,o),
(62,-6,o),
(182,-6,cs,{
"Letterink-NibData" = {
AngleInDegrees = 90;
};
})
);
}
);
width = 490;
},
{
anchors = (
{
name = bottom;
pos = (210,-5);
},
{
name = top;
pos = (441,684);
}
);
layerId = m004;
shapes = (
{
closed = 1;
nodes = (
(355,-22,o),
(453,70,o),
(472,223,cs),
(528,686,l,{
"Letterink-NibData" = {
AngleInDegrees = "270";
};
}),
(362,686,l,{
"Letterink-NibData" = {
AngleInDegrees = "180";
};
}),
(307,234,ls,{
"Letterink-NibData" = {
AngleInDegrees = "180";
};
}),
(300,169,o),
(265,123,o),
(214,123,cs,{
"Letterink-NibData" = {
AngleInDegrees = "270";
};
}),
(155,123,o),
(144,173,o),
(153,220,c,{
"Letterink-NibData" = {
AngleInDegrees = "274.39871";
};
}),
(4,228,l,{
"Letterink-NibData" = {
AngleInDegrees = "181.88819";
};
}),
(-25,93,o),
(51,-22,o),
(207,-22,cs,{
"Letterink-NibData" = {
AngleInDegrees = "90";
};
})
);
}
);
width = 532;
},
{
anchors = (
{
name = bottom;
pos = (188,-8);
},
{
name = top;
pos = (455,684);
}
);
layerId = "E3F1072B-0B24-4A31-98F2-2D5ADE0E752A";
shapes = (
{
closed = 1;
nodes = (
(327,-10,o),
(418,73,o),
(436,221,cs),
(493,684,l,{
"Letterink-NibData" = {
AngleInDegrees = 268.5679;
};
}),
(420,684,l,{
"Letterink-NibData" = {
AngleInDegrees = 184.66686;
};
}),
(365,227,ls,{
"Letterink-NibData" = {
AngleInDegrees = 180;
};
}),
(351,114,o),
(284,56,o),
(207,56,cs,{
"Letterink-NibData" = {
AngleInDegrees = 270;
};
}),
(111,56,o),
(65,98,o),
(79,205,c,{
"Letterink-NibData" = {
AngleInDegrees = 275.19443;
};
}),
(13,209,l,{
"Letterink-NibData" = {
AngleInDegrees = 178.68309;
};
}),
(-6,76,o),
(57,-10,o),
(198,-10,cs,{
"Letterink-NibData" = {
AngleInDegrees = 90;
};
})
);
}
);
width = 511;
}
);
metricLeft = "=J*.75";
metricRight = J;
userData = {
position = 333;
width = 53;
};
},
{
glyphname = J.swsh;
kernLeft = J;
kernRight = J;
layers = (
{
anchors = (
{
name = bottom;
pos = (225,0);
},
{
name = top;
pos = (308,684);
}
);
layerId = "49C16FD3-6177-408B-A733-AEB3898BB77C";
shapes = (
{
closed = 1;
nodes = (
(67,489,o),
(182,447,o),
(239,519,c),
(216,541,l),
(202,525,o),
(186,516,o),
(172,516,cs),
(132,516,o),
(110,548,o),
(113,590,cs),
(117,628,o),
(159,666,o),
(220,666,cs),
(293,666,o),
(349,579,o),
(469,658,c),
(454,686,l,{
"Letterink-NibData" = {
AngleInDegrees = 180;
};
}),
(356,626,o),
(318,702,o),
(220,702,cs),
(140,702,o),
(83,645,o),
(77,590,cs)
);
},
{
closed = 1;
nodes = (
(13,170,l),
(12,62,o),
(80,-6,o),
(192,-6,cs,{
"Letterink-NibData" = {
AngleInDegrees = 90;
};
}),
(320,-6,o),
(411,76,o),
(427,203,cs),
(486,686,l,{
"Letterink-NibData" = {
AngleInDegrees = 270;
};
}),
(454,686,l,{
"Letterink-NibData" = {
AngleInDegrees = 180;
};
}),
(444,662,l),
(389,208,ls,{
"Letterink-NibData" = {
AngleInDegrees = 180;
};
}),
(376,98,o),
(303,29,o),
(199,29,cs,{
"Letterink-NibData" = {
AngleInDegrees = 270;
};
}),
(105,29,o),
(44,88,o),
(49,171,c)
);
}
);
width = 507;
},
{
anchors = (
{
name = bottom;
pos = (271,0);
},
{
name = top;
pos = (280,692);
}
);
layerId = m004;
shapes = (
{
closed = 1;
nodes = (
(42,382,o),
(218,318,o),
(328,434,c),
(222,522,l),
(219,518,o),
(212,513,o),
(205,513,cs),
(197,513,o),
(191,518,o),
(192,529,cs),
(194,548,o),
(213,560,o),
(241,560,cs),
(299,560,o),
(362,490,o),
(492,581,c),
(415,677,l,{
"Letterink-NibData" = {
AngleInDegrees = 211.6075;
};
}),
(381,654,o),
(315,700,o),
(229,703,cs),
(112,707,o),
(42,618,o),
(42,524,cs)
);
},
{
closed = 1;
nodes = (
(15,223,l),
(-13,99,o),
(59,-23,o),
(229,-23,cs,{
"Letterink-NibData" = {
AngleInDegrees = 90;
};
}),
(377,-23,o),
(479,63,o),
(496,204,cs),
(554,677,l,{
"Letterink-NibData" = {
AngleInDegrees = 270;
};
}),
(415,677,l,{
"Letterink-NibData" = {
AngleInDegrees = 211.6075;
};
}),
(368,536,l),
(332,215,ls,{
"Letterink-NibData" = {
AngleInDegrees = 180;
};
}),
(326,162,o),
(293,121,o),
(237,121,cs,{
"Letterink-NibData" = {
AngleInDegrees = 270;
};
}),
(182,121,o),
(155,162,o),
(166,228,c)
);
}
);
width = 558;
},
{
anchors = (
{
name = bottom;
pos = (235,0);
},
{
name = top;
pos = (319,684);
}
);
layerId = "E3F1072B-0B24-4A31-98F2-2D5ADE0E752A";
shapes = (
{
closed = 1;
nodes = (
(55,461,o),
(188,420,o),
(250,498,c),
(201,542,l),
(192,532,o),
(181,525,o),
(171,525,cs),
(150,525,o),
(135,546,o),
(138,573,cs),
(142,605,o),
(174,636,o),
(222,636,cs),
(282,636,o),
(356,553,o),
(485,636,c),
(447,685,l,{
"Letterink-NibData" = {
AngleInDegrees = 180;
};
}),
(351,629,o),
(336,703,o),
(224,703,cs),
(140,703,o),
(78,638,o),
(70,575,cs)
);
},
{
closed = 1;
nodes = (
(16,187,l),
(6,66,o),
(78,-11,o),
(203,-11,cs,{
"Letterink-NibData" = {
AngleInDegrees = 90;
};
}),
(336,-11,o),
(429,71,o),
(446,205,cs),
(505,685,l,{
"Letterink-NibData" = {
AngleInDegrees = 270;
};
}),
(448,685,l,{
"Letterink-NibData" = {
AngleInDegrees = 180;
};
}),
(426,634,l),
(375,212,ls,{
"Letterink-NibData" = {
AngleInDegrees = 180;
};
}),
(364,117,o),
(303,54,o),
(210,54,cs,{
"Letterink-NibData" = {
AngleInDegrees = 270;
};
}),
(125,54,o),
(73,108,o),
(84,190,c)
);
}
);
width = 523;
}
);
metricLeft = J;
metricRight = J;
userData = {
position = 333;
width = 53;
};
},
{
glyphname = K;
kernLeft = E;
kernRight = K;
layers = (
{
anchors = (
{
name = bottom;
pos = (302,0);
},
{
name = top;
pos = (386,684);
}
);
hints = (
{
name = _corner.caps_vert;
origin = (1,1);
type = Corner;
}
);
layerId = "49C16FD3-6177-408B-A733-AEB3898BB77C";
shapes = (
{
closed = 1;
nodes = (
(594,-5,o),
(614,18,o),
(621,26,c),
(598,48,l),
(588,37,o),
(577,31,o),
(562,31,cs),
(535,31,o),
(523,53,o),
(503,97,cs),
(455,204,o),
(471,342,o),
(279,379,c),
(269,343,l),
(424,319,o),
(415,198,o),
(469,75,cs),
(481,48,o),
(503,-5,o),
(554,-5,cs)
);
},
{
closed = 1;
nodes = (
(159,2,l,{
"Letterink-NibData" = {
AngleInDegrees = 359.89895;
};
}),
(232,598,l,{
"Letterink-NibData" = {
AngleInDegrees = 270;
};
}),
(194,598,l,{
"Letterink-NibData" = {
AngleInDegrees = 180;
};
}),
(121,2,l,{
"Letterink-NibData" = {
AngleInDegrees = 90;
};
})
);
},
{
closed = 1;
nodes = (
(273,343,l),
(488,343,o),
(559,517,o),
(614,684,c),
(575,684,l),
(531,554,o),
(475,380,o),
(279,380,c),
(184,380,l),
(179,343,l)
);
}
);
width = 663;
},
{
anchors = (
{
name = bottom;
pos = (372,0);
},
{
name = top;
pos = (453,684);
}
);
hints = (
{
name = _corner.caps_vert;
origin = (1,1);
type = Corner;
}
);
layerId = m004;
shapes = (
{
closed = 1;
nodes = (
(641,-24,o),
(687,-2,o),
(725,42,c),
(640,126,l),
(637,122,o),
(633,119,o),
(624,119,cs),
(612,119,o),
(596,144,o),
(587,180,cs),
(574,235,o),
(560,371,o),
(383,384,c),
(343,287,l),
(419,273,o),
(417,175,o),
(438,93,cs),
(457,21,o),
(507,-24,o),
(587,-24,cs)
);
},
{
closed = 1;
nodes = (
(278,-4,l),
(341,528,l,{
"Letterink-NibData" = {
AngleInDegrees = 270;
};
}),
(176,528,l,{
"Letterink-NibData" = {
AngleInDegrees = 180;
};
}),
(111,-4,l,{
"Letterink-NibData" = {
AngleInDegrees = 90;
};
})
);
},
{
closed = 1;
nodes = (
(322,287,l),
(581,287,o),
(662,488,o),
(722,684,c),
(557,684,l),
(516,560,o),
(467,425,o),
(336,425,c),
(237,425,l),
(220,287,l)
);
}
);
width = 745;
},
{
anchors = (
{
name = bottom;
pos = (303,2);
},
{
name = top;
pos = (387,684);
}
);
hints = (
{
name = _corner.caps_vert;
origin = (1,1);
type = Corner;
}
);
layerId = "E3F1072B-0B24-4A31-98F2-2D5ADE0E752A";
shapes = (
{
closed = 1;
nodes = (
(602,-17,o),
(624,4,o),
(639,21,c),
(597,61,l),
(590,53,o),
(582,49,o),
(570,49,cs),
(548,49,o),
(533,69,o),
(518,104,cs),
(476,207,o),
(499,364,o),
(286,381,c),
(275,324,l),
(424,301,o),
(402,186,o),
(451,68,cs),
(468,26,o),
(503,-17,o),
(558,-17,cs)
);
},
{
closed = 1;
nodes = (
(183,0,l,{
"Letterink-NibData" = {
AngleInDegrees = 359.89895;
};
}),
(255,586,l,{
"Letterink-NibData" = {
AngleInDegrees = 270;
};
}),
(183,586,l,{
"Letterink-NibData" = {
AngleInDegrees = 180;
};
}),
(111,0,l,{
"Letterink-NibData" = {
AngleInDegrees = 90;
};
})
);
},
{
closed = 1;
nodes = (
(276,324,l),
(523,327,o),
(572,521,o),
(633,684,c),
(559,684,l),
(502,533,o),
(471,390,o),
(287,390,c),
(180,390,l),
(172,324,l)
);
}
);
width = 678;
}
);
metricLeft = H;
unicode = 75;
userData = {
position = 542;
width = 57;
};
},
{
glyphname = K.ss01;
kernRight = K;
layers = (
{
anchors = (
{
name = bottom;
pos = (255,0);
},
{
name = top;
pos = (338,684);
}
);
layerId = "49C16FD3-6177-408B-A733-AEB3898BB77C";
shapes = (
{
closed = 1;
nodes = (
(89,1,l,{
"Letterink-NibData" = {
AngleInDegrees = 359.91599;
};
}),
(173,684,l,{
"Letterink-NibData" = {
AngleInDegrees = 270;
};
}),
(135,684,l,{
"Letterink-NibData" = {
AngleInDegrees = 180;
};
}),
(51,1,l,{
"Letterink-NibData" = {
AngleInDegrees = 90;
};
})
);
},
{
closed = 1;
nodes = (
(208,343,l),
(415,343,o),
(504,517,o),
(559,684,c),
(520,684,l),
(476,554,o),
(410,380,o),
(214,380,c),
(119,380,l),
(114,343,l)
);
},
{
closed = 1;
nodes = (
(467,45,o),
(437,135,o),
(405,213,c),
(369,299,o),
(330,373,o),
(227,373,c),
(223,343,l),
(304,343,o),
(334,279,o),
(369,195,c),
(401,118,o),
(436,11,o),
(532,-10,c),
(544,28,l)
);
}
);
width = 585;
},
{
anchors = (
{
name = bottom;
pos = (299,0);
},
{
name = top;
pos = (383,684);
}
);
layerId = m004;
shapes = (
{
closed = 1;
nodes = (
(196,0,l),
(280,684,l,{
"Letterink-NibData" = {
AngleInDegrees = 270;
};
}),
(115,684,l,{
"Letterink-NibData" = {
AngleInDegrees = 180;
};
}),
(31,0,l,{
"Letterink-NibData" = {
AngleInDegrees = 90;
};
})
);
},
{
closed = 1;
nodes = (
(269,287,ls),
(528,287,o),
(611,488,o),
(671,684,c),
(506,684,l),
(463,560,o),
(414,425,o),
(283,425,cs),
(184,425,l),
(167,287,l)
);
},
{
closed = 1;
nodes = (
(578,136,o),
(551,162,o),
(501,275,cs),
(462,364,o),
(379,418,o),
(275,418,c),
(259,287,l),
(299,283,o),
(327,244,o),
(357,166,cs),
(399,57,o),
(475,-15,o),
(565,-32,c),
(617,130,l)
);
}
);
width = 647;
},
{
anchors = (
{
name = bottom;
pos = (404,0);
},
{
name = top;
pos = (387,684);
}
);
associatedMasterId = m004;
layerId = "08C25A10-20A5-46B3-A5E8-5B31FFDBA5A3";
name = "Oct 30, 24 at 08:42";
shapes = (
{
closed = 1;
nodes = (
(284,0,l),
(284,684,l,{
"Letterink-NibData" = {
AngleInDegrees = 270;
};
}),
(119,684,l,{
"Letterink-NibData" = {
AngleInDegrees = 180;
};
}),
(119,0,l,{
"Letterink-NibData" = {
AngleInDegrees = 90;
};
})
);
},
{
closed = 1;
nodes = (
(695,135,l),
(669,135,o),
(654,142,o),
(635,173,cs),
(579,264,o),
(518,376,o),
(478,416,c),
(362,312,l),
(375,298,o),
(440,182,o),
(500,85,cs),
(533,32,o),
(583,-23,o),
(695,-23,c)
);
},
{
closed = 1;
nodes = (
(342,287,l),
(601,287,o),
(659,488,o),
(695,684,c),
(530,684,l),
(497,560,o),
(470,425,o),
(339,425,c),
(240,425,l),
(240,287,l)
);
},
{
closed = 0;
nodes = (
(370,373,l),
(435,365,o),
(465,301,o),
(511,220,cs),
(553,146,o),
(604,63,o),
(693,45,c)
);
}
);
width = 719;
},
{
anchors = (
{
name = bottom;
pos = (270,0);
},
{
name = top;
pos = (354,684);
}
);
layerId = "E3F1072B-0B24-4A31-98F2-2D5ADE0E752A";
shapes = (
{
closed = 1;
nodes = (
(120,0,l,{
"Letterink-NibData" = {
AngleInDegrees = 359.91599;
};
}),
(204,684,l,{
"Letterink-NibData" = {
AngleInDegrees = 270;
};
}),
(132,684,l,{
"Letterink-NibData" = {
AngleInDegrees = 180;
};
}),
(48,0,l,{
"Letterink-NibData" = {
AngleInDegrees = 90;
};
})
);
},
{
closed = 1;
nodes = (
(228,325,l),
(439,327,o),
(525,521,o),
(586,684,c),
(513,684,l),
(456,534,o),
(390,390,o),
(237,390,c),
(131,390,l),
(123,324,l)
);
},
{
closed = 1;
nodes = (
(485,73,o),
(457,153,o),
(424,228,c),
(387,313,o),
(336,377,o),
(238,381,c),
(231,325,l),
(291,321,o),
(323,270,o),
(357,193,c),
(390,119,o),
(427,10,o),
(531,-12,c),
(554,58,l)
);
}
);
width = 595;
}
);
metricLeft = "=|H";
userData = {
position = 542;
width = 57;
};
},
{
glyphname = K.swsh;
kernLeft = Swash;
kernRight = K;
layers = (
{
anchors = (
{
name = bottom;
pos = (335,0);
},
{
name = top;
pos = (421,684);
}
);
hints = (
{
name = _corner.caps_swash_vert;
origin = (1,1);
type = Corner;
}
);
layerId = "49C16FD3-6177-408B-A733-AEB3898BB77C";
shapes = (
{
closed = 1;
nodes = (
(646,-9,o),
(682,10,o),
(697,45,c),
(665,54,l),
(657,39,o),
(642,27,o),
(615,27,cs),
(584,27,o),
(561,61,o),
(549,91,cs),
(506,197,o),
(509,357,o),
(340,377,c),
(336,344,l),
(472,326,o),
(468,186,o),
(515,71,cs),
(532,27,o),
(566,-9,o),
(611,-9,cs)
);
},
{
closed = 1;
nodes = (
(202,0,l),
(270,576,l,{
"Letterink-NibData" = {
AngleInDegrees = 270;
};
}),
(232,576,l,{
"Letterink-NibData" = {
AngleInDegrees = 180;
};
}),
(161,0,l,{
"Letterink-NibData" = {
AngleInDegrees = 90;
};
})
);
},
{
closed = 1;
nodes = (
(313,343,l),
(528,343,o),
(609,517,o),
(664,684,c),
(625,684,l),
(581,554,o),
(515,380,o),
(319,380,c),
(224,380,l),
(219,343,l)
);
}
);
width = 737;
},
{
anchors = (
{
name = bottom;
pos = (456,0);
},
{
name = top;
pos = (534,684);
}
);
hints = (
{
name = _corner.caps_swash_vert;
origin = (1,1);
type = Corner;
}
);
layerId = m004;
shapes = (
{
closed = 1;
nodes = (
(747,-31,o),
(825,8,o),
(848,98,c),
(715,132,l),
(713,128,o),
(709,124,o),
(703,124,cs),
(687,124,o),
(678,146,o),
(672,167,cs),
(648,239,o),
(630,373,o),
(475,413,c),
(422,286,l),
(482,269,o),
(504,161,o),
(531,83,cs),
(558,7,o),
(615,-31,o),
(688,-31,cs)
);
},
{
closed = 1;
nodes = (
(347,0,l),
(406,507,l,{
"Letterink-NibData" = {
AngleInDegrees = 270;
};
}),
(241,507,l,{
"Letterink-NibData" = {
AngleInDegrees = 180;
};
}),
(179,0,l,{
"Letterink-NibData" = {
AngleInDegrees = 90;
};
})
);
},
{
closed = 1;
nodes = (
(432,286,l),
(617,285,o),
(735,488,o),
(795,684,c),
(630,684,l),
(589,560,o),
(538,425,o),
(424,425,c),
(308,425,l),
(291,287,l)
);
}
);
width = 865;
},
{
anchors = (
{
name = bottom;
pos = (347,0);
},
{
name = top;
pos = (430,684);
}
);
hints = (
{
name = _corner.caps_swash_vert;
origin = (1,1);
type = Corner;
}
);
layerId = "E3F1072B-0B24-4A31-98F2-2D5ADE0E752A";
shapes = (
{
closed = 1;
nodes = (
(670,-17,o),
(711,10,o),
(726,49,c),
(666,69,l),
(660,56,o),
(648,49,o),
(633,49,cs),
(613,49,o),
(598,64,o),
(580,106,cs),
(536,208,o),
(530,375,o),
(355,385,c),
(347,326,l),
(463,310,o),
(464,186,o),
(514,71,cs),
(540,10,o),
(581,-17,o),
(625,-17,cs)
);
},
{
closed = 1;
nodes = (
(231,0,l),
(300,564,l,{
"Letterink-NibData" = {
AngleInDegrees = 270;
};
}),
(228,564,l,{
"Letterink-NibData" = {
AngleInDegrees = 180;
};
}),
(159,0,l,{
"Letterink-NibData" = {
AngleInDegrees = 90;
};
})
);
},
{
closed = 1;
nodes = (
(322,324,l),
(570,327,o),
(621,521,o),
(682,684,c),
(608,684,l),
(551,533,o),
(517,390,o),
(334,390,c),
(226,390,l),
(218,324,l)
);
}
);
width = 764;
}
);
metricLeft = H.swsh;
userData = {
position = 542;
width = 57;
};
},
{
glyphname = L;
kernRight = L;
layers = (
{
anchors = (
{
name = bottom;
pos = (246,0);
},
{
name = center;
pos = (125,379);
},
{
name = top;
pos = (154,683);
},
{
name = topright;
pos = (324,461);
}
);
layerId = "49C16FD3-6177-408B-A733-AEB3898BB77C";
shapes = (
{
closed = 1;
nodes = (
(467,0,l),
(471,36,l,{
"Letterink-NibData" = {
AngleInDegrees = 270;
};
}),
(94,36,l),
(174,684,l,{
"Letterink-NibData" = {
AngleInDegrees = 270;
};
}),
(136,684,l,{
"Letterink-NibData" = {
AngleInDegrees = 180;
};
}),
(51,0,l,{
"Letterink-NibData" = {
AngleInDegrees = 90;
};
})
);
}
);
width = 513;
},
{
anchors = (
{
name = bottom;
pos = (275,-5);
},
{
name = center;
pos = (161,370);
},
{
name = top;
pos = (198,684);
},
{
name = topright;
pos = (337,436);
}
);
layerId = m004;
shapes = (
{
closed = 1;
nodes = (
(511,0,l),
(529,148,l,{
"Letterink-NibData" = {
AngleInDegrees = 270;
};
}),
(215,148,l),
(281,684,l,{
"Letterink-NibData" = {
AngleInDegrees = 270;
};
}),
(115,684,l,{
"Letterink-NibData" = {
AngleInDegrees = 180;
};
}),
(31,0,l,{
"Letterink-NibData" = {
AngleInDegrees = 90;
};
})
);
}
);
width = 548;
},
{
anchors = (
{
name = bottom;
pos = (264,5);
},
{
name = center;
pos = (134,366);
},
{
name = top;
pos = (169,684);
},
{
name = topright;
pos = (344,444);
}
);
layerId = "E3F1072B-0B24-4A31-98F2-2D5ADE0E752A";
shapes = (
{
closed = 1;
nodes = (
(474,-1,l),
(482,66,l,{
"Letterink-NibData" = {
AngleInDegrees = 270;
};
}),
(129,66,l),
(205,684,l,{
"Letterink-NibData" = {
AngleInDegrees = 270;
};
}),
(132,684,l,{
"Letterink-NibData" = {
AngleInDegrees = 180;
};
}),
(48,-1,l,{
"Letterink-NibData" = {
AngleInDegrees = 90;
};
})
);
}
);
width = 521;
}
);
metricLeft = "=|H";
unicode = 76;
userData = {
position = 54;
width = 61;
};
},
{
glyphname = L.swsh;
kernLeft = Swash;
kernRight = L;
layers = (
{
anchors = (
{
name = bottom;
pos = (326,-10);
},
{
name = center;
pos = (319,342);
},
{
name = top;
pos = (412,696);
},
{
name = topright;
pos = (572,684);
}
);
hints = (
{
name = _corner.caps_swash;
origin = (1,2);
type = Corner;
}
);
layerId = "49C16FD3-6177-408B-A733-AEB3898BB77C";
shapes = (
{
closed = 1;
nodes = (
(538,1,l),
(543,37,l,{
"Letterink-NibData" = {
AngleInDegrees = 270;
};
}),
(176,37,l),
(255,683,l,{
"Letterink-NibData" = {
AngleInDegrees = 270;
};
}),
(217,683,l,{
"Letterink-NibData" = {
AngleInDegrees = 180;
};
}),
(133,1,l,{
"Letterink-NibData" = {
AngleInDegrees = 90;
};
})
);
},
{
closed = 1;
nodes = (
(232,647,l),
(232,683,l),
(178,683,l),
(178,647,l)
);
}
);
width = 584;
},
{
anchors = (
{
name = bottom;
pos = (420,0);
},
{
name = center;
pos = (322,345);
},
{
name = top;
pos = (348,683);
},
{
name = topright;
pos = (412,520);
}
);
hints = (
{
name = _corner.caps_swash;
origin = (1,2);
type = Corner;
}
);
layerId = m004;
shapes = (
{
closed = 1;
nodes = (
(654,1,l),
(672,149,l,{
"Letterink-NibData" = {
AngleInDegrees = "270";
};
}),
(364,149,l),
(430,684,l,{
"Letterink-NibData" = {
AngleInDegrees = "270";
};
}),
(264,684,l,{
"Letterink-NibData" = {
AngleInDegrees = "180";
};
}),
(180,1,l,{
"Letterink-NibData" = {
AngleInDegrees = "90";
};
})
);
},
{
closed = 1;
nodes = (
(277,536,l),
(277,684,l),
(222,684,l),
(222,536,l)
);
}
);
width = 691;
},
{
anchors = (
{
name = bottom;
pos = (358,6);
},
{
name = center;
pos = (290,342);
},
{
name = top;
pos = (314,687);
},
{
name = topright;
pos = (373,587);
}
);
hints = (
{
name = _corner.caps_swash;
origin = (1,2);
type = Corner;
}
);
layerId = "E3F1072B-0B24-4A31-98F2-2D5ADE0E752A";
shapes = (
{
closed = 1;
nodes = (
(577,-1,l),
(585,66,l,{
"Letterink-NibData" = {
AngleInDegrees = 270;
};
}),
(234,66,l),
(310,684,l,{
"Letterink-NibData" = {
AngleInDegrees = 270;
};
}),
(237,684,l,{
"Letterink-NibData" = {
AngleInDegrees = 180;
};
}),
(153,-1,l,{
"Letterink-NibData" = {
AngleInDegrees = 90;
};
})
);
},
{
closed = 1;
nodes = (
(247,617,l),
(247,684,l),
(190,684,l),
(190,617,l)
);
}
);
width = 624;
}
);
metricLeft = EI.swsh;
metricRight = L;
userData = {
position = 54;
width = 61;
};
},
{
glyphname = M;
kernLeft = A;
kernRight = M;
layers = (
{
anchors = (
{
name = bottom;
pos = (509,1);
},
{
name = top;
pos = (592,683);
}
);
hints = (
{
name = _corner.caps_diag;
options = 2;
origin = (0,14);
scale = (-1,1);
type = Corner;
}
);
layerId = "49C16FD3-6177-408B-A733-AEB3898BB77C";
shapes = (
{
closed = 1;
nodes = (
(533,1,l,{
"Letterink-NibData" = {
AngleInDegrees = 19.8453;
};
}),
(810,572,l,{
"Letterink-NibData" = {
AngleInDegrees = 15.73201;
};
}),
(841,649,l,{
"Letterink-NibData" = {
AngleInDegrees = 170.40687;
};
}),
(845,572,l,{
"Letterink-NibData" = {
AngleInDegrees = 168.65127;
};
}),
(892,0,l,{
"Letterink-NibData" = {
AngleInDegrees = 90;
};
}),
(930,0,l,{
"Letterink-NibData" = {
AngleInDegrees = 348.43256;
};
}),
(874,685,l,{
"Letterink-NibData" = {
AngleInDegrees = 270;
};
}),
(826,685,l,{
"Letterink-NibData" = {
AngleInDegrees = 200.22945;
};
}),
(539,103,l,{
"Letterink-NibData" = {
AngleInDegrees = 195.70864;
};
}),
(512,35,l,{
"Letterink-NibData" = {
AngleInDegrees = 344.29136;
};
}),
(501,103,l,{
"Letterink-NibData" = {
AngleInDegrees = 339.85787;
};
}),
(359,685,l,{
"Letterink-NibData" = {
AngleInDegrees = 270;
};
}),
(313,685,l,{
"Letterink-NibData" = {
AngleInDegrees = 191.99471;
};
}),
(104,68,l,{
"Letterink-NibData" = {
AngleInDegrees = "202.61986";
};
}),
(140,55,l,{
GSCorner = {
name = _corner.caps_diag;
options = "1";
scale = "{-1, 1}";
};
"Letterink-NibData" = {
AngleInDegrees = "22.1315";
};
}),
(314,571,l,{
"Letterink-NibData" = {
AngleInDegrees = 8.56914;
};
}),
(336,651,l,{
"Letterink-NibData" = {
AngleInDegrees = 164.67849;
};
}),
(349,571,l,{
"Letterink-NibData" = {
AngleInDegrees = 160.21186;
};
}),
(483,1,l,{
"Letterink-NibData" = {
AngleInDegrees = 90;
};
})
);
}
);
width = 988;
},
{
anchors = (
{
name = bottom;
pos = (493,0);
},
{
name = top;
pos = (577,684);
}
);
hints = (
{
name = _corner.caps_diag;
options = 2;
origin = (0,14);
scale = (-1,1);
type = Corner;
}
);
layerId = m004;
shapes = (
{
closed = 1;
nodes = (
(558,4,l,{
"Letterink-NibData" = {
AngleInDegrees = 19.82904;
};
}),
(760,443,l,{
"Letterink-NibData" = {
AngleInDegrees = 10.61966;
};
}),
(749,495,l,{
"Letterink-NibData" = {
AngleInDegrees = 176.42367;
};
}),
(735,439,l,{
"Letterink-NibData" = {
AngleInDegrees = 168.64911;
};
}),
(761,0,l,{
"Letterink-NibData" = {
AngleInDegrees = 90;
};
}),
(933,2,l,{
"Letterink-NibData" = {
AngleInDegrees = 348.40167;
};
}),
(872,684,l,{
"Letterink-NibData" = {
AngleInDegrees = 270;
};
}),
(725,684,l,{
"Letterink-NibData" = {
AngleInDegrees = 200.24505;
};
}),
(538,302,l,{
"Letterink-NibData" = {
AngleInDegrees = 195.78075;
};
}),
(524,256,l,{
"Letterink-NibData" = {
AngleInDegrees = 344.21925;
};
}),
(520,302,l,{
"Letterink-NibData" = {
AngleInDegrees = 339.94696;
};
}),
(430,684,l,{
"Letterink-NibData" = {
AngleInDegrees = 270;
};
}),
(282,684,l,{
"Letterink-NibData" = {
AngleInDegrees = 191.97887;
};
}),
(108,141,l,{
"Letterink-NibData" = {
AngleInDegrees = 201.80141;
};
}),
(261,94,l,{
"Letterink-NibData" = {
AngleInDegrees = 11.90108;
};
}),
(362,418,l,{
"Letterink-NibData" = {
AngleInDegrees = 7.76516;
};
}),
(352,466,l,{
"Letterink-NibData" = {
AngleInDegrees = 172.23484;
};
}),
(338,418,l,{
"Letterink-NibData" = {
AngleInDegrees = 160.25072;
};
}),
(437,4,l,{
"Letterink-NibData" = {
AngleInDegrees = 90;
};
})
);
}
);
width = 970;
},
{
anchors = (
{
name = bottom;
pos = (503,0);
},
{
name = top;
pos = (585,684);
}
);
hints = (
{
name = _corner.caps_diag;
options = 2;
origin = (0,14);
scale = (-1,1);
type = Corner;
}
);
layerId = "E3F1072B-0B24-4A31-98F2-2D5ADE0E752A";
shapes = (
{
closed = 1;
nodes = (
(536,-1,l,{
"Letterink-NibData" = {
AngleInDegrees = 19.8453;
};
}),
(799,545,l,{
"Letterink-NibData" = {
AngleInDegrees = 15.73201;
};
}),
(811,582,l,{
"Letterink-NibData" = {
AngleInDegrees = 170.40687;
};
}),
(811,545,l,{
"Letterink-NibData" = {
AngleInDegrees = 168.65127;
};
}),
(852,0,l,{
"Letterink-NibData" = {
AngleInDegrees = 90;
};
}),
(925,0,l,{
"Letterink-NibData" = {
AngleInDegrees = 348.43256;
};
}),
(868,684,l,{
"Letterink-NibData" = {
AngleInDegrees = 270;
};
}),
(796,684,l,{
"Letterink-NibData" = {
AngleInDegrees = 200.22945;
};
}),
(530,137,l,{
"Letterink-NibData" = {
AngleInDegrees = 195.70864;
};
}),
(512,86,l,{
"Letterink-NibData" = {
AngleInDegrees = 344.29136;
};
}),
(506,137,l,{
"Letterink-NibData" = {
AngleInDegrees = 339.85787;
};
}),
(377,684,l,{
"Letterink-NibData" = {
AngleInDegrees = 270;
};
}),
(304,684,l,{
"Letterink-NibData" = {
AngleInDegrees = 191.99471;
};
}),
(104,84,l,{
"Letterink-NibData" = {
AngleInDegrees = "202.61986";
};
}),
(169,63,l,{
GSCorner = {
name = _corner.caps_diag;
options = "1";
scale = "{-1, 1}";
};
"Letterink-NibData" = {
AngleInDegrees = "22.1315";
};
}),
(328,540,l,{
"Letterink-NibData" = {
AngleInDegrees = 8.56914;
};
}),
(337,578,l,{
"Letterink-NibData" = {
AngleInDegrees = 164.67849;
};
}),
(342,540,l,{
"Letterink-NibData" = {
AngleInDegrees = 160.21186;
};
}),
(469,-1,l,{
"Letterink-NibData" = {
AngleInDegrees = 90;
};
})
);
}
);
width = 981;
}
);
unicode = 77;
userData = {
position = 664;
width = 20;
};
},
{
glyphname = M.ss01;
layers = (
{
anchors = (
{
name = bottom;
pos = (357,0);
},
{
name = top;
pos = (441,684);
}
);
layerId = "49C16FD3-6177-408B-A733-AEB3898BB77C";
shapes = (
{
closed = 1;
nodes = (
(666,1,l,{
"Letterink-NibData" = {
AngleInDegrees = "90";
};
}),
(751,693,l,{
"Letterink-NibData" = {
AngleInDegrees = "180";
};
}),
(730,694,l,{
"Letterink-NibData" = {
AngleInDegrees = "270";
};
}),
(388,269,l,{
"Letterink-NibData" = {
AngleInDegrees = 321.67095;
};
}),
(381,219,l),
(394,219,l,{
"Letterink-NibData" = {
AngleInDegrees = 42.83309;
};
}),
(688,580,l,{
"Letterink-NibData" = {
AngleInDegrees = 141.24191;
};
}),
(714,616,l,{
"Letterink-NibData" = {
AngleInDegrees = 150.64224;
};
}),
(698,573,l),
(628,1,l)
);
},
{
closed = 1;
nodes = (
(89,1,l),
(159,573,l),
(155,616,l,{
"Letterink-NibData" = {
AngleInDegrees = 150.64224;
};
}),
(173,580,l,{
"Letterink-NibData" = {
AngleInDegrees = 141.24191;
};
}),
(377,219,l,{
"Letterink-NibData" = {
AngleInDegrees = 42.83309;
};
}),
(389,219,l,{
"Letterink-NibData" = {
AngleInDegrees = 42.83309;
};
}),
(395,269,l,{
"Letterink-NibData" = {
AngleInDegrees = 321.67095;
};
}),
(156,694,l,{
"Letterink-NibData" = {
AngleInDegrees = 270;
};
}),
(136,693,l,{
"Letterink-NibData" = {
AngleInDegrees = 180;
};
}),
(51,1,l,{
"Letterink-NibData" = {
AngleInDegrees = 90;
};
})
);
}
);
width = 779;
},
{
anchors = (
{
name = bottom;
pos = (386,0);
},
{
name = top;
pos = (479,684);
}
);
layerId = m004;
shapes = (
{
closed = 1;
nodes = (
(741,0,l,{
"Letterink-NibData" = {
AngleInDegrees = "90";
};
}),
(826,695,l,{
"Letterink-NibData" = {
AngleInDegrees = "180";
};
}),
(723,696,l,{
"Letterink-NibData" = {
AngleInDegrees = "270";
};
}),
(425,360,l,{
"Letterink-NibData" = {
AngleInDegrees = "321.44015";
};
}),
(377,161,l,{
"Letterink-NibData" = {
AngleInDegrees = 43.21009;
};
}),
(434,161,l,{
"Letterink-NibData" = {
AngleInDegrees = "43.21009";
};
}),
(598,349,l,{
"Letterink-NibData" = {
AngleInDegrees = "139.07037";
};
}),
(627,395,l,{
"Letterink-NibData" = {
AngleInDegrees = "143.97263";
};
}),
(612,319,l),
(576,0,l)
);
},
{
closed = 1;
nodes = (
(196,0,l),
(238,319,l),
(246,395,l,{
"Letterink-NibData" = {
AngleInDegrees = 143.97263;
};
}),
(270,338,l,{
"Letterink-NibData" = {
AngleInDegrees = 139.07037;
};
}),
(380,161,l,{
"Letterink-NibData" = {
AngleInDegrees = 43.21009;
};
}),
(433,161,l,{
"Letterink-NibData" = {
AngleInDegrees = 43.21009;
};
}),
(433,360,l,{
"Letterink-NibData" = {
AngleInDegrees = 321.44015;
};
}),
(217,696,l,{
"Letterink-NibData" = {
AngleInDegrees = 270;
};
}),
(116,695,l,{
"Letterink-NibData" = {
AngleInDegrees = 180;
};
}),
(31,0,l,{
"Letterink-NibData" = {
AngleInDegrees = 90;
};
})
);
}
);
width = 834;
},
{
anchors = (
{
name = bottom;
pos = (374,0);
},
{
name = top;
pos = (456,684);
}
);
layerId = "E3F1072B-0B24-4A31-98F2-2D5ADE0E752A";
shapes = (
{
closed = 1;
nodes = (
(697,0,l,{
"Letterink-NibData" = {
AngleInDegrees = "90";
};
}),
(782,695,l,{
"Letterink-NibData" = {
AngleInDegrees = "180";
};
}),
(736,695,l,{
"Letterink-NibData" = {
AngleInDegrees = "270";
};
}),
(403,293,l,{
"Letterink-NibData" = {
AngleInDegrees = 321.67095;
};
}),
(393,209,l),
(414,209,l,{
"Letterink-NibData" = {
AngleInDegrees = 42.83309;
};
}),
(658,496,l,{
"Letterink-NibData" = {
AngleInDegrees = 141.24191;
};
}),
(699,557,l,{
"Letterink-NibData" = {
AngleInDegrees = 150.64224;
};
}),
(685,490,l),
(624,0,l)
);
},
{
closed = 1;
nodes = (
(122,0,l),
(181,490,l),
(185,557,l,{
"Letterink-NibData" = {
AngleInDegrees = 150.64224;
};
}),
(212,496,l,{
"Letterink-NibData" = {
AngleInDegrees = 141.24191;
};
}),
(384,209,l,{
"Letterink-NibData" = {
AngleInDegrees = 42.83309;
};
}),
(404,209,l,{
"Letterink-NibData" = {
AngleInDegrees = 42.83309;
};
}),
(414,293,l,{
"Letterink-NibData" = {
AngleInDegrees = 321.67095;
};
}),
(179,695,l,{
"Letterink-NibData" = {
AngleInDegrees = 270;
};
}),
(134,695,l,{
"Letterink-NibData" = {
AngleInDegrees = 180;
};
}),
(49,0,l,{
"Letterink-NibData" = {
AngleInDegrees = 90;
};
})
);
}
);
width = 807;
}
);
metricLeft = "=|H";
metricRight = H;
userData = {
position = 658;
width = 61;
};
},
{
glyphname = M.swsh;
kernLeft = A.swsh;
kernRight = M;
layers = (
{
anchors = (
{
name = bottom;
pos = (559,1);
},
{
name = top;
pos = (642,683);
}
);
hints = (
{
name = _corner.caps_swash_diag;
options = 2;
origin = (0,14);
scale = (-1,1);
type = Corner;
},
{
name = _corner.caps_swash.big;
origin = (1,2);
type = Corner;
}
);
layerId = "49C16FD3-6177-408B-A733-AEB3898BB77C";
shapes = (
{
closed = 1;
nodes = (
(579,1,l,{
"Letterink-NibData" = {
AngleInDegrees = 19.90221;
};
}),
(857,573,l,{
"Letterink-NibData" = {
AngleInDegrees = 15.18584;
};
}),
(887,650,l,{
"Letterink-NibData" = {
AngleInDegrees = 170.40687;
};
}),
(891,572,l,{
"Letterink-NibData" = {
AngleInDegrees = 168.65127;
};
}),
(935,1,l,{
"Letterink-NibData" = {
AngleInDegrees = 90;
};
}),
(975,1,l,{
"Letterink-NibData" = {
AngleInDegrees = 348.43256;
};
}),
(918,685,l,{
"Letterink-NibData" = {
AngleInDegrees = 270;
};
}),
(874,685,l,{
"Letterink-NibData" = {
AngleInDegrees = 200.22945;
};
}),
(589,105,l,{
"Letterink-NibData" = {
AngleInDegrees = 195.70864;
};
}),
(561,36,l,{
"Letterink-NibData" = {
AngleInDegrees = 344.29136;
};
}),
(549,105,l,{
"Letterink-NibData" = {
AngleInDegrees = 339.85787;
};
}),
(408,684,l,{
"Letterink-NibData" = {
AngleInDegrees = 270;
};
}),
(364,684,l,{
"Letterink-NibData" = {
AngleInDegrees = 191.97342;
};
}),
(164,77,l,{
"Letterink-NibData" = {
AngleInDegrees = 196.18921;
};
}),
(200,65,l,{
"Letterink-NibData" = {
AngleInDegrees = 12.01367;
};
}),
(364,571,l,{
"Letterink-NibData" = {
AngleInDegrees = 8.56914;
};
}),
(386,651,l,{
"Letterink-NibData" = {
AngleInDegrees = 165.41108;
};
}),
(398,571,l,{
"Letterink-NibData" = {
AngleInDegrees = 160.21186;
};
}),
(532,1,l,{
"Letterink-NibData" = {
AngleInDegrees = 90;
};
})
);
},
{
closed = 1;
nodes = (
(364,648,l),
(364,684,l,{
"Letterink-NibData" = {
AngleInDegrees = "270";
};
}),
(261,684,l,{
"Letterink-NibData" = {
AngleInDegrees = "180";
};
}),
(261,648,l,{
"Letterink-NibData" = {
AngleInDegrees = "90";
};
})
);
}
);
width = 1033;
},
{
anchors = (
{
name = bottom;
pos = (561,-2);
},
{
name = top;
pos = (680,684);
}
);
hints = (
{
name = _corner.caps_swash_diag;
options = 2;
origin = (0,14);
scale = (-1,1);
type = Corner;
},
{
name = _corner.caps_swash.big;
origin = (1,2);
type = Corner;
}
);
layerId = m004;
shapes = (
{
closed = 1;
nodes = (
(657,-5,l,{
"Letterink-NibData" = {
AngleInDegrees = "19.82904";
};
}),
(860,443,l,{
"Letterink-NibData" = {
AngleInDegrees = "10.61966";
};
}),
(850,495,l,{
"Letterink-NibData" = {
AngleInDegrees = "176.42367";
};
}),
(836,439,l,{
"Letterink-NibData" = {
AngleInDegrees = "168.64911";
};
}),
(861,-5,l,{
"Letterink-NibData" = {
AngleInDegrees = "90";
};
}),
(1025,-5,l,{
"Letterink-NibData" = {
AngleInDegrees = "348.40167";
};
}),
(964,684,l,{
"Letterink-NibData" = {
AngleInDegrees = "270";
};
}),
(828,684,l,{
"Letterink-NibData" = {
AngleInDegrees = "200.24505";
};
}),
(655,338,l,{
"Letterink-NibData" = {
AngleInDegrees = "195.78075";
};
}),
(624,256,l,{
"Letterink-NibData" = {
AngleInDegrees = "344.21925";
};
}),
(614,338,l,{
"Letterink-NibData" = {
AngleInDegrees = "339.94696";
};
}),
(529,684,l,{
"Letterink-NibData" = {
AngleInDegrees = "270";
};
}),
(390,684,l,{
"Letterink-NibData" = {
AngleInDegrees = "191.97887";
};
}),
(214,157,l,{
"Letterink-NibData" = {
AngleInDegrees = "201.80141";
};
}),
(366,107,l,{
"Letterink-NibData" = {
AngleInDegrees = "11.90108";
};
}),
(464,418,l,{
"Letterink-NibData" = {
AngleInDegrees = "7.76516";
};
}),
(460,466,l,{
"Letterink-NibData" = {
AngleInDegrees = "172.23484";
};
}),
(438,418,l,{
"Letterink-NibData" = {
AngleInDegrees = "160.25072";
};
}),
(536,-5,l,{
"Letterink-NibData" = {
AngleInDegrees = "90";
};
})
);
},
{
closed = 1;
nodes = (
(477,535,l),
(477,684,l,{
"Letterink-NibData" = {
AngleInDegrees = "270";
};
}),
(305,684,l,{
"Letterink-NibData" = {
AngleInDegrees = "180";
};
}),
(305,535,l)
);
}
);
width = 1063;
},
{
anchors = (
{
name = bottom;
pos = (565,-1);
},
{
name = top;
pos = (643,684);
}
);
hints = (
{
name = _corner.caps_swash_diag;
options = 2;
origin = (0,14);
scale = (-1,1);
type = Corner;
},
{
name = _corner.caps_swash.big;
origin = (1,2);
type = Corner;
}
);
layerId = "E3F1072B-0B24-4A31-98F2-2D5ADE0E752A";
shapes = (
{
closed = 1;
nodes = (
(593,-1,l,{
"Letterink-NibData" = {
AngleInDegrees = 19.90221;
};
}),
(857,543,l,{
"Letterink-NibData" = {
AngleInDegrees = 15.18584;
};
}),
(869,577,l,{
"Letterink-NibData" = {
AngleInDegrees = 170.40687;
};
}),
(869,543,l,{
"Letterink-NibData" = {
AngleInDegrees = 168.65127;
};
}),
(911,-1,l,{
"Letterink-NibData" = {
AngleInDegrees = 90;
};
}),
(981,-1,l,{
"Letterink-NibData" = {
AngleInDegrees = 348.43256;
};
}),
(924,685,l,{
"Letterink-NibData" = {
AngleInDegrees = 270;
};
}),
(857,685,l,{
"Letterink-NibData" = {
AngleInDegrees = 200.22945;
};
}),
(580,117,l,{
"Letterink-NibData" = {
AngleInDegrees = 195.70864;
};
}),
(571,88,l,{
"Letterink-NibData" = {
AngleInDegrees = 344.29136;
};
}),
(567,117,l,{
"Letterink-NibData" = {
AngleInDegrees = 339.85787;
};
}),
(433,685,l,{
"Letterink-NibData" = {
AngleInDegrees = 270;
};
}),
(363,685,l,{
"Letterink-NibData" = {
AngleInDegrees = 191.97342;
};
}),
(168,94,l,{
"Letterink-NibData" = {
AngleInDegrees = 196.18921;
};
}),
(237,73,l,{
"Letterink-NibData" = {
AngleInDegrees = 12.01367;
};
}),
(384,538,l,{
"Letterink-NibData" = {
AngleInDegrees = 8.56914;
};
}),
(395,576,l,{
"Letterink-NibData" = {
AngleInDegrees = 165.41108;
};
}),
(399,538,l,{
"Letterink-NibData" = {
AngleInDegrees = 160.21186;
};
}),
(526,-1,l,{
"Letterink-NibData" = {
AngleInDegrees = 90;
};
})
);
},
{
closed = 1;
nodes = (
(390,618,l),
(390,685,l,{
"Letterink-NibData" = {
AngleInDegrees = "270";
};
}),
(264,685,l,{
"Letterink-NibData" = {
AngleInDegrees = "180";
};
}),
(264,618,l,{
"Letterink-NibData" = {
AngleInDegrees = "90";
};
})
);
}
);
width = 1037;
}
);
metricRight = M;
userData = {
position = 664;
width = 20;
};
},
{
glyphname = N;
kernLeft = N;
layers = (
{
anchors = (
{
name = bottom;
pos = (378,-8);
},
{
name = eng;
pos = (621,0);
},
{
name = top;
pos = (469,695);
}
);
hints = (
{
name = _corner.caps_vert.001;
origin = (0,10);
scale = (-1,1);
type = Corner;
}
);
layerId = "49C16FD3-6177-408B-A733-AEB3898BB77C";
shapes = (
{
closed = 1;
nodes = (
(639,0,l,{
"Letterink-NibData" = {
AngleInDegrees = "180";
};
}),
(723,683,l),
(681,683,l,{
"Letterink-NibData" = {
AngleInDegrees = 359.58179;
};
}),
(614,105,l),
(609,64,l,{
"Letterink-NibData" = {
AngleInDegrees = 145.43748;
};
}),
(589,96,l,{
"Letterink-NibData" = {
AngleInDegrees = 141.25478;
};
}),
(281,601,l,{
"Letterink-NibData" = {
AngleInDegrees = 318.39493;
};
}),
(227,683,l,{
"Letterink-NibData" = {
AngleInDegrees = 270;
};
}),
(200,683,l,{
"Letterink-NibData" = {
AngleInDegrees = 180;
};
}),
(129,101,l,{
"Letterink-NibData" = {
AngleInDegrees = 180;
};
}),
(167,101,l,{
"Letterink-NibData" = {
AngleInDegrees = 359.58179;
};
}),
(225,583,l),
(225,618,l,{
"Letterink-NibData" = {
AngleInDegrees = 145.43748;
};
}),
(243,588,l,{
"Letterink-NibData" = {
AngleInDegrees = 141.25478;
};
}),
(552,79,l),
(608,0,l,{
"Letterink-NibData" = {
AngleInDegrees = "270";
};
})
);
}
);
width = 752;
},
{
anchors = (
{
name = bottom;
pos = (418,0);
},
{
name = eng;
pos = (619,0);
},
{
name = top;
pos = (502,684);
}
);
hints = (
{
name = _corner.caps_vert.001;
origin = (0,10);
scale = (-1,1);
type = Corner;
}
);
layerId = m004;
shapes = (
{
closed = 1;
nodes = (
(701,-5,l,{
"Letterink-NibData" = {
AngleInDegrees = "180";
};
}),
(786,684,l,{
"Letterink-NibData" = {
AngleInDegrees = "90";
};
}),
(621,684,l),
(582,365,l,{
"Letterink-NibData" = {
AngleInDegrees = 355.66769;
};
}),
(578,285,l,{
"Letterink-NibData" = {
AngleInDegrees = 143.1301;
};
}),
(558,323,l,{
"Letterink-NibData" = {
AngleInDegrees = 140.24946;
};
}),
(357,636,l),
(308,698,l,{
"Letterink-NibData" = {
AngleInDegrees = "270";
};
}),
(204,698,l,{
"Letterink-NibData" = {
AngleInDegrees = "180";
};
}),
(137,166,l,{
"Letterink-NibData" = {
AngleInDegrees = "90";
};
}),
(303,166,l),
(320,312,l,{
"Letterink-NibData" = {
AngleInDegrees = 355.66769;
};
}),
(323,408,l,{
"Letterink-NibData" = {
AngleInDegrees = 143.1301;
};
}),
(390,286,l,{
"Letterink-NibData" = {
AngleInDegrees = 140.24946;
};
}),
(552,53,l),
(598,-5,l,{
"Letterink-NibData" = {
AngleInDegrees = "270";
};
})
);
}
);
width = 795;
},
{
anchors = (
{
name = bottom;
pos = (378,-2);
},
{
name = eng;
pos = (614,0);
},
{
name = top;
pos = (474,687);
}
);
hints = (
{
name = _corner.caps_vert.001;
origin = (0,10);
scale = (-1,1);
type = Corner;
}
);
layerId = "E3F1072B-0B24-4A31-98F2-2D5ADE0E752A";
shapes = (
{
closed = 1;
nodes = (
(650,-1,l,{
"Letterink-NibData" = {
AngleInDegrees = "180";
};
}),
(734,684,l),
(661,684,l,{
"Letterink-NibData" = {
AngleInDegrees = 359.58179;
};
}),
(599,169,l),
(599,123,l,{
"Letterink-NibData" = {
AngleInDegrees = 145.43748;
};
}),
(554,199,l,{
"Letterink-NibData" = {
AngleInDegrees = 141.25478;
};
}),
(308,596,l,{
"Letterink-NibData" = {
AngleInDegrees = 318.39493;
};
}),
(237,693,l,{
"Letterink-NibData" = {
AngleInDegrees = 270;
};
}),
(194,693,l,{
"Letterink-NibData" = {
AngleInDegrees = 180;
};
}),
(123,113,l,{
"Letterink-NibData" = {
AngleInDegrees = 180;
};
}),
(196,113,l,{
"Letterink-NibData" = {
AngleInDegrees = 359.58179;
};
}),
(243,501,l),
(245,569,l,{
"Letterink-NibData" = {
AngleInDegrees = 145.43748;
};
}),
(290,494,l,{
"Letterink-NibData" = {
AngleInDegrees = 141.25478;
};
}),
(535,96,l),
(607,-1,l,{
"Letterink-NibData" = {
AngleInDegrees = "270";
};
})
);
}
);
width = 760;
}
);
metricRight = H;
unicode = 78;
userData = {
position = 642;
width = 56;
};
},
{
glyphname = N.ss01;
layers = (
{
anchors = (
{
name = bottom;
pos = (319,0);
},
{
name = eng;
pos = (561,0);
},
{
name = top;
pos = (405,684);
}
);
layerId = "49C16FD3-6177-408B-A733-AEB3898BB77C";
shapes = (
{
closed = 1;
nodes = (
(579,-1,l,{
"Letterink-NibData" = {
AngleInDegrees = "180";
};
}),
(663,685,l),
(625,685,l,{
"Letterink-NibData" = {
AngleInDegrees = 359.58179;
};
}),
(554,107,l),
(553,66,l,{
"Letterink-NibData" = {
AngleInDegrees = 145.43748;
};
}),
(531,97,l,{
"Letterink-NibData" = {
AngleInDegrees = 141.25478;
};
}),
(213,601,l,{
"Letterink-NibData" = {
AngleInDegrees = 318.39493;
};
}),
(156,683,l,{
"Letterink-NibData" = {
AngleInDegrees = "270";
};
}),
(135,683,l,{
"Letterink-NibData" = {
AngleInDegrees = "180";
};
}),
(51,0,l,{
"Letterink-NibData" = {
AngleInDegrees = "180";
};
}),
(90,0,l,{
"Letterink-NibData" = {
AngleInDegrees = 359.58179;
};
}),
(160,583,l),
(159,618,l,{
"Letterink-NibData" = {
AngleInDegrees = 145.43748;
};
}),
(180,588,l,{
"Letterink-NibData" = {
AngleInDegrees = 141.25478;
};
}),
(497,82,l),
(552,-1,l,{
"Letterink-NibData" = {
AngleInDegrees = "270";
};
})
);
}
);
width = 692;
},
{
anchors = (
{
name = bottom;
pos = (330,0);
},
{
name = eng;
pos = (533,0);
},
{
name = top;
pos = (416,684);
}
);
layerId = m004;
shapes = (
{
closed = 1;
nodes = (
(615,-5,l,{
"Letterink-NibData" = {
AngleInDegrees = "180";
};
}),
(698,684,l,{
"Letterink-NibData" = {
AngleInDegrees = "90";
};
}),
(531,684,l),
(494,356,l,{
"Letterink-NibData" = {
AngleInDegrees = 355.66769;
};
}),
(492,293,l,{
"Letterink-NibData" = {
AngleInDegrees = 143.1301;
};
}),
(437,379,l,{
"Letterink-NibData" = {
AngleInDegrees = 140.24946;
};
}),
(271,636,l),
(221,694,l,{
"Letterink-NibData" = {
AngleInDegrees = "270";
};
}),
(116,694,l,{
"Letterink-NibData" = {
AngleInDegrees = "180";
};
}),
(34,0,l,{
"Letterink-NibData" = {
AngleInDegrees = "90";
};
}),
(200,0,l),
(242,340,l,{
"Letterink-NibData" = {
AngleInDegrees = 355.66769;
};
}),
(237,408,l,{
"Letterink-NibData" = {
AngleInDegrees = 143.1301;
};
}),
(273,348,l,{
"Letterink-NibData" = {
AngleInDegrees = 140.24946;
};
}),
(466,53,l),
(512,-5,l,{
"Letterink-NibData" = {
AngleInDegrees = "270";
};
})
);
}
);
width = 709;
},
{
anchors = (
{
name = bottom;
pos = (322,0);
},
{
name = eng;
pos = (553,-8);
},
{
name = top;
pos = (408,684);
}
);
layerId = "E3F1072B-0B24-4A31-98F2-2D5ADE0E752A";
shapes = (
{
closed = 1;
nodes = (
(590,-9,l,{
"Letterink-NibData" = {
AngleInDegrees = "180";
};
}),
(675,684,l),
(602,684,l,{
"Letterink-NibData" = {
AngleInDegrees = 359.58179;
};
}),
(543,204,l),
(538,116,l,{
"Letterink-NibData" = {
AngleInDegrees = 145.43748;
};
}),
(492,191,l,{
"Letterink-NibData" = {
AngleInDegrees = 141.25478;
};
}),
(245,596,l,{
"Letterink-NibData" = {
AngleInDegrees = 318.39493;
};
}),
(183,693,l,{
"Letterink-NibData" = {
AngleInDegrees = "270";
};
}),
(133,693,l,{
"Letterink-NibData" = {
AngleInDegrees = "180";
};
}),
(48,-1,l,{
"Letterink-NibData" = {
AngleInDegrees = "180";
};
}),
(120,-1,l,{
"Letterink-NibData" = {
AngleInDegrees = 359.58179;
};
}),
(179,482,l),
(184,569,l,{
"Letterink-NibData" = {
AngleInDegrees = 145.43748;
};
}),
(229,494,l,{
"Letterink-NibData" = {
AngleInDegrees = 141.25478;
};
}),
(475,89,l),
(546,-9,l,{
"Letterink-NibData" = {
AngleInDegrees = "270";
};
})
);
}
);
width = 701;
}
);
metricLeft = "=|H";
metricRight = H;
userData = {
position = 605;
width = 61;
};
},
{
glyphname = N.swsh;
kernLeft = swsh;
layers = (
{
anchors = (
{
name = bottom;
pos = (502,0);
},
{
name = top;
pos = (546,684);
}
);
hints = (
{
name = _corner.caps_swash_vert;
origin = (0,10);
scale = (-1,1);
type = Corner;
},
{
name = _corner.caps_swash.big;
origin = (1,2);
type = Corner;
}
);
layerId = "49C16FD3-6177-408B-A733-AEB3898BB77C";
shapes = (
{
closed = 1;
nodes = (
(721,0,l,{
"Letterink-NibData" = {
AngleInDegrees = "180";
};
}),
(805,683,l),
(765,683,l,{
"Letterink-NibData" = {
AngleInDegrees = 359.58179;
};
}),
(698,105,l),
(693,64,l,{
"Letterink-NibData" = {
AngleInDegrees = 145.43748;
};
}),
(672,96,l,{
"Letterink-NibData" = {
AngleInDegrees = 141.25478;
};
}),
(355,601,l,{
"Letterink-NibData" = {
AngleInDegrees = 318.39493;
};
}),
(301,683,l,{
"Letterink-NibData" = {
AngleInDegrees = "270";
};
}),
(275,683,l,{
"Letterink-NibData" = {
AngleInDegrees = "180";
};
}),
(203,98,l,{
"Letterink-NibData" = {
AngleInDegrees = "180";
};
}),
(241,98,l,{
"Letterink-NibData" = {
AngleInDegrees = 359.58179;
};
}),
(297,583,l),
(299,618,l,{
"Letterink-NibData" = {
AngleInDegrees = 145.43748;
};
}),
(317,588,l,{
"Letterink-NibData" = {
AngleInDegrees = 141.25478;
};
}),
(636,79,l),
(692,0,l,{
"Letterink-NibData" = {
AngleInDegrees = "270";
};
})
);
},
{
closed = 1;
nodes = (
(300,648,l),
(300,684,l,{
"Letterink-NibData" = {
AngleInDegrees = "270";
};
}),
(222,684,l,{
"Letterink-NibData" = {
AngleInDegrees = "180";
};
}),
(222,648,l,{
"Letterink-NibData" = {
AngleInDegrees = "90";
};
})
);
}
);
width = 834;
},
{
anchors = (
{
name = bottom;
pos = (553,0);
},
{
name = top;
pos = (566,684);
}
);
hints = (
{
name = _corner.caps_swash_vert;
origin = (0,10);
scale = (-1,1);
type = Corner;
},
{
name = _corner.caps_swash.big;
origin = (1,2);
type = Corner;
}
);
layerId = m004;
shapes = (
{
closed = 1;
nodes = (
(805,-5,l,{
"Letterink-NibData" = {
AngleInDegrees = "180";
};
}),
(892,699,l,{
"Letterink-NibData" = {
AngleInDegrees = "90";
};
}),
(727,699,l),
(690,398,l,{
"Letterink-NibData" = {
AngleInDegrees = 355.66769;
};
}),
(685,285,l,{
"Letterink-NibData" = {
AngleInDegrees = 143.1301;
};
}),
(627,379,l,{
"Letterink-NibData" = {
AngleInDegrees = 140.24946;
};
}),
(461,636,l),
(426,684,l,{
"Letterink-NibData" = {
AngleInDegrees = "270";
};
}),
(306,684,l,{
"Letterink-NibData" = {
AngleInDegrees = "180";
};
}),
(242,162,l,{
"Letterink-NibData" = {
AngleInDegrees = "90";
};
}),
(408,162,l),
(424,301,l,{
"Letterink-NibData" = {
AngleInDegrees = 355.66769;
};
}),
(427,408,l,{
"Letterink-NibData" = {
AngleInDegrees = 143.1301;
};
}),
(494,286,l,{
"Letterink-NibData" = {
AngleInDegrees = 140.24946;
};
}),
(656,53,l),
(702,-5,l,{
"Letterink-NibData" = {
AngleInDegrees = "270";
};
})
);
},
{
closed = 1;
nodes = (
(413,536,l),
(413,684,l,{
"Letterink-NibData" = {
AngleInDegrees = "270";
};
}),
(271,684,l,{
"Letterink-NibData" = {
AngleInDegrees = "180";
};
}),
(271,535,l)
);
}
);
width = 899;
},
{
anchors = (
{
name = bottom;
pos = (451,0);
},
{
name = top;
pos = (526,684);
}
);
hints = (
{
name = _corner.caps_swash_vert;
origin = (0,10);
scale = (-1,1);
type = Corner;
},
{
name = _corner.caps_swash.big;
origin = (1,2);
type = Corner;
}
);
layerId = "E3F1072B-0B24-4A31-98F2-2D5ADE0E752A";
shapes = (
{
closed = 1;
nodes = (
(718,-1,l,{
"Letterink-NibData" = {
AngleInDegrees = "180";
};
}),
(803,693,l),
(731,693,l,{
"Letterink-NibData" = {
AngleInDegrees = 359.58179;
};
}),
(673,212,l),
(667,123,l,{
"Letterink-NibData" = {
AngleInDegrees = 145.43748;
};
}),
(622,199,l,{
"Letterink-NibData" = {
AngleInDegrees = 141.25478;
};
}),
(375,596,l,{
"Letterink-NibData" = {
AngleInDegrees = 318.39493;
};
}),
(316,684,l,{
"Letterink-NibData" = {
AngleInDegrees = "270";
};
}),
(260,684,l,{
"Letterink-NibData" = {
AngleInDegrees = "180";
};
}),
(188,110,l,{
"Letterink-NibData" = {
AngleInDegrees = "180";
};
}),
(261,110,l,{
"Letterink-NibData" = {
AngleInDegrees = 359.58179;
};
}),
(306,482,l),
(312,569,l,{
"Letterink-NibData" = {
AngleInDegrees = 145.43748;
};
}),
(356,494,l,{
"Letterink-NibData" = {
AngleInDegrees = 141.25478;
};
}),
(604,96,l),
(675,-1,l,{
"Letterink-NibData" = {
AngleInDegrees = "270";
};
})
);
},
{
closed = 1;
nodes = (
(298,617,l),
(298,684,l,{
"Letterink-NibData" = {
AngleInDegrees = "270";
};
}),
(235,684,l,{
"Letterink-NibData" = {
AngleInDegrees = "180";
};
}),
(235,617,l,{
"Letterink-NibData" = {
AngleInDegrees = "90";
};
})
);
}
);
width = 828;
}
);
metricLeft = E.swsh;
metricRight = H;
userData = {
position = 642;
width = 56;
};
},
{
glyphname = O;
kernLeft = O;
kernRight = O;
layers = (
{
anchors = (
{
name = bottom;
pos = (338,3);
},
{
name = center;
pos = (381,342);
},
{
name = horn;
pos = (519,684);
},
{
name = ogonek;
pos = (536,53);
},
{
name = top;
pos = (422,691);
},
{
name = topleft;
pos = (55,684);
},
{
name = topright;
pos = (813,684);
}
);
layerId = "49C16FD3-6177-408B-A733-AEB3898BB77C";
shapes = (
{
closed = 1;
nodes = (
(520,-10,o),
(675,134,o),
(700,333,cs,{
"Letterink-NibData" = {
AngleInDegrees = "180";
};
}),
(725,540,o),
(609,694,o),
(422,694,cs,{
"Letterink-NibData" = {
AngleInDegrees = "270";
};
}),
(232,694,o),
(78,546,o),
(54,349,cs,{
"Letterink-NibData" = {
AngleInDegrees = "180";
};
}),
(28,140,o),
(146,-10,o),
(331,-10,cs,{
"Letterink-NibData" = {
AngleInDegrees = "270";
};
})
);
},
{
closed = 1;
nodes = (
(171,25,o),
(70,160,o),
(94,349,cs),
(116,523,o),
(254,659,o),
(418,659,cs,{
"Letterink-NibData" = {
AngleInDegrees = "90";
};
}),
(585,659,o),
(683,524,o),
(660,338,cs),
(638,162,o),
(502,25,o),
(335,25,cs,{
"Letterink-NibData" = {
AngleInDegrees = "90";
};
})
);
}
);
width = 732;
},
{
anchors = (
{
name = bottom;
pos = (350,-15);
},
{
name = center;
pos = (392,337);
},
{
name = horn;
pos = (575,687);
},
{
name = ogonek;
pos = (566,37);
},
{
name = top;
pos = (441,699);
},
{
name = topleft;
pos = (92,643);
},
{
name = topright;
pos = (797,643);
}
);
layerId = m004;
shapes = (
{
closed = 1;
nodes = (
(561,-32,o),
(730,111,o),
(757,333,cs,{
"Letterink-NibData" = {
AngleInDegrees = "180";
};
}),
(782,535,o),
(640,711,o),
(441,711,cs,{
"Letterink-NibData" = {
AngleInDegrees = "270";
};
}),
(228,711,o),
(59,562,o),
(30,338,cs,{
"Letterink-NibData" = {
AngleInDegrees = "180";
};
}),
(5,142,o),
(152,-32,o),
(346,-32,cs,{
"Letterink-NibData" = {
AngleInDegrees = "270";
};
})
);
},
{
closed = 1;
nodes = (
(256,115,o),
(180,210,o),
(195,332,cs),
(211,466,o),
(306,563,o),
(422,563,cs,{
"Letterink-NibData" = {
AngleInDegrees = "90";
};
}),
(535,563,o),
(608,474,o),
(592,344,cs),
(576,212,o),
(483,115,o),
(365,115,cs,{
"Letterink-NibData" = {
AngleInDegrees = "90";
};
})
);
}
);
width = 768;
},
{
anchors = (
{
name = bottom;
pos = (348,-4);
},
{
name = center;
pos = (390,341);
},
{
name = horn;
pos = (537,688);
},
{
name = ogonek;
pos = (563,56);
},
{
name = top;
pos = (433,700);
},
{
name = topleft;
pos = (66,684);
},
{
name = topright;
pos = (825,684);
}
);
layerId = "E3F1072B-0B24-4A31-98F2-2D5ADE0E752A";
shapes = (
{
closed = 1;
nodes = (
(541,-17,o),
(702,138,o),
(727,348,cs,{
"Letterink-NibData" = {
AngleInDegrees = "180";
};
}),
(752,549,o),
(626,702,o),
(435,702,cs,{
"Letterink-NibData" = {
AngleInDegrees = "270";
};
}),
(236,702,o),
(75,549,o),
(50,340,cs,{
"Letterink-NibData" = {
AngleInDegrees = "180";
};
}),
(25,138,o),
(152,-17,o),
(340,-17,cs,{
"Letterink-NibData" = {
AngleInDegrees = "270";
};
})
);
},
{
closed = 1;
nodes = (
(199,48,o),
(104,175,o),
(125,345,cs),
(145,512,o),
(276,637,o),
(428,637,cs,{
"Letterink-NibData" = {
AngleInDegrees = "90";
};
}),
(579,637,o),
(674,513,o),
(653,344,cs),
(632,175,o),
(502,48,o),
(349,48,cs,{
"Letterink-NibData" = {
AngleInDegrees = "90";
};
})
);
}
);
width = 754;
}
);
unicode = 79;
userData = {
position = 683;
width = 56;
};
},
{
glyphname = OE;
kernLeft = O;
kernRight = E;
layers = (
{
anchors = (
{
name = bottom;
pos = (469,-6);
},
{
name = top;
pos = (553,679);
}
);
layerId = "49C16FD3-6177-408B-A733-AEB3898BB77C";
shapes = (
{
closed = 1;
nodes = (
(395,-12,o),
(443,-2,o),
(490,17,c),
(493,59,l),
(448,35,o),
(398,23,o),
(344,23,cs,{
"Letterink-NibData" = {
AngleInDegrees = "90";
};
}),
(177,23,o),
(72,159,o),
(94,343,cs),
(116,528,o),
(258,667,o),
(427,667,cs,{
"Letterink-NibData" = {
AngleInDegrees = "90";
};
}),
(479,667,o),
(525,654,o),
(565,630,c),
(569,672,l),
(527,691,o),
(480,702,o),
(428,702,cs,{
"Letterink-NibData" = {
AngleInDegrees = "270";
};
}),
(235,702,o),
(79,552,o),
(54,347,cs,{
"Letterink-NibData" = {
AngleInDegrees = "180";
};
}),
(29,139,o),
(149,-12,o),
(344,-12,cs,{
"Letterink-NibData" = {
AngleInDegrees = "270";
};
})
);
},
{
alignment = -1;
pos = (414,-2);
ref = E.ss01;
}
);
width = 969;
},
{
anchors = (
{
name = bottom;
pos = (521,0);
},
{
name = top;
pos = (507,695);
}
);
layerId = m004;
shapes = (
{
closed = 1;
nodes = (
(400,-12,o),
(446,-4,o),
(491,13,c),
(509,198,l),
(470,158,o),
(416,132,o),
(357,132,cs,{
"Letterink-NibData" = {
AngleInDegrees = "90";
};
}),
(253,132,o),
(184,221,o),
(199,339,cs),
(216,469,o),
(312,567,o),
(425,567,cs,{
"Letterink-NibData" = {
AngleInDegrees = "90";
};
}),
(478,567,o),
(522,547,o),
(551,506,c),
(573,684,l),
(533,701,o),
(482,711,o),
(429,711,cs,{
"Letterink-NibData" = {
AngleInDegrees = "270";
};
}),
(228,711,o),
(56,557,o),
(32,355,cs,{
"Letterink-NibData" = {
AngleInDegrees = "180";
};
}),
(8,149,o),
(147,-12,o),
(353,-12,cs,{
"Letterink-NibData" = {
AngleInDegrees = "270";
};
})
);
},
{
alignment = -1;
pos = (452,6);
ref = E.ss01;
}
);
width = 1029;
},
{
anchors = (
{
name = bottom;
pos = (499,3);
},
{
name = top;
pos = (506,684);
}
);
layerId = "E3F1072B-0B24-4A31-98F2-2D5ADE0E752A";
shapes = (
{
closed = 1;
nodes = (
(397,-14,o),
(440,-7,o),
(480,8,c),
(487,84,l),
(447,64,o),
(403,51,o),
(354,51,cs,{
"Letterink-NibData" = {
AngleInDegrees = "90";
};
}),
(201,51,o),
(105,178,o),
(125,341,cs),
(144,506,o),
(276,640,o),
(433,640,cs,{
"Letterink-NibData" = {
AngleInDegrees = "90";
};
}),
(478,640,o),
(520,628,o),
(555,608,c),
(560,681,l),
(524,696,o),
(482,705,o),
(435,705,cs,{
"Letterink-NibData" = {
AngleInDegrees = "270";
};
}),
(239,705,o),
(75,548,o),
(51,349,cs,{
"Letterink-NibData" = {
AngleInDegrees = "180";
};
}),
(26,144,o),
(154,-14,o),
(354,-14,cs,{
"Letterink-NibData" = {
AngleInDegrees = "270";
};
})
);
},
{
alignment = -1;
pos = (417,1);
ref = E.ss01;
}
);
width = 985;
}
);
metricLeft = O;
metricRight = E;
unicode = 338;
userData = {
position = 502;
width = 61;
};
},
{
glyphname = P;
kernLeft = E;
kernRight = P;
layers = (
{
anchors = (
{
name = bottom;
pos = (337,0);
},
{
name = top;
pos = (358,684);
}
);
hints = (
{
name = _corner.caps_left;
origin = (0,22);
type = Corner;
}
);
layerId = "49C16FD3-6177-408B-A733-AEB3898BB77C";
shapes = (
{
closed = 1;
nodes = (
(145,0,l),
(224,647,l,{
"Letterink-NibData" = {
AngleInDegrees = 90;
};
}),
(384,649,ls,{
"Letterink-NibData" = {
AngleInDegrees = 90;
};
}),
(485,650,o),
(554,591,o),
(538,468,cs,{
"Letterink-NibData" = {
AngleInDegrees = 180;
};
}),
(521,334,o),
(431,283,o),
(321,283,cs,{
"Letterink-NibData" = {
AngleInDegrees = 270;
};
}),
(309,283,o),
(277,284,o),
(242,286,c,{
"Letterink-NibData" = {
AngleInDegrees = 180;
};
}),
(240,252,l,{
"Letterink-NibData" = {
AngleInDegrees = 97.59464;
};
}),
(269,248,o),
(306,247,o),
(325,247,cs,{
"Letterink-NibData" = {
AngleInDegrees = 90;
};
}),
(445,247,o),
(558,312,o),
(578,465,cs),
(594,590,o),
(532,686,o),
(400,685,cs,{
"Letterink-NibData" = {
AngleInDegrees = 269.72846;
};
}),
(186,684,l,{
"Letterink-NibData" = {
AngleInDegrees = 180;
};
}),
(186,648,l),
(106,0,l,{
"Letterink-NibData" = {
AngleInDegrees = 90;
};
})
);
}
);
width = 586;
},
{
anchors = (
{
name = bottom;
pos = (408,0);
},
{
name = top;
pos = (408,684);
}
);
hints = (
{
name = _corner.caps_left;
origin = (0,22);
type = Corner;
}
);
layerId = m004;
shapes = (
{
closed = 1;
nodes = (
(309,-1,l),
(374,531,l,{
"Letterink-NibData" = {
AngleInDegrees = 90;
};
}),
(438,531,ls,{
"Letterink-NibData" = {
AngleInDegrees = 90;
};
}),
(479,531,o),
(522,500,o),
(514,432,cs,{
"Letterink-NibData" = {
AngleInDegrees = 180;
};
}),
(508,380,o),
(472,350,o),
(425,350,cs,{
"Letterink-NibData" = {
AngleInDegrees = 270;
};
}),
(411,350,o),
(404,350,o),
(387,356,c,{
"Letterink-NibData" = {
AngleInDegrees = 180;
};
}),
(375,209,l,{
"Letterink-NibData" = {
AngleInDegrees = 104.03624;
};
}),
(396,202,o),
(414,199,o),
(448,199,cs,{
"Letterink-NibData" = {
AngleInDegrees = 90;
};
}),
(572,199,o),
(671,308,o),
(684,429,cs),
(699,572,o),
(607,683,o),
(470,683,cs,{
"Letterink-NibData" = {
AngleInDegrees = 270;
};
}),
(214,683,l,{
"Letterink-NibData" = {
AngleInDegrees = 180;
};
}),
(208,535,l),
(142,-1,l,{
"Letterink-NibData" = {
AngleInDegrees = 90;
};
})
);
}
);
width = 677;
},
{
anchors = (
{
name = bottom;
pos = (355,0);
},
{
name = top;
pos = (360,684);
}
);
hints = (
{
name = _corner.caps_left;
origin = (0,22);
type = Corner;
}
);
layerId = "E3F1072B-0B24-4A31-98F2-2D5ADE0E752A";
shapes = (
{
closed = 1;
nodes = (
(188,-1,l),
(264,618,l,{
"Letterink-NibData" = {
AngleInDegrees = 90;
};
}),
(400,619,ls,{
"Letterink-NibData" = {
AngleInDegrees = 90;
};
}),
(491,619,o),
(548,568,o),
(535,463,cs,{
"Letterink-NibData" = {
AngleInDegrees = 180;
};
}),
(520,342,o),
(433,297,o),
(352,297,cs,{
"Letterink-NibData" = {
AngleInDegrees = 270;
};
}),
(338,297,o),
(308,298,o),
(266,303,c,{
"Letterink-NibData" = {
AngleInDegrees = 180;
};
}),
(262,239,l,{
"Letterink-NibData" = {
AngleInDegrees = 97.59464;
};
}),
(299,232,o),
(332,230,o),
(354,230,cs,{
"Letterink-NibData" = {
AngleInDegrees = 90;
};
}),
(465,230,o),
(589,299,o),
(609,457,cs),
(624,580,o),
(555,686,o),
(418,686,cs,{
"Letterink-NibData" = {
AngleInDegrees = 269.72846;
};
}),
(192,686,l,{
"Letterink-NibData" = {
AngleInDegrees = 180;
};
}),
(192,619,l),
(115,-1,l,{
"Letterink-NibData" = {
AngleInDegrees = 90;
};
})
);
}
);
width = 615;
}
);
metricLeft = H;
unicode = 80;
userData = {
position = 480;
width = 59;
};
},
{
glyphname = P.ss01;
kernRight = P;
layers = (
{
anchors = (
{
name = bottom;
pos = (205,0);
},
{
name = top;
pos = (295,684);
}
);
layerId = "49C16FD3-6177-408B-A733-AEB3898BB77C";
shapes = (
{
closed = 1;
nodes = (
(404,236,o),
(511,326,o),
(528,460,cs),
(545,598,o),
(471,685,o),
(338,685,cs,{
"Letterink-NibData" = {
AngleInDegrees = 270;
};
}),
(137,685,l,{
"Letterink-NibData" = {
AngleInDegrees = 180;
};
}),
(133,649,l,{
"Letterink-NibData" = {
AngleInDegrees = 90;
};
}),
(322,649,ls,{
"Letterink-NibData" = {
AngleInDegrees = 90;
};
}),
(450,649,o),
(503,579,o),
(489,467,cs,{
"Letterink-NibData" = {
AngleInDegrees = 180;
};
}),
(473,340,o),
(375,278,o),
(239,272,cs,{
"Letterink-NibData" = {
AngleInDegrees = 270;
};
}),
(217,271,o),
(142,272,o),
(111,283,c,{
"Letterink-NibData" = {
AngleInDegrees = 180;
};
}),
(108,248,l,{
"Letterink-NibData" = {
AngleInDegrees = 90;
};
}),
(128,238,o),
(205,236,o),
(226,236,cs,{
"Letterink-NibData" = {
AngleInDegrees = 90;
};
})
);
},
{
closed = 1;
nodes = (
(91,0,l),
(175,681,l,{
"Letterink-NibData" = {
AngleInDegrees = 270;
};
}),
(135,681,l,{
"Letterink-NibData" = {
AngleInDegrees = 180;
};
}),
(51,0,l,{
"Letterink-NibData" = {
AngleInDegrees = 90;
};
})
);
}
);
width = 536;
},
{
anchors = (
{
name = bottom;
pos = (254,-2);
},
{
name = top;
pos = (332,684);
}
);
layerId = m004;
shapes = (
{
closed = 1;
nodes = (
(473,189,o),
(564,303,o),
(579,426,cs),
(598,580,o),
(501,683,o),
(359,683,cs,{
"Letterink-NibData" = {
AngleInDegrees = "270";
};
}),
(115,683,l,{
"Letterink-NibData" = {
AngleInDegrees = "180";
};
}),
(96,531,l),
(332,531,ls,{
"Letterink-NibData" = {
AngleInDegrees = "90";
};
}),
(367,531,o),
(421,512,o),
(412,442,cs,{
"Letterink-NibData" = {
AngleInDegrees = "180";
};
}),
(405,390,o),
(368,340,o),
(282,340,cs,{
"Letterink-NibData" = {
AngleInDegrees = "270";
};
}),
(263,340,o),
(232,341,o),
(212,351,c,{
"Letterink-NibData" = {
AngleInDegrees = "180";
};
}),
(200,203,l,{
"Letterink-NibData" = {
AngleInDegrees = "104.03624";
};
}),
(219,196,o),
(260,189,o),
(302,189,cs,{
"Letterink-NibData" = {
AngleInDegrees = "90";
};
})
);
},
{
closed = 1;
nodes = (
(198,-1,l),
(265,547,l,{
"Letterink-NibData" = {
AngleInDegrees = "90";
};
}),
(100,559,l,{
"Letterink-NibData" = {
AngleInDegrees = "180";
};
}),
(31,-1,l,{
"Letterink-NibData" = {
AngleInDegrees = "90";
};
})
);
}
);
width = 572;
},
{
anchors = (
{
name = bottom;
pos = (224,0);
},
{
name = top;
pos = (309,684);
}
);
layerId = "E3F1072B-0B24-4A31-98F2-2D5ADE0E752A";
shapes = (
{
closed = 1;
nodes = (
(420,222,o),
(523,315,o),
(541,455,cs),
(558,590,o),
(482,686,o),
(354,686,cs,{
"Letterink-NibData" = {
AngleInDegrees = 270;
};
}),
(133,686,l,{
"Letterink-NibData" = {
AngleInDegrees = 180;
};
}),
(126,619,l,{
"Letterink-NibData" = {
AngleInDegrees = 90;
};
}),
(336,619,ls,{
"Letterink-NibData" = {
AngleInDegrees = 90;
};
}),
(430,619,o),
(480,562,o),
(468,465,cs,{
"Letterink-NibData" = {
AngleInDegrees = 180;
};
}),
(454,355,o),
(376,293,o),
(250,289,cs,{
"Letterink-NibData" = {
AngleInDegrees = 270;
};
}),
(222,288,o),
(168,294,o),
(130,300,c,{
"Letterink-NibData" = {
AngleInDegrees = 180;
};
}),
(124,233,l,{
"Letterink-NibData" = {
AngleInDegrees = 90;
};
}),
(143,230,o),
(212,222,o),
(236,222,cs,{
"Letterink-NibData" = {
AngleInDegrees = 90;
};
})
);
},
{
closed = 1;
nodes = (
(121,-1,l),
(205,683,l,{
"Letterink-NibData" = {
AngleInDegrees = 270;
};
}),
(132,683,l,{
"Letterink-NibData" = {
AngleInDegrees = 180;
};
}),
(48,-1,l,{
"Letterink-NibData" = {
AngleInDegrees = 90;
};
})
);
}
);
width = 547;
}
);
metricLeft = N.ss01;
metricRight = P;
userData = {
position = 480;
width = 59;
};
},
{
glyphname = P.swsh;
kernLeft = Swash;
kernRight = P;
layers = (
{
anchors = (
{
name = bottom;
pos = (400,0);
},
{
name = top;
pos = (400,684);
}
);
hints = (
{
name = _corner.caps_swash;
options = 1;
origin = (0,6);
type = Corner;
}
);
layerId = "49C16FD3-6177-408B-A733-AEB3898BB77C";
shapes = (
{
closed = 1;
nodes = (
(525,244,o),
(625,324,o),
(642,463,cs),
(658,592,o),
(587,684,o),
(436,684,cs,{
"Letterink-NibData" = {
AngleInDegrees = 270;
};
}),
(216,684,l,{
"Letterink-NibData" = {
AngleInDegrees = 180;
};
}),
(217,648,l,{
"Letterink-NibData" = {
AngleInDegrees = 90;
};
}),
(419,648,ls,{
"Letterink-NibData" = {
AngleInDegrees = 90;
};
}),
(550,648,o),
(616,585,o),
(602,469,cs,{
"Letterink-NibData" = {
AngleInDegrees = 180;
};
}),
(587,348,o),
(505,279,o),
(378,279,cs,{
"Letterink-NibData" = {
AngleInDegrees = 270;
};
}),
(357,279,o),
(334,281,o),
(310,284,c,{
"Letterink-NibData" = {
AngleInDegrees = 180;
};
}),
(307,249,l,{
"Letterink-NibData" = {
AngleInDegrees = 96.84277;
};
}),
(329,246,o),
(350,244,o),
(368,244,cs,{
"Letterink-NibData" = {
AngleInDegrees = 90;
};
})
);
},
{
closed = 1;
nodes = (
(209,0,l),
(279,569,l,{
"Letterink-NibData" = {
AngleInDegrees = 270;
};
}),
(241,569,l,{
"Letterink-NibData" = {
AngleInDegrees = 180;
};
}),
(171,0,l,{
"Letterink-NibData" = {
AngleInDegrees = 90;
};
})
);
}
);
width = 650;
},
{
anchors = (
{
name = bottom;
pos = (361,0);
},
{
name = top;
pos = (361,684);
}
);
hints = (
{
name = _corner.caps_swash;
options = 1;
origin = (0,6);
type = Corner;
}
);
layerId = m004;
shapes = (
{
closed = 1;
nodes = (
(633,199,o),
(728,312,o),
(740,406,cs),
(761,582,o),
(667,684,o),
(531,684,cs,{
"Letterink-NibData" = {
AngleInDegrees = "270";
};
}),
(264,684,l,{
"Letterink-NibData" = {
AngleInDegrees = "180";
};
}),
(260,536,l),
(498,536,ls,{
"Letterink-NibData" = {
AngleInDegrees = "90";
};
}),
(541,536,o),
(582,513,o),
(572,428,cs,{
"Letterink-NibData" = {
AngleInDegrees = "180";
};
}),
(568,393,o),
(533,350,o),
(486,350,cs,{
"Letterink-NibData" = {
AngleInDegrees = "270";
};
}),
(472,350,o),
(465,350,o),
(448,356,c,{
"Letterink-NibData" = {
AngleInDegrees = "180";
};
}),
(436,209,l,{
"Letterink-NibData" = {
AngleInDegrees = "104.03624";
};
}),
(457,202,o),
(475,199,o),
(509,199,cs,{
"Letterink-NibData" = {
AngleInDegrees = "90";
};
})
);
},
{
closed = 1;
nodes = (
(370,-1,l),
(431,497,l,{
"Letterink-NibData" = {
AngleInDegrees = "90";
};
}),
(265,499,l,{
"Letterink-NibData" = {
AngleInDegrees = "180";
};
}),
(204,-1,l,{
"Letterink-NibData" = {
AngleInDegrees = "90";
};
})
);
}
);
width = 735;
},
{
anchors = (
{
name = bottom;
pos = (410,0);
},
{
name = top;
pos = (426,684);
}
);
hints = (
{
name = _corner.caps_swash;
options = 1;
origin = (0,6);
type = Corner;
}
);
layerId = "E3F1072B-0B24-4A31-98F2-2D5ADE0E752A";
shapes = (
{
closed = 1;
nodes = (
(535,229,o),
(652,310,o),
(670,456,cs),
(685,582,o),
(617,685,o),
(472,685,cs,{
"Letterink-NibData" = {
AngleInDegrees = 270;
};
}),
(227,685,l,{
"Letterink-NibData" = {
AngleInDegrees = 180;
};
}),
(228,618,l,{
"Letterink-NibData" = {
AngleInDegrees = 90;
};
}),
(453,618,ls,{
"Letterink-NibData" = {
AngleInDegrees = 90;
};
}),
(555,618,o),
(608,560,o),
(596,464,cs,{
"Letterink-NibData" = {
AngleInDegrees = 180;
};
}),
(583,359,o),
(509,295,o),
(394,295,cs,{
"Letterink-NibData" = {
AngleInDegrees = 270;
};
}),
(372,295,o),
(350,297,o),
(327,302,c,{
"Letterink-NibData" = {
AngleInDegrees = 180;
};
}),
(322,235,l,{
"Letterink-NibData" = {
AngleInDegrees = 96.84277;
};
}),
(341,231,o),
(361,229,o),
(387,229,cs,{
"Letterink-NibData" = {
AngleInDegrees = 90;
};
})
);
},
{
closed = 1;
nodes = (
(249,-1,l),
(318,561,l,{
"Letterink-NibData" = {
AngleInDegrees = 270;
};
}),
(245,561,l,{
"Letterink-NibData" = {
AngleInDegrees = 180;
};
}),
(176,-1,l,{
"Letterink-NibData" = {
AngleInDegrees = 90;
};
})
);
}
);
width = 676;
}
);
metricLeft = E.swsh;
metricRight = P;
userData = {
position = 480;
width = 59;
};
},
{
glyphname = Thorn;
kernRight = O;
layers = (
{
anchors = (
{
name = bottom;
pos = (214,0);
},
{
name = top;
pos = (298,684);
}
);
layerId = "49C16FD3-6177-408B-A733-AEB3898BB77C";
shapes = (
{
closed = 1;
nodes = (
(89,1,l),
(153,523,l,{
"Letterink-NibData" = {
AngleInDegrees = 90;
};
}),
(282,523,ls,{
"Letterink-NibData" = {
AngleInDegrees = 90;
};
}),
(406,523,o),
(466,467,o),
(451,341,cs,{
"Letterink-NibData" = {
AngleInDegrees = 180;
};
}),
(438,234,o),
(341,177,o),
(232,177,cs,{
"Letterink-NibData" = {
AngleInDegrees = 270;
};
}),
(198,177,o),
(187,177,o),
(174,179,c,{
"Letterink-NibData" = {
AngleInDegrees = 180;
};
}),
(172,146,l,{
"Letterink-NibData" = {
AngleInDegrees = 101.30993;
};
}),
(181,144,o),
(206,143,o),
(228,143,cs,{
"Letterink-NibData" = {
AngleInDegrees = 90;
};
}),
(365,143,o),
(473,204,o),
(489,335,cs),
(506,477,o),
(446,552,o),
(304,559,c,{
"Letterink-NibData" = {
AngleInDegrees = 270;
};
}),
(158,559,l),
(173,685,l,{
"Letterink-NibData" = {
AngleInDegrees = 270;
};
}),
(135,685,l,{
"Letterink-NibData" = {
AngleInDegrees = 180;
};
}),
(51,1,l,{
"Letterink-NibData" = {
AngleInDegrees = 90;
};
})
);
}
);
width = 513;
},
{
anchors = (
{
name = bottom;
pos = (250,0);
},
{
name = top;
pos = (334,684);
}
);
layerId = m004;
shapes = (
{
closed = 1;
nodes = (
(197,-1,l),
(251,440,l),
(313,440,ls,{
"Letterink-NibData" = {
AngleInDegrees = "90";
};
}),
(356,440,o),
(398,402,o),
(391,342,cs,{
"Letterink-NibData" = {
AngleInDegrees = "180";
};
}),
(384,282,o),
(348,255,o),
(301,255,cs,{
"Letterink-NibData" = {
AngleInDegrees = "270";
};
}),
(287,255,o),
(280,255,o),
(263,261,c,{
"Letterink-NibData" = {
AngleInDegrees = "180";
};
}),
(251,114,l,{
"Letterink-NibData" = {
AngleInDegrees = "104.03624";
};
}),
(272,107,o),
(290,104,o),
(324,104,cs,{
"Letterink-NibData" = {
AngleInDegrees = "90";
};
}),
(450,104,o),
(548,217,o),
(561,324,cs),
(580,487,o),
(485,588,o),
(346,588,cs,{
"Letterink-NibData" = {
AngleInDegrees = "270";
};
}),
(269,588,l),
(281,683,l,{
"Letterink-NibData" = {
AngleInDegrees = "90";
};
}),
(115,685,l,{
"Letterink-NibData" = {
AngleInDegrees = "180";
};
}),
(31,-1,l,{
"Letterink-NibData" = {
AngleInDegrees = "90";
};
})
);
}
);
width = 567;
},
{
anchors = (
{
name = bottom;
pos = (229,0);
},
{
name = top;
pos = (313,684);
}
);
layerId = "E3F1072B-0B24-4A31-98F2-2D5ADE0E752A";
shapes = (
{
closed = 1;
nodes = (
(121,-1,l),
(183,500,l,{
"Letterink-NibData" = {
AngleInDegrees = 90;
};
}),
(306,500,ls,{
"Letterink-NibData" = {
AngleInDegrees = 90;
};
}),
(399,500,o),
(448,445,o),
(435,339,cs,{
"Letterink-NibData" = {
AngleInDegrees = 180;
};
}),
(423,243,o),
(342,201,o),
(244,201,cs,{
"Letterink-NibData" = {
AngleInDegrees = 270;
};
}),
(220,201,o),
(202,203,o),
(180,207,c,{
"Letterink-NibData" = {
AngleInDegrees = 180;
};
}),
(175,140,l,{
"Letterink-NibData" = {
AngleInDegrees = 101.30993;
};
}),
(186,138,o),
(209,135,o),
(239,135,cs,{
"Letterink-NibData" = {
AngleInDegrees = 90;
};
}),
(373,135,o),
(490,199,o),
(507,331,cs),
(525,477,o),
(455,560,o),
(331,567,c,{
"Letterink-NibData" = {
AngleInDegrees = 270;
};
}),
(191,567,l),
(205,686,l,{
"Letterink-NibData" = {
AngleInDegrees = 270;
};
}),
(133,686,l,{
"Letterink-NibData" = {
AngleInDegrees = 180;
};
}),
(49,-1,l,{
"Letterink-NibData" = {
AngleInDegrees = 90;
};
})
);
}
);
width = 528;
}
);
metricLeft = "=|H";
metricRight = P;
unicode = 222;
userData = {
position = 403;
width = 59;
};
},
{
glyphname = Thorn.ss01;
kernRight = O;
layers = (
{
anchors = (
{
name = bottom;
pos = (214,0);
},
{
name = top;
pos = (298,684);
}
);
layerId = "49C16FD3-6177-408B-A733-AEB3898BB77C";
shapes = (
{
closed = 1;
nodes = (
(364,143,o),
(471,204,o),
(489,351,cs),
(504,477,o),
(444,552,o),
(327,559,c,{
"Letterink-NibData" = {
AngleInDegrees = 270;
};
}),
(148,559,l),
(143,523,l),
(305,523,ls,{
"Letterink-NibData" = {
AngleInDegrees = 90;
};
}),
(404,523,o),
(463,467,o),
(449,351,cs,{
"Letterink-NibData" = {
AngleInDegrees = 180;
};
}),
(435,234,o),
(340,177,o),
(232,177,cs,{
"Letterink-NibData" = {
AngleInDegrees = 270;
};
}),
(182,177,o),
(118,174,o),
(102,177,c,{
"Letterink-NibData" = {
AngleInDegrees = 180;
};
}),
(100,144,l,{
"Letterink-NibData" = {
AngleInDegrees = 101.30993;
};
}),
(108,142,o),
(207,143,o),
(228,143,cs,{
"Letterink-NibData" = {
AngleInDegrees = 90;
};
})
);
},
{
closed = 1;
nodes = (
(89,1,l),
(173,685,l,{
"Letterink-NibData" = {
AngleInDegrees = 270;
};
}),
(135,685,l,{
"Letterink-NibData" = {
AngleInDegrees = 180;
};
}),
(51,1,l,{
"Letterink-NibData" = {
AngleInDegrees = 90;
};
})
);
}
);
width = 511;
},
{
anchors = (
{
name = bottom;
pos = (241,0);
},
{
name = top;
pos = (325,684);
}
);
layerId = m004;
shapes = (
{
closed = 1;
nodes = (
(451,102,o),
(539,214,o),
(554,334,cs),
(573,485,o),
(480,586,o),
(346,586,cs,{
"Letterink-NibData" = {
AngleInDegrees = "270";
};
}),
(104,586,l,{
"Letterink-NibData" = {
AngleInDegrees = "180";
};
}),
(85,434,l),
(319,434,ls,{
"Letterink-NibData" = {
AngleInDegrees = "90";
};
}),
(349,434,o),
(395,416,o),
(387,350,cs,{
"Letterink-NibData" = {
AngleInDegrees = "180";
};
}),
(381,301,o),
(344,253,o),
(261,253,cs,{
"Letterink-NibData" = {
AngleInDegrees = "270";
};
}),
(241,253,o),
(210,254,o),
(191,264,c,{
"Letterink-NibData" = {
AngleInDegrees = "180";
};
}),
(178,116,l,{
"Letterink-NibData" = {
AngleInDegrees = "104.03624";
};
}),
(197,109,o),
(239,102,o),
(281,102,cs,{
"Letterink-NibData" = {
AngleInDegrees = "90";
};
})
);
},
{
closed = 1;
nodes = (
(197,-1,l),
(281,684,l,{
"Letterink-NibData" = {
AngleInDegrees = "90";
};
}),
(115,688,l,{
"Letterink-NibData" = {
AngleInDegrees = "180";
};
}),
(31,-1,l,{
"Letterink-NibData" = {
AngleInDegrees = "90";
};
})
);
}
);
width = 558;
},
{
anchors = (
{
name = bottom;
pos = (230,0);
},
{
name = top;
pos = (314,684);
}
);
layerId = "E3F1072B-0B24-4A31-98F2-2D5ADE0E752A";
shapes = (
{
closed = 1;
nodes = (
(374,135,o),
(490,199,o),
(509,349,cs),
(525,477,o),
(456,560,o),
(337,567,c,{
"Letterink-NibData" = {
AngleInDegrees = 270;
};
}),
(177,567,l),
(169,500,l),
(312,500,ls,{
"Letterink-NibData" = {
AngleInDegrees = 90;
};
}),
(400,500,o),
(448,453,o),
(436,358,cs,{
"Letterink-NibData" = {
AngleInDegrees = 180;
};
}),
(423,251,o),
(343,201,o),
(245,201,cs,{
"Letterink-NibData" = {
AngleInDegrees = 270;
};
}),
(217,201,o),
(138,199,o),
(117,202,c,{
"Letterink-NibData" = {
AngleInDegrees = 180;
};
}),
(112,136,l,{
"Letterink-NibData" = {
AngleInDegrees = 101.30993;
};
}),
(123,134,o),
(210,135,o),
(240,135,cs,{
"Letterink-NibData" = {
AngleInDegrees = 90;
};
})
);
},
{
closed = 1;
nodes = (
(122,-1,l),
(206,686,l,{
"Letterink-NibData" = {
AngleInDegrees = 270;
};
}),
(133,686,l,{
"Letterink-NibData" = {
AngleInDegrees = 180;
};
}),
(49,-1,l,{
"Letterink-NibData" = {
AngleInDegrees = 90;
};
})
);
}
);
width = 528;
}
);
metricLeft = "=|H";
metricRight = P;
userData = {
position = 403;
width = 59;
};
},
{
glyphname = Q;
kernLeft = O;
kernRight = O;
layers = (
{
anchors = (
{
name = bottom;
pos = (327,0);
},
{
name = top;
pos = (411,684);
}
);
layerId = "49C16FD3-6177-408B-A733-AEB3898BB77C";
shapes = (
{
closed = 1;
nodes = (
(184,-129,l,{
"Letterink-NibData" = {
AngleInDegrees = 108.43495;
};
}),
(220,-134,o),
(255,-153,o),
(291,-164,cs,{
"Letterink-NibData" = {
AngleInDegrees = 108.79988;
};
}),
(338,-179,o),
(373,-188,o),
(420,-188,cs,{
"Letterink-NibData" = {
AngleInDegrees = 90;
};
}),
(451,-188,o),
(485,-181,o),
(528,-152,c,{
"Letterink-NibData" = {
AngleInDegrees = 329.03624;
};
}),
(514,-121,l,{
"Letterink-NibData" = {
AngleInDegrees = 236.30993;
};
}),
(470,-148,o),
(441,-152,o),
(414,-152,cs,{
"Letterink-NibData" = {
AngleInDegrees = 270;
};
}),
(379,-152,o),
(340,-146,o),
(297,-132,cs,{
"Letterink-NibData" = {
AngleInDegrees = 288.62158;
};
}),
(266,-122,o),
(238,-107,o),
(207,-99,c,{
"Letterink-NibData" = {
AngleInDegrees = 34.33965;
};
}),
(297,9,l,{
"Letterink-NibData" = {
AngleInDegrees = 90;
};
}),
(259,16,l,{
"Letterink-NibData" = {
AngleInDegrees = 215.53768;
};
}),
(109,-164,l,{
"Letterink-NibData" = {
AngleInDegrees = 126.57303;
};
}),
(134,-187,l,{
"Letterink-NibData" = {
AngleInDegrees = 33.25437;
};
})
);
},
{
ref = O;
}
);
width = 732;
},
{
anchors = (
{
name = bottom;
pos = (342,0);
},
{
name = top;
pos = (426,684);
}
);
layerId = m004;
shapes = (
{
closed = 1;
nodes = (
(222,-203,l,{
"Letterink-NibData" = {
AngleInDegrees = 108.2394;
};
}),
(240,-210,o),
(262,-218,o),
(283,-222,cs,{
"Letterink-NibData" = {
AngleInDegrees = 107.52557;
};
}),
(310,-227,o),
(345,-245,o),
(413,-245,cs,{
"Letterink-NibData" = {
AngleInDegrees = 90;
};
}),
(476,-245,o),
(530,-228,o),
(616,-173,c,{
"Letterink-NibData" = {
AngleInDegrees = 330.25512;
};
}),
(555,-48,l,{
"Letterink-NibData" = {
AngleInDegrees = 234.34467;
};
}),
(507,-81,o),
(466,-98,o),
(419,-98,cs,{
"Letterink-NibData" = {
AngleInDegrees = 270;
};
}),
(395,-98,o),
(371,-97,o),
(353,-94,cs,{
"Letterink-NibData" = {
AngleInDegrees = 288.43495;
};
}),
(341,-92,o),
(326,-85,o),
(314,-80,c,{
"Letterink-NibData" = {
AngleInDegrees = 34.09498;
};
}),
(441,67,l,{
"Letterink-NibData" = {
AngleInDegrees = 90;
};
}),
(279,94,l,{
"Letterink-NibData" = {
AngleInDegrees = 215.43331;
};
}),
(56,-171,l,{
"Letterink-NibData" = {
AngleInDegrees = 128.07278;
};
}),
(170,-265,l,{
"Letterink-NibData" = {
AngleInDegrees = 34.74318;
};
})
);
},
{
ref = O;
}
);
width = 768;
},
{
anchors = (
{
name = bottom;
pos = (332,0);
},
{
name = top;
pos = (416,684);
}
);
layerId = "E3F1072B-0B24-4A31-98F2-2D5ADE0E752A";
shapes = (
{
closed = 1;
nodes = (
(204,-135,l,{
"Letterink-NibData" = {
AngleInDegrees = 108.43495;
};
}),
(234,-141,o),
(264,-155,o),
(294,-165,cs,{
"Letterink-NibData" = {
AngleInDegrees = 108.79988;
};
}),
(333,-178,o),
(365,-188,o),
(422,-188,cs,{
"Letterink-NibData" = {
AngleInDegrees = 90;
};
}),
(456,-188,o),
(499,-178,o),
(547,-142,c,{
"Letterink-NibData" = {
AngleInDegrees = 329.03624;
};
}),
(519,-85,l,{
"Letterink-NibData" = {
AngleInDegrees = 236.30993;
};
}),
(470,-117,o),
(448,-123,o),
(416,-123,cs,{
"Letterink-NibData" = {
AngleInDegrees = 270;
};
}),
(386,-123,o),
(350,-116,o),
(312,-104,cs,{
"Letterink-NibData" = {
AngleInDegrees = 288.62158;
};
}),
(290,-97,o),
(269,-84,o),
(246,-80,c,{
"Letterink-NibData" = {
AngleInDegrees = 34.33965;
};
}),
(316,5,l,{
"Letterink-NibData" = {
AngleInDegrees = 90;
};
}),
(246,17,l,{
"Letterink-NibData" = {
AngleInDegrees = 215.53768;
};
}),
(104,-155,l,{
"Letterink-NibData" = {
AngleInDegrees = 126.57303;
};
}),
(153,-196,l,{
"Letterink-NibData" = {
AngleInDegrees = 33.25437;
};
})
);
},
{
ref = O;
}
);
width = 754;
}
);
metricLeft = O;
metricRight = O;
unicode = 81;
userData = {
position = 652;
width = 60;
};
},
{
glyphname = Q.swsh;
kernLeft = O;
kernRight = O;
layers = (
{
anchors = (
{
name = bottom;
pos = (370,0);
},
{
name = top;
pos = (370,684);
}
);
layerId = "49C16FD3-6177-408B-A733-AEB3898BB77C";
shapes = (
{
closed = 1;
nodes = (
(592,-256,o),
(675,-148,o),
(619,-62,cs),
(584,-8,o),
(495,-3,o),
(458,-57,c),
(487,-79,l),
(514,-42,o),
(563,-45,o),
(587,-82,cs),
(627,-143,o),
(569,-225,o),
(487,-222,cs),
(375,-218,o),
(317,-101,o),
(171,-120,c),
(177,-155,l),
(306,-139,o),
(372,-261,o),
(496,-258,cs)
);
},
{
closed = 1;
nodes = (
(289,-1,l,{
"Letterink-NibData" = {
AngleInDegrees = 90;
};
}),
(257,6,l,{
"Letterink-NibData" = {
AngleInDegrees = 215.53768;
};
}),
(125,-179,l,{
"Letterink-NibData" = {
AngleInDegrees = 126.57303;
};
}),
(153,-199,l,{
"Letterink-NibData" = {
AngleInDegrees = 33.25437;
};
})
);
},
{
ref = O;
}
);
width = 732;
},
{
anchors = (
{
name = bottom;
pos = (370,0);
},
{
name = top;
pos = (370,684);
}
);
layerId = m004;
shapes = (
{
closed = 1;
nodes = (
(653,-308,o),
(745,-176,o),
(678,-69,cs),
(628,11,o),
(513,26,o),
(451,-56,c),
(535,-136,l),
(547,-130,o),
(555,-131,o),
(558,-139,cs),
(564,-155,o),
(549,-167,o),
(531,-166,cs),
(419,-160,o),
(393,-51,o),
(241,-85,c),
(255,-208,l),
(340,-201,o),
(389,-298,o),
(516,-303,cs)
);
},
{
closed = 1;
nodes = (
(457,67,l,{
"Letterink-NibData" = {
AngleInDegrees = "90";
};
}),
(294,94,l,{
"Letterink-NibData" = {
AngleInDegrees = "215.43331";
};
}),
(102,-171,l,{
"Letterink-NibData" = {
AngleInDegrees = "128.07278";
};
}),
(225,-265,l,{
"Letterink-NibData" = {
AngleInDegrees = "34.74318";
};
})
);
},
{
ref = O;
}
);
width = 771;
},
{
anchors = (
{
name = bottom;
pos = (382,0);
},
{
name = top;
pos = (382,684);
}
);
layerId = "E3F1072B-0B24-4A31-98F2-2D5ADE0E752A";
shapes = (
{
closed = 1;
nodes = (
(624,-270,o),
(710,-153,o),
(650,-60,cs),
(612,-1,o),
(514,4,o),
(466,-52,c),
(515,-95,l),
(538,-69,o),
(573,-71,o),
(590,-97,cs),
(622,-147,o),
(578,-202,o),
(508,-199,cs),
(410,-195,o),
(364,-78,o),
(197,-102,c),
(206,-164,l),
(349,-147,o),
(383,-262,o),
(508,-266,cs)
);
},
{
closed = 1;
nodes = (
(323,3,l,{
"Letterink-NibData" = {
AngleInDegrees = 90;
};
}),
(254,14,l,{
"Letterink-NibData" = {
AngleInDegrees = 215.53768;
};
}),
(131,-158,l,{
"Letterink-NibData" = {
AngleInDegrees = 126.57303;
};
}),
(184,-199,l,{
"Letterink-NibData" = {
AngleInDegrees = 33.25437;
};
})
);
},
{
ref = O;
}
);
width = 756;
}
);
metricLeft = O;
metricRight = O;
userData = {
position = 652;
width = 60;
};
},
{
glyphname = R;
kernLeft = E;
kernRight = R;
layers = (
{
anchors = (
{
name = bottom;
pos = (276,0);
},
{
name = top;
pos = (356,684);
}
);
hints = (
{
name = _corner.caps_left;
options = 1;
origin = (0,25);
type = Corner;
}
);
layerId = "49C16FD3-6177-408B-A733-AEB3898BB77C";
shapes = (
{
closed = 1;
nodes = (
(556,-9,o),
(581,10,o),
(592,28,c,{
"Letterink-NibData" = {
AngleInDegrees = "304.11447";
};
}),
(568,51,l,{
"Letterink-NibData" = {
AngleInDegrees = "225";
};
}),
(561,39,o),
(543,26,o),
(530,26,cs,{
"Letterink-NibData" = {
AngleInDegrees = "270";
};
}),
(516,26,o),
(507,35,o),
(501,46,cs,{
"Letterink-NibData" = {
AngleInDegrees = "323.49856";
};
}),
(463,110,o),
(449,183,o),
(402,250,cs,{
"Letterink-NibData" = {
AngleInDegrees = "322.59464";
};
}),
(385,275,o),
(377,282,o),
(349,293,c,{
"Letterink-NibData" = {
AngleInDegrees = "90";
};
}),
(363,293,o),
(376,293,o),
(389,293,cs,{
"Letterink-NibData" = {
AngleInDegrees = "90";
};
}),
(479,291,o),
(566,372,o),
(580,482,cs),
(594,597,o),
(526,685,o),
(412,685,cs,{
"Letterink-NibData" = {
AngleInDegrees = "269.73838";
};
}),
(192,685,l,{
"Letterink-NibData" = {
AngleInDegrees = "180";
};
}),
(191,649,l),
(194,649,l),
(114,1,l,{
"Letterink-NibData" = {
AngleInDegrees = "90";
};
}),
(153,1,l),
(232,649,l,{
"Letterink-NibData" = {
AngleInDegrees = "90";
};
}),
(406,649,ls,{
"Letterink-NibData" = {
AngleInDegrees = "90";
};
}),
(495,649,o),
(552,578,o),
(540,484,cs,{
"Letterink-NibData" = {
AngleInDegrees = "180";
};
}),
(529,387,o),
(459,321,o),
(353,321,cs,{
"Letterink-NibData" = {
AngleInDegrees = "270";
};
}),
(265,321,l,{
"Letterink-NibData" = {
AngleInDegrees = "180";
};
}),
(261,286,l,{
"Letterink-NibData" = {
AngleInDegrees = "97.30576000000001";
};
}),
(338,281,o),
(372,236,o),
(395,197,cs,{
"Letterink-NibData" = {
AngleInDegrees = "143.79054";
};
}),
(432,136,o),
(434,90,o),
(471,28,cs,{
"Letterink-NibData" = {
AngleInDegrees = "143.84181";
};
}),
(487,2,o),
(506,-9,o),
(529,-9,cs,{
"Letterink-NibData" = {
AngleInDegrees = "90";
};
})
);
}
);
width = 634;
},
{
anchors = (
{
name = bottom;
pos = (390,-10);
},
{
name = top;
pos = (458,684);
}
);
hints = (
{
name = _corner.caps_left;
options = 1;
origin = (0,25);
type = Corner;
}
);
layerId = m004;
shapes = (
{
closed = 1;
nodes = (
(652,-27,o),
(697,0,o),
(726,40,c,{
"Letterink-NibData" = {
AngleInDegrees = "330.25512";
};
}),
(643,131,l,{
"Letterink-NibData" = {
AngleInDegrees = "225";
};
}),
(638,127,o),
(635,122,o),
(628,122,cs,{
"Letterink-NibData" = {
AngleInDegrees = "270";
};
}),
(613,122,o),
(604,131,o),
(593,155,cs,{
"Letterink-NibData" = {
AngleInDegrees = "321.54629";
};
}),
(580,187,o),
(583,211,o),
(568,242,cs,{
"Letterink-NibData" = {
AngleInDegrees = "321.07246";
};
}),
(554,269,o),
(541,286,o),
(504,300,c,{
"Letterink-NibData" = {
AngleInDegrees = "90";
};
}),
(526,301,o),
(549,303,o),
(567,308,cs),
(651,331,o),
(701,401,o),
(711,484,cs),
(725,597,o),
(646,684,o),
(511,684,cs,{
"Letterink-NibData" = {
AngleInDegrees = "270";
};
}),
(217,684,l,{
"Letterink-NibData" = {
AngleInDegrees = "180";
};
}),
(204,536,l),
(217,536,l),
(149,0,l),
(310,0,l),
(380,536,l),
(469,536,ls,{
"Letterink-NibData" = {
AngleInDegrees = "90";
};
}),
(530,536,o),
(553,517,o),
(547,467,cs,{
"Letterink-NibData" = {
AngleInDegrees = "180";
};
}),
(541,420,o),
(505,389,o),
(440,389,cs,{
"Letterink-NibData" = {
AngleInDegrees = "270";
};
}),
(403,389,l,{
"Letterink-NibData" = {
AngleInDegrees = "180";
};
}),
(387,233,l,{
"Letterink-NibData" = {
AngleInDegrees = "91.4688";
};
}),
(398,233,o),
(415,210,o),
(428,181,cs,{
"Letterink-NibData" = {
AngleInDegrees = "143.88701";
};
}),
(448,137,o),
(469,55,o),
(484,34,cs,{
"Letterink-NibData" = {
AngleInDegrees = "143.47114";
};
}),
(505,4,o),
(538,-27,o),
(606,-27,cs,{
"Letterink-NibData" = {
AngleInDegrees = "90";
};
})
);
}
);
width = 747;
},
{
anchors = (
{
name = bottom;
pos = (299,0);
},
{
name = top;
pos = (372,684);
}
);
hints = (
{
name = _corner.caps_left;
options = 1;
origin = (0,25);
type = Corner;
}
);
layerId = "E3F1072B-0B24-4A31-98F2-2D5ADE0E752A";
shapes = (
{
closed = 1;
nodes = (
(565,-14,o),
(593,3,o),
(611,30,c,{
"Letterink-NibData" = {
AngleInDegrees = "304.11447";
};
}),
(566,72,l,{
"Letterink-NibData" = {
AngleInDegrees = "225";
};
}),
(560,63,o),
(549,53,o),
(540,53,cs,{
"Letterink-NibData" = {
AngleInDegrees = "270";
};
}),
(531,53,o),
(525,56,o),
(520,65,cs,{
"Letterink-NibData" = {
AngleInDegrees = "323.49856";
};
}),
(490,116,o),
(484,175,o),
(454,227,cs,{
"Letterink-NibData" = {
AngleInDegrees = "322.59464";
};
}),
(436,258,o),
(418,281,o),
(394,289,c,{
"Letterink-NibData" = {
AngleInDegrees = "90";
};
}),
(421,290,o),
(448,294,o),
(464,302,cs,{
"Letterink-NibData" = {
AngleInDegrees = "90";
};
}),
(537,332,o),
(594,396,o),
(604,474,cs),
(618,591,o),
(547,686,o),
(423,686,cs,{
"Letterink-NibData" = {
AngleInDegrees = "269.73838";
};
}),
(197,686,l,{
"Letterink-NibData" = {
AngleInDegrees = "180";
};
}),
(190,619,l),
(194,619,l),
(117,-1,l,{
"Letterink-NibData" = {
AngleInDegrees = "90";
};
}),
(190,-1,l),
(266,620,l,{
"Letterink-NibData" = {
AngleInDegrees = "90";
};
}),
(416,620,ls,{
"Letterink-NibData" = {
AngleInDegrees = "90";
};
}),
(493,620,o),
(540,562,o),
(530,478,cs,{
"Letterink-NibData" = {
AngleInDegrees = "180";
};
}),
(520,395,o),
(457,340,o),
(368,340,cs,{
"Letterink-NibData" = {
AngleInDegrees = "270";
};
}),
(291,340,l,{
"Letterink-NibData" = {
AngleInDegrees = "180";
};
}),
(284,272,l,{
"Letterink-NibData" = {
AngleInDegrees = "97.30576000000001";
};
}),
(353,268,o),
(366,241,o),
(393,195,cs,{
"Letterink-NibData" = {
AngleInDegrees = "143.79054";
};
}),
(425,141,o),
(429,84,o),
(462,29,cs,{
"Letterink-NibData" = {
AngleInDegrees = "143.84181";
};
}),
(479,0,o),
(504,-14,o),
(533,-14,cs,{
"Letterink-NibData" = {
AngleInDegrees = "90";
};
})
);
}
);
width = 652;
}
);
metricLeft = E;
unicode = 82;
userData = {
position = 619;
width = 57;
};
},
